<svg xmlns="http://www.w3.org/2000/svg" viewBox="0 0 278.2 154">
	<!--
	This logo includes the icon and all text in the standard font.  The
	layout used is the standard logo form with "CASA" and other text to the
	right of the icon.  It also includes standard spacing around the actual
	logo.  This is purely line art and can scale to any size.  Additionally,
	other configurations of the logo are possible since each part is
	enclosed in a "g" element and is easily configured via the built-in
	stylesheet below.

	Please note that the CASA icon is a registered trademark and may only
	be displayed in accordance to the style guide.  Please see a recent
	copy of the style guide for details.

	Based on the svg logo at:
	https://nationalcasagal.org/
	-->

	<style>
		<!-- CASA colors: #c00 (red) #006 (blue) -->

		<!-- guy + banner is 66.7 x 80.3 -->
		.guy {
			transform: translate(33.5px,33.5px);
		}
		.guy > * {
			fill: white;
		}
		.guy .banner {
			fill: #c00;
		}
		.guy .head {
		}
		.guy .body {
		}
		.guy .r-ball {
		}

		<!-- 64.4 x 18 -->
		.casa {
			transform: translate(89.5px,82.5px);
			fill: white;
		}

		<!-- 47 x 18 -->
		.gal {
			fill: none;
			stroke: none;
		}

		<!-- 81.1 x 6.7 -->
		.guardians-ad-litem {
			fill: none;
			stroke: none;
		}

		<!-- 155.9 x 8.5 -->
		.court-appointed-special-advocates {
			transform: translate(89.5px,104.5px);
			fill: white;
		}

		<!-- 79.2 x 6.7 -->
		.for-children {
			transform: translate(89.5px,114.5px);
			fill: #c00;
		}

		<!-- used for debugging -->
		.bounding-rect {
			fill: none;
			stroke: black;
			stroke-width: .1;
			z-index: -1;
		}
		.border {
			/* fill: #006; */
		}
	</style>

	<!-- outer border -->
	<rect width="100%" height="100%" class="border bounding-rect" />

	<!-- guy -->
	<g class="guy">
		<rect x="0" y="0" width="66.7" height="80.3" class="bounding-rect" />
  		<!-- body -->
  		<path d="M61.1 32 c1-1.5 1.8-3.2 2.5-4.9-4.6-.9-7.4 1.9-9.8 5.7-2.7 4.1-6.2 8.4-11.8 11-5.6 2.6-10.3 2.6-14.4.8s-9.1-6.3-11.9-8.1c-2.4-1.5-4.7-1.1-6.5.3 4.7 5.5 11 10.7 17.8 14.5 0 0-8.5 14.7-9.9 17.5-1.8 3.7.9 4.6 2.7 2.7 1.8-2 6.1-6.8 8.8-9.1 2.7-2.3 6.8-1.8 9.7 1.3 2.9 3 5.9 7.9 8.6 12.2 2.7 4.3 5.2 4.8 7.2 3.8-6.6-14.3-13.6-27-13.6-27 9.9-5.7 16.3-14.1 20.6-20.7z" class="body"></path>
  		<!-- head -->
  		<path d="M36.7 32.5c.5 3.6-1.2 6.8-3.8 7.2-2.7.4-5.2-2.2-5.8-5.8-.5-3.6 1.2-6.8 3.8-7.2 2.7-.4 5.3 2.2 5.8 5.8z" class="head"></path>
		<!-- top banner -->
		<path d="M6.5 32.8c-3.4-7.6-3.3-13.1-.7-16.6 2.6-3.5 7.9-5.7 12.9-4.1 5 1.6 8.3 6.2 10.2 7.5 1.9 1.2 4.5 1.9 8.5-2.9 3.9-4.5 8.8-8.8 15.1-9.1 5.4-.2 10.4 3.2 11.9 8 .7 2.3.7 5.8 0 9.4 2-5.7 2.7-11.9 1.7-15.6-1.4-5.4-6.8-9.6-12.7-9.3-6.4.3-12.3 4.6-16.7 9.5-4.6 5.1-7.4 4.3-9.4 2.9s-5.4-6.7-10.8-8.7c-5.4-2-11.2.4-14.1 4.1-3 3.8-3.2 9.8.2 18.4 1.1 2.7 2.8 5.6 5 8.4-.4-.6-.8-1.2-1.1-1.9z" class="banner"></path>
		<!-- r-ball -->
		<path d="
			M48.9 50.8 c1.5 0 2.7 1.2 2.7 2.7 0 1.5-1.2 2.7-2.7 2.7-1.5 0-2.7-1.2-2.7-2.7 0-1.5 1.2-2.7 2.7-2.7z
			m0 .4c-1.2 0-2.2 1-2.2 2.3 0 1.3 1 2.3 2.2 2.3 1.2 0 2.2-1 2.2-2.3s-1-2.3-2.2-2.3z
			m-.5 3.8h-.5v-3c.3 0 .5-.1.9-.1.5 0 .8.1.9.2.2.1.3.3.3.6 0 .4-.3.6-.6.7.3 0 .4.3.5.7.1.5.1.6.2.7h-.5c-.1-.1-.1-.4-.2-.8s-.3-.5-.6-.5h-.3v1.5z
			m0-1.6h.3c.4 0 .7-.1.7-.5 0-.3-.2-.5-.7-.5h-.3v1z
		" class="r-ball"></path>
	</g>

	<!-- CASA -->
	<g class="casa">
		<rect x="0" y="0" width="64.4" height="18" class="bounding-rect" />
		<path d="
			M13.2 6c-.7-.7-1.4-1.3-2.1-1.6-.7-.4-1.5-.5-2.3-.5-1.4 0-2.5.5-3.4 1.4s-1.3 2.2-1.3 3.7.4 2.7 1.3 3.6c.9.9 2 1.4 3.4 1.4.8 0 1.6-.2 2.5-.5.8-.3 1.6-.9 2.5-1.5l-.2 4.3c-.7.5-1.5.8-2.3 1.1-.8.2-1.7.4-2.6.4-1 0-1.9-.1-2.8-.4-.9-.3-1.7-.7-2.4-1.3-1-.8-1.9-1.8-2.4-3-.6-1.2-.8-2.5-.8-3.9 0-1.2.2-2.3.6-3.4s1-2 1.8-2.8c.8-.8 1.7-1.4 2.8-1.9 1-.4 2.1-.6 3.3-.6.9 0 1.8.1 2.6.4s1.6.6 2.4 1.2l-.6 3.9z
			M16 17.1L24.3 .3h.2l8.1 16.8h-4.1l-1-2.4h-6.6l-1.1 2.4h-3.8z
			m6-5.2H26.3l-2.1-5.1-2.2 5.1z
			M35.3 12.5c1 .6 1.9 1 2.6 1.3.7.2 1.4.4 2 .4.7 0 1.2-.1 1.6-.4.4-.3.6-.7.6-1.1 0-.7-.7-1.4-2.2-2.2-.2-.1-.4-.2-.5-.3l-1.1-.8c-1.1-.6-1.9-1.3-2.4-2.1s-.8-1.6-.8-2.6c0-1.3.5-2.4 1.5-3.2s2.3-1.3 3.8-1.3c.6 0 1.2.1 1.9.2s1.4.3 2.2.6v3.8c-.8-.5-1.5-.9-2.2-1.1s-1.3-.4-1.8-.4-1 .1-1.3.4c-.3.2-.5.6-.5 1 0 .3.1.6.3.8s.5.5.8.7l1.9 1.1c1.6.9 2.7 1.7 3.2 2.4s.8 1.6.8 2.7c0 1.6-.5 2.9-1.6 3.8-1.1 1-2.5 1.5-4.3 1.5-.6 0-1.3-.1-2-.2s-1.5-.3-2.3-.6l-.2-4.4z
			M47.6 17.1l8.3-16.8h.2l8.1 16.8h-4.1l-1-2.4h-6.6l-1.1 2.4h-3.8z
			m6-5.2h4.3l-2.1-5.1-2.2 5.1z
		" class=""></path>
	</g>

	<!-- GAL -->
	<g class="gal">
		<rect x="0" y="0" width="47" height="18" class="bounding-rect" />
		<path d="
			M15.1 8v8c-1.1.5-2.2 1-3.2 1.2-1 .3-2 .4-3 .4-2.5 0-4.5-.8-6.2-2.5-1.6-1.6-2.5-3.7-2.5-6.2s.8-4.6 2.5-6.2c1.7-1.6 3.8-2.5 6.3-2.5 1 0 1.9.1 2.7.4s1.7.7 2.5 1.2l-.4 4.1c-.8-.8-1.5-1.3-2.3-1.7-.7-.4-1.5-.5-2.4-.5-1.5 0-2.7.5-3.6 1.5-1 1-1.4 2.2-1.4 3.7s.5 2.8 1.4 3.8c.9 1 2.1 1.5 3.6 1.5.3 0 .7 0 1-.1s.7-.1 1.1-.3v-2.4h-3.1V8h7z
			M17.2 17.1l8.3-16.8h.2l8.1 16.8h-4.1l-1-2.4h-6.6l-1.1 2.4h-3.8z
			m6-5.2h4.3l-2.1-5.1-2.2 5.1z
			M36.4 17.1V0.8h3.9v12.8h6.3v3.5h-10.2z
		" class=""></path>
	</g>

	<!-- Guardians ad Litem -->
	<g class="guardians-ad-litem">
		<rect x="0" y="0" width="81.1" height="6.7" class="bounding-rect" />
		<path d="
			M5.1 6.2c-.4.1-1 .3-1.9.3-.9 0-1.7-.2-2.3-.8-.5-.5-.8-1.3-.8-2.3 0-1.8 1.3-3.1 3.3-3.1.7 0 1.3.2 1.5.3l-.2.6c-.3-.1-.7-.3-1.3-.3-1.5 0-2.4.9-2.4 2.4s.9 2.4 2.3 2.4c.5 0 .9-.1 1-.2v-1.8h-1.2v-.6h2v3.1z
			M10.5 5.3v1.2H9.8v-.7c-.2.4-.7.8-1.4.8s-1.5-.4-1.5-1.9v-2.5h.8v2.4c0 .8.3 1.4 1 1.4.5 0 .9-.4 1-.7 0-.1.1-.3.1-.4v-2.7h.8v3.1z
			M14.8 6.5l-.1-.5c-.2.3-.7.6-1.3.6-.9 0-1.3-.6-1.3-1.3 0-1.1.9-1.6 2.6-1.6v-.1c0-.4-.1-1-1-1-.4 0-.8.1-1.1.3l-.2-.5c.4-.2.9-.4 1.4-.4 1.3 0 1.7.9 1.7 1.8v1.6c0 .4 0 .7.1 1H14.8z
			m-.2-2.2c-.9 0-1.8.1-1.8 1 0 .5.3.8.7.8.6 0 .9-.4 1.1-.7v-1.1z
			M17.2 3.5v-1.4h.7v.9c.2-.6.7-1 1.2-1h.2v.7h-.3c-.6 0-1 .4-1.1 1V6.4h-.8v-2.9z
			M24.4 .1v6.4h-.7v-.8c-.2.5-.8.9-1.5.9-1.1 0-1.9-.9-1.9-2.2 0-1.4.9-2.3 2-2.3.7 0 1.1.3 1.3.7v-2.6h.8z
			m-.8 3.8v-.3c-.1-.5-.5-.9-1.1-.9-.8 0-1.3.7-1.3 1.7 0 .9.4 1.6 1.3 1.6.5 0 1-.4 1.2-.9v-1.2z
			M27.1 .9c0 .3-.2.5-.5.5s-.5-.2-.5-.5.2-.5.5-.5.5.2.5.5z
			m-.9 5.6v-4.4h.8v4.4h-.8z
			M31.3 6.5l-.1-.5c-.2.3-.7.6-1.3.6-.9 0-1.3-.6-1.3-1.3 0-1.1.9-1.6 2.6-1.6v-.1c0-.4-.1-1-1-1-.4 0-.8.1-1.1.3l-.3-.5c.4-.2.9-.4 1.4-.4 1.3 0 1.7.9 1.7 1.8v1.6c0 .4 0 .7.1 1h-.7z
			m-.1-2.2c-.9 0-1.8.1-1.8 1 0 .5.3.8.7.8.6 0 .9-.4 1.1-.7v-1.1z
			M33.8 3.3v-1.2h.7v.7c.2-.4.7-.8 1.4-.8.6 0 1.5.4 1.5 1.9v2.6h-.8v-2.5c0-.7-.3-1.3-1-1.3-.5 0-.9.4-1.1.8 0 .1-.1.2-.1.4v2.6H33.8v-3.2z
			M39.8 5.7c.2.2.6.3 1 .3.6 0 .8-.3.8-.6 0-.4-.2-.6-.8-.8-.8-.3-1.2-.7-1.2-1.2 0-.7.6-1.3 1.5-1.3.4 0 .8.1 1.1.3l-.2.6c-.2-.1-.5-.3-.9-.3-.5 0-.7.3-.7.6 0 .4.3.5.8.7.8.3 1.1.7 1.1 1.3 0 .8-.6 1.3-1.6 1.3-.5 0-.9-.1-1.2-.3l.3-.6z
			M48.3 6.5l-.1-.5c-.2.3-.7.6-1.3.6-.9 0-1.3-.6-1.3-1.3 0-1.1.9-1.6 2.6-1.6v-.1c0-.4-.1-1-1-1-.4 0-.8.1-1.1.3l-.3-.5c.4-.2.9-.4 1.4-.4 1.3 0 1.7.9 1.7 1.8v1.6c0 .4 0 .7.1 1h-.7z
			m-.2-2.2c-.9 0-1.8.1-1.8 1 0 .5.3.8.7.8.6 0 .9-.4 1.1-.7v-1.1z
			M54.5 .1v6.4h-.7v-.8c-.2.5-.8.9-1.5.9-1.1 0-1.9-.9-1.9-2.2 0-1.4.9-2.3 2-2.3.7 0 1.1.3 1.3.7v-2.6h.8z
			m-.8 3.8v-.3c-.1-.5-.5-.9-1.1-.9-.8 0-1.3.7-1.3 1.7 0 .9.4 1.6 1.3 1.6.5 0 1-.4 1.2-.9v-1.2z
			M58.8 .4h.8v5.4h2.6v.7H58.8V.4z
			M64.5 .9c0 .3-.2.5-.5.5s-.5-.2-.5-.5.2-.5.5-.5.5.2.5.5z
			m-.9 5.6v-4.4h.8v4.4h-.8z
			M67.2 .9v1.3h1.1v.6h-1.1v2.3c0 .5.2.8.6.8.2 0 .4 0 .5-.1v.6c-.2.1-.4.1-.7.1-.4 0-.7-.1-.9-.3-.2-.2-.3-.6-.3-1.1v-2.4h-.7v-.6h.7v-1l.8-.2z
			M70.1 4.5c0 1.1.7 1.5 1.5 1.5.6 0 .9-.1 1.2-.2l.1.6c-.3.1-.8.3-1.4.3-1.3 0-2.1-.9-2.1-2.2s.8-2.4 2-2.4c1.4 0 1.8 1.3 1.8 2.1v.4h-3.1z
			m2.3-.6c0-.5-.2-1.3-1.1-1.3-.8 0-1.2.7-1.2 1.3h2.3z
			M74.7 3.3v-1.2h.7v.7c.2-.4.6-.8 1.4-.8.6 0 1 .4 1.2.9.1-.2.3-.4.5-.6.3-.2.5-.3 1-.3.6 0 1.4.4 1.4 1.9v2.6h-.8v-2.5c0-.8-.3-1.3-.9-1.3-.5 0-.8.3-.9.7 0 .1-.1.3-.1.4v2.7h-.8v-2.6c0-.7-.3-1.2-.9-1.2-.5 0-.9.4-1 .8 0 .1-.1.3-.1.4v2.6h-.8v-3.2z
		" class=""></path>
	</g>

	<!-- Court Appointed Special Advocates -->
	<g class="court-appointed-special-advocates">
		<rect x="0" y="0" width="155.9" height="8.5" class="bounding-rect" />
		<path d="
			M5.0 6.4c-.3.1-.9.3-1.7.3-1.8 0-3.1-1.1-3.1-3.1 0-1.9 1.3-3.2 3.3-3.2.8 0 1.3.2 1.5.3l-.2.6c-.3-.1-.7-.3-1.3-.3-1.5 0-2.5.9-2.5 2.5 0 1.5.9 2.4 2.4 2.4.5 0 1-.1 1.3-.3l.3.8z
			M10.6 4.4c0 1.6-1.2 2.3-2.3 2.3-1.2 0-2.2-.9-2.2-2.2 0-1.5 1-2.3 2.2-2.3 1.4-.1 2.3.9 2.3 2.2z
			m-3.6 0c0 1 .6 1.7 1.4 1.7.8 0 1.4-.7 1.4-1.7 0-.7-.4-1.7-1.4-1.7s-1.4.9-1.4 1.7z
			M16.0 5.4v1.2h-.7v-.7c-.2.4-.7.8-1.5.8-.7 0-1.6-.4-1.6-1.9v-2.5h.8v2.4c0 .8.3 1.4 1 1.4.6 0 .9-.4 1.1-.7 0-.1.1-.3.1-.4v-2.7h.8v3.1z
			M17.9 3.6v-1.4h.7v.9c.2-.6.7-1 1.3-1h.2v.7h-.3c-.6 0-1 .4-1.1 1V6.5h-.8v-2.9z
			M22.7 1v1.3h1.2v.6h-1.2v2.3c0 .5.2.8.6.8.2 0 .4 0 .5-.1v.6c-.2.1-.4.1-.7.1-.4 0-.7-.1-.9-.3-.2-.2-.3-.6-.3-1.1v-2.4H21.2v-.6h.7v-1l.8-.2z
			M29.0 4.7l-.7 1.9h-.8l2.1-6.1h1l2.2 6.1h-.9l-.7-1.9h-2.2z
			m2.1-.6l-.6-1.7c-.1-.4-.2-.8-.3-1.1-.1.4-.2.7-.3 1.1l-.7 1.7h1.9z
			M34.2 3.7v-1.4h.7v.7c.3-.5.9-.8 1.6-.8 1.1 0 1.9.9 1.9 2.2 0 1.6-1 2.3-2.1 2.3-.6 0-1.1-.3-1.4-.7v2.4H34.2v-4.7z
			m.8 1.1v.3c.1.5.6.9 1.2.9.9 0 1.4-.7 1.4-1.7 0-.9-.5-1.6-1.3-1.6-.6 0-1.1.4-1.2 1 0 .1-.1.2-.1.3v.8z
			M40.1 3.7v-1.4h.7v.7c.3-.5.9-.8 1.6-.8 1.1 0 1.9.9 1.9 2.2 0 1.6-1 2.3-2.1 2.3-.6 0-1.1-.3-1.4-.7v2.4h-.8v-4.7z
			m.8 1.1v.3c.1.5.6.9 1.2.9.9 0 1.4-.7 1.4-1.7 0-.9-.5-1.6-1.3-1.6-.6 0-1.1.4-1.2 1 0 .1-.1.2-.1.3v.8z
			M50.1 4.4c0 1.6-1.2 2.3-2.3 2.3-1.2 0-2.2-.9-2.2-2.2 0-1.5 1-2.3 2.2-2.3 1.4-.1 2.3.9 2.3 2.2z
			m-3.6 0c0 1 .6 1.7 1.4 1.7.8 0 1.4-.7 1.4-1.7 0-.7-.4-1.7-1.4-1.7s-1.4.9-1.4 1.7z
			M52.6 1c0 .3-.2.5-.5.5s-.5-.2-.5-.5.2-.5.5-.5.5.2.5.5z
			m-.9 5.6v-4.4h.8v4.4h-.8z
			M54.4 3.4v-1.2h.7v.7c.2-.4.7-.8 1.5-.8.6 0 1.6.4 1.6 1.9v2.6h-.8v-2.5c0-.7-.3-1.3-1-1.3-.5 0-1 .4-1.1.8 0 .1-.1.2-.1.4v2.6h-.8v-3.2z
			M61.1 1v1.3h1.2v.6h-1.2v2.3c0 .5.2.8.6.8.2 0 .4 0 .5-.1v.6c-.2.1-.4.1-.7.1-.4 0-.7-.1-.9-.3-.2-.2-.3-.6-.3-1.1v-2.4h-.7v-.6h.7v-1l.8-.2z
			M64.2 4.6c0 1.1.7 1.5 1.6 1.5.6 0 .9-.1 1.3-.2l.1.6c-.3.1-.8.3-1.5.3-1.4 0-2.2-.9-2.2-2.2s.8-2.4 2.1-2.4c1.5 0 1.9 1.3 1.9 2.1v.4H64.2z
			m2.4-.6c0-.5-.2-1.3-1.1-1.3-.8 0-1.2.7-1.3 1.3h2.4z
			M72.9 .2v6.4H72.2v-.8c-.3.5-.8.9-1.5.9-1.1 0-1.9-.9-1.9-2.2 0-1.4.9-2.3 2-2.3.7 0 1.2.3 1.4.7v-2.6h.7z
			m-.8 3.8v-.3c-.1-.5-.6-.9-1.2-.9-.9 0-1.4.7-1.4 1.7 0 .9.4 1.6 1.3 1.6.6 0 1.1-.4 1.2-.9v-1.2z
			M77.3 5.6c.4.2.9.4 1.5.4.8 0 1.3-.4 1.3-1s-.3-.9-1.2-1.2c-1-.4-1.7-.9-1.7-1.7 0-.9.8-1.6 2-1.6.6 0 1.1.1 1.4.3l-.2.6c-.2-.1-.6-.3-1.2-.3-.9 0-1.2.5-1.2.9 0 .6.4.8 1.3 1.2 1.1.4 1.6.9 1.6 1.8s-.7 1.7-2.2 1.7c-.6 0-1.3-.2-1.6-.4l.2-.7z
			M82.6 3.7v-1.4h.7v.7c.3-.5.9-.8 1.6-.8 1.1 0 1.9.9 1.9 2.2 0 1.6-1 2.3-2.1 2.3-.6 0-1.1-.3-1.4-.7v2.4h-.8v-4.7z
			m.8 1.1v.3c.1.5.6.9 1.2.9.9 0 1.4-.7 1.4-1.7 0-.9-.5-1.6-1.3-1.6-.6 0-1.1.4-1.2 1 0 .1-.1.2-.1.3v.8z
			M88.9 4.6c0 1.1.7 1.5 1.6 1.5.6 0 .9-.1 1.3-.2l.1.6c-.3.1-.8.3-1.5.3-1.4 0-2.2-.9-2.2-2.2s.8-2.4 2.1-2.4c1.5 0 1.9 1.3 1.9 2.1v.4h-3.3z
			m2.4-.6c0-.5-.2-1.3-1.1-1.3-.8 0-1.2.7-1.3 1.3h2.4z
			M96.9 6.4c-.2.1-.7.3-1.3.3-1.4 0-2.3-.9-2.3-2.2 0-1.3 1-2.3 2.4-2.3.5 0 .9.1 1.1.2l-.2.6c-.2-.1-.5-.2-1-.2-1 0-1.6.7-1.6 1.6 0 1 .7 1.6 1.6 1.6.5 0 .8-.1 1-.2l.3.6z
			M99.4 1c0 .3-.2.5-.5.5s-.5-.2-.5-.5.2-.5.5-.5.5.2.5.5z
			m-.9 5.6v-4.4h.8v4.4h-.8z
			M103.7 6.6l-.1-.5c-.3.3-.7.6-1.4.6-.9 0-1.4-.6-1.4-1.3 0-1.1 1-1.6 2.7-1.6v-.1c0-.4-.1-1-1-1-.4 0-.9.1-1.2.3l-.1-.5c.4-.2.9-.4 1.5-.4 1.4 0 1.7.9 1.7 1.8V5.5c0 .4 0 .7.1 1h-.8z
			m-.1-2.2c-.9 0-1.9.1-1.9 1 0 .5.4.8.8.8.6 0 1-.4 1.1-.7v-1.1z
			M106.3 .2h.8v6.4h-.8v-6.4z
			M112.7 4.7l-.7 1.9h-.8l2.1-6.1h1l2.2 6.1h-.9l-.7-1.9h-2.2z
			m2-.6l-.6-1.7c-.1-.4-.2-.8-.3-1.1-.1.4-.2.7-.3 1.1l-.6 1.8h1.8z
			M121.7 .2v6.4h-.7v-.8c-.3.5-.8.9-1.5.9-1.1 0-1.9-.9-1.9-2.2 0-1.4.9-2.3 2-2.3.7 0 1.2.3 1.4.7v-2.6h.7z
			m-.8 3.8v-.3c-.1-.5-.6-.9-1.2-.9-.9 0-1.4.7-1.4 1.7 0 .9.4 1.6 1.3 1.6.6 0 1.1-.4 1.2-.9v-1.2z
			M123.9 2.2l.9 2.4c.1.4.3.8.4 1.1.1-.4.2-.7.4-1.1l.9-2.4h.9l-1.8 4.4h-.8l-1.7-4.4h.8z
			M132.7 4.4c0 1.6-1.2 2.3-2.3 2.3-1.2 0-2.2-.9-2.2-2.2 0-1.5 1-2.3 2.2-2.3 1.4-.1 2.3.9 2.3 2.2z
			m-3.6 0c0 1 .6 1.7 1.4 1.7.8 0 1.4-.7 1.4-1.7 0-.7-.4-1.7-1.4-1.7s-1.4.9-1.4 1.7z
			M137.5 6.4c-.2.1-.7.3-1.3.3-1.4 0-2.3-.9-2.3-2.2 0-1.3 1-2.3 2.4-2.3.5 0 .9.1 1.1.2l-.2.6c-.2-.1-.5-.2-1-.2-1 0-1.6.7-1.6 1.6 0 1 .7 1.6 1.6 1.6.5 0 .8-.1 1-.2l.3.6z
			M141.6 6.6l-.1-.5c-.3.3-.7.6-1.4.6-.9 0-1.4-.6-1.4-1.3 0-1.1 1-1.6 2.7-1.6v-.1c0-.4-.1-1-1-1-.4 0-.9.1-1.2.3l-.2-.5c.4-.2.9-.4 1.5-.4 1.4 0 1.7.9 1.7 1.8V5.5c0 .4 0 .7.1 1h-.7z
			m-.2-2.2c-.9 0-1.9.1-1.9 1 0 .5.4.8.8.8.6 0 1-.4 1.1-.7v-1.1z
			M145.1 1v1.3h1.2v.6h-1.2v2.3c0 .5.2.8.6.8.2 0 .4 0 .5-.1v.6c-.2.1-.4.1-.7.1-.4 0-.7-.1-.9-.3-.2-.2-.3-.6-.3-1.1v-2.4h-.7v-.6h.7v-1l.8-.2z
			M148.1 4.6c0 1.1.7 1.5 1.6 1.5.6 0 .9-.1 1.3-.2l.1.6c-.3.1-.8.3-1.5.3-1.4 0-2.2-.9-2.2-2.2s.8-2.4 2.1-2.4c1.5 0 1.9 1.3 1.9 2.1v.4h-3.3z
			m2.5-.6c0-.5-.2-1.3-1.1-1.3-.8 0-1.2.7-1.3 1.3h2.4z
			M152.8 5.8c.2.2.7.3 1.1.3.6 0 .9-.3.9-.6 0-.4-.2-.6-.8-.8-.8-.3-1.2-.7-1.2-1.2 0-.7.6-1.3 1.6-1.3.5 0 .9.1 1.1.3l-.2.6c-.2-.1-.5-.3-.9-.3-.5 0-.8.3-.8.6 0 .4.3.5.9.7.8.3 1.2.7 1.2 1.3 0 .8-.6 1.3-1.7 1.3-.5 0-1-.1-1.3-.3l.1-.6z
		" class=""></path>
	</g>

	<!-- FOR CHILDREN -->
	<g class="for-children">
		<rect x="0" y="0" width="79.2" height="6.7" class="bounding-rect" />
		<path d="
			M0.2 .4h3.7v1.2h-2.3v1.2h2.1v1.2h-2.1v2.4h-1.4v-6z
			M7.1 1.1c.6-.6 1.3-.9 2.2-.9.8 0 1.6.3 2.2.9.6.6.9 1.4.9 2.3 0 .7-.2 1.4-.6 2-.6.8-1.5 1.2-2.4 1.2-.8 0-1.6-.3-2.2-.9-.6-.6-.9-1.4-.9-2.3-.1-.9.2-1.7.8-2.3z
			m2.1 4.1c.9 0 1.6-.8 1.6-1.8 0-1.1-.7-1.8-1.6-1.8-.9 0-1.6.8-1.6 1.8s.8 1.8 1.6 1.8z
			M15 .4h1.5c.8 0 1.4.1 1.9.4.4.3.7.8.7 1.3 0 .8-.4 1.3-1.1 1.7l1.8 2.6h-1.6l-1.6-2.4H16.4v2.4h-1.4v-6z
			m1.4 1.1v1.7h.3c.7 0 1.1-.3 1.1-.8 0-.6-.4-.8-1.2-.8H16.4z
			M29 1.5c-1 0-1.7.8-1.7 1.9 0 1.1.7 1.8 1.7 1.8.6 0 1.2-.3 1.8-.8l-.1 1.6c-.5.3-1.1.5-1.8.5s-1.4-.2-1.9-.7c-.8-.6-1.2-1.5-1.2-2.5 0-.9.3-1.7.9-2.3.6-.6 1.4-.9 2.2-.9.7 0 1.3.2 1.8.6l-.2 1.5c-.3-.5-.9-.7-1.5-.7z
			M33.5 .4h1.4v2.2h2.3v-2.2h1.4v6h-1.4V3.9h-2.3v2.5h-1.4v-6z
			M41.7 .4h1.4v6h-1.4v-6z
			M46.3 .4h1.4v4.7h2.3v1.3h-3.8v-6z
			M52.4 .4h1.6c2.3 0 3.6 1.2 3.6 3 0 1.1-.5 2-1.5 2.6-.6.4-1.3.4-2.1.4H52.4v-6z
			m1.8 4.7c1.3 0 2-.7 2-1.7s-.7-1.7-2-1.7h-.3v3.4h.3z
			M60.3 .4h1.5c.8 0 1.4.1 1.9.4.4.3.7.8.7 1.3 0 .8-.4 1.3-1.1 1.7l1.8 2.6h-1.6l-1.6-2.4h-.2v2.4h-1.4v-6z
			m1.4 1.1v1.7h.3c.7 0 1.1-.3 1.1-.8 0-.6-.4-.8-1.2-.8h-.2z
			M67.4 .4h3.7v1.2h-2.3v1.1h2v1.2h-2v1.2h2.3v1.3H67.4v-6z
			M73.9 .2h.1l3.7 3.5v-3.3h1.3v6.2h-.1l-3.7-3.5v3.3h-1.3v-6.2z
		" class=""></path>
	</g>
</svg>
