<?xml version="1.0" encoding="UTF-8"?>
<svg width="70px" height="74px" viewBox="0 0 70 74" version="1.1" xmlns="http://www.w3.org/2000/svg" xmlns:xlink="http://www.w3.org/1999/xlink">
    <!-- Generator: Sketch 62 (91390) - https://sketch.com -->
    <title>Artboard</title>
    <desc>Created with Sketch.</desc>
    <g id="Artboard" stroke="none" stroke-width="1" fill="none" fill-rule="evenodd">
        <path d="M15.223,68.171 C13.468,68.171 11.693,67.846 9.98,67.178 C6.416,65.786 3.607,63.091 2.071,59.587 C0.535,56.083 0.456,52.191 1.847,48.627 C3.929,43.292 8.974,39.717 14.699,39.518749 C15.555,39.504 16.282,40.163 16.312,41.024 C16.341,41.884 15.667,42.607 14.806,42.637 C10.327,42.792 6.382,45.589 4.753,49.761 C3.664,52.55 3.727,55.594 4.928,58.334 C6.13,61.074 8.326,63.183 11.114,64.271 C15.426,65.955 20.247,64.853 23.398,61.464 C23.985,60.833 24.972,60.797 25.602,61.384 C26.233,61.971 26.269,62.958 25.682,63.589 C22.905,66.573 19.114,68.171 15.223,68.171 Z" id="Path" fill="#FFFFFF" fill-rule="nonzero"></path>
        <path d="M14.825,42.423 C14.815,42.423 14.806,42.423 14.797,42.423 C13.139,42.394 11.506,42.076 9.944,41.48 C6.37,40.116 3.542,37.441 1.979,33.949 C0.416,30.457 0.308,26.564 1.673,22.991 C3.037,19.417 5.713,16.589 9.205,15.027 C12.697,13.465 16.588,13.355 20.162,14.72 C22.26,15.521 24.089,16.76 25.597,18.404 C26.18,19.038 26.138,20.025 25.503,20.607 C24.869,21.19 23.881,21.148 23.299,20.513 C22.121,19.23 20.691,18.262 19.049,17.634 C16.254,16.568 13.21,16.652 10.479,17.874 C7.748,19.096 5.656,21.308 4.588,24.103 C3.52,26.898 3.605,29.942 4.826,32.673 C6.049,35.404 8.262,37.496 11.056,38.564 C12.279,39.031 13.556,39.279 14.852,39.302 C15.712,39.318 16.399,40.029 16.383,40.89 C16.369,41.743 15.674,42.423 14.825,42.423 Z" id="Path" fill="#FFFFFF" fill-rule="nonzero"></path>
        <path d="M54.845,68.116 C50.839,68.116 46.903,66.442 44.141,63.359 C43.566,62.717 43.62,61.731 44.262,61.156 C44.904,60.581 45.89,60.635 46.465,61.277 C49.565,64.738 54.557,65.927 58.886,64.237 C61.674,63.149 63.87,61.041 65.072,58.299 C66.274,55.559 66.338,52.515 65.249,49.727 C63.62,45.555 59.674,42.758 55.195,42.602 C54.334,42.573 53.661,41.85 53.69,40.989 C53.719,40.147 54.412,39.483 55.248,39.483 C55.268,39.483 55.285,39.484 55.304,39.484 C61.029,39.683 66.074,43.258 68.156,48.593 C71.028,55.949 67.38,64.272 60.022,67.143 C58.343,67.799 56.587,68.116 54.845,68.116 Z" id="Path" fill="#FFFFFF" fill-rule="nonzero"></path>
        <path d="M55.175,42.39 C54.327,42.39 53.632,41.71 53.616,40.859 C53.6,39.998 54.286,39.286 55.147,39.271 C56.443,39.248 57.72,38.999 58.943,38.532 C61.738,37.465 63.951,35.373 65.172,32.642 C66.393,29.911 66.479,26.867 65.41,24.072 C64.344,21.276 62.252,19.064 59.519,17.842 C56.788,16.62 53.744,16.536 50.949,17.603 C49.299,18.233 47.862,19.209 46.678,20.503 C46.097,21.14 45.11,21.185 44.474,20.603 C43.838,20.022 43.794,19.035 44.375,18.399 C45.89,16.742 47.727,15.494 49.835,14.689 C53.409,13.324 57.301,13.432 60.793,14.995 C64.285,16.557 66.96,19.386 68.324,22.96 C69.689,26.533 69.581,30.425 68.018,33.918 C66.456,37.41 63.627,40.084 60.054,41.449 C58.492,42.045 56.86,42.362 55.201,42.392 C55.194,42.39 55.185,42.39 55.175,42.39 Z" id="Path" fill="#FFFFFF" fill-rule="nonzero"></path>
        <path d="M43.766,26.269 C43.42,26.269 43.072,26.155 42.783,25.919 C42.115,25.375 42.013,24.393 42.557,23.725 C43.37,22.725 43.8,21.584 43.8,20.425 C43.8,16.861 39.867,13.961 35.034,13.961 C30.201,13.961 26.269,16.86 26.269,20.425 C26.269,21.563 26.682,22.685 27.466,23.669 C28.003,24.343 27.891,25.324 27.217,25.86 C26.543,26.397 25.562,26.286 25.025,25.612 C23.797,24.069 23.149,22.276 23.149,20.424 C23.149,15.14 28.48,10.84 35.034,10.84 C41.588,10.84 46.919,15.14 46.919,20.424 C46.919,22.309 46.247,24.131 44.977,25.693 C44.668,26.073 44.219,26.269 43.766,26.269 Z" id="Path" fill="#FFFFFF" fill-rule="nonzero"></path>
        <path d="M43.689,37.26 C43.343,37.26 42.995,37.146 42.706,36.909 C42.038,36.366 41.936,35.383 42.48,34.715 C43.293,33.716 43.723,32.575 43.723,31.417 C43.723,27.853 39.79,24.952 34.957,24.952 C30.124,24.952 26.192,27.852 26.192,31.417 C26.192,32.554 26.605,33.675 27.389,34.659 C27.926,35.333 27.814,36.315 27.14,36.851 C26.466,37.387 25.485,37.276 24.948,36.602 C23.72,35.059 23.072,33.266 23.072,31.416 C23.072,26.131 28.403,21.831 34.957,21.831 C41.511,21.831 46.842,26.131 46.842,31.416 C46.842,33.3 46.17,35.121 44.9,36.684 C44.592,37.064 44.143,37.26 43.689,37.26 Z" id="Path" fill="#FFFFFF" fill-rule="nonzero"></path>
        <path d="M43.652,48.093 C43.305,48.093 42.958,47.978 42.669,47.743 C42,47.199 41.899,46.216 42.443,45.548 C43.256,44.549 43.685,43.408 43.685,42.249 C43.685,38.685 39.753,35.786 34.92,35.786 C30.087,35.786 26.154,38.685 26.154,42.249 C26.154,43.386 26.569,44.508 27.352,45.493 C27.888,46.167 27.777,47.148 27.103,47.684 C26.427,48.221 25.447,48.109 24.911,47.435 C23.683,45.892 23.035,44.098 23.035,42.248 C23.035,36.963 28.366,32.665 34.92,32.665 C41.473,32.665 46.805,36.964 46.805,42.248 C46.805,44.133 46.133,45.955 44.863,47.517 C44.555,47.896 44.105,48.093 43.652,48.093 Z" id="Path" fill="#FFFFFF" fill-rule="nonzero"></path>
        <path d="M34.925,73.081 C28.433,73.081 23.15,68.82 23.15,63.583 C23.15,58.346 28.433,54.085 34.925,54.085 C41.418,54.085 46.7,58.346 46.7,63.583 C46.7,68.82 41.418,73.081 34.925,73.081 Z M34.925,57.205 C30.154,57.205 26.271,60.066 26.271,63.583 C26.271,67.1 30.154,69.962 34.925,69.962 C39.697,69.962 43.58,67.1 43.58,63.583 C43.58,60.066 39.697,57.205 34.925,57.205 Z" id="Shape" fill="#FFFFFF" fill-rule="nonzero"></path>
        <path d="M43.58,59.069 C43.233,59.069 42.886,58.955 42.597,58.719 C41.928,58.175 41.827,57.193 42.371,56.525 C43.183,55.526 43.613,54.385 43.613,53.225 C43.613,49.662 39.681,46.761 34.848,46.761 C30.015,46.761 26.082,49.661 26.082,53.225 C26.082,54.363 26.497,55.485 27.28,56.469 C27.816,57.144 27.705,58.125 27.031,58.661 C26.355,59.198 25.374,59.086 24.839,58.412 C23.611,56.869 22.963,55.075 22.963,53.224 C22.963,47.94 28.294,43.64 34.848,43.64 C41.401,43.64 46.733,47.94 46.733,53.224 C46.733,55.109 46.061,56.931 44.791,58.493 C44.482,58.873 44.032,59.069 43.58,59.069 Z" id="Path" fill="#FFFFFF" fill-rule="nonzero"></path>
        <path d="M36.741,12.811 C36.65,12.811 36.558,12.803 36.467,12.787 C35.618,12.637 35.053,11.827 35.203,10.978 C36.006,6.458 38.707,5.318 40.878,4.402 C41.526,4.129 42.139,3.87 42.672,3.538 C43.591,2.966 44.035,2.003 44.04,1.993 C44.381,1.202 45.299,0.837 46.089,1.178 C46.881,1.519 47.246,2.436 46.905,3.228 C46.823,3.416 46.06,5.104 44.321,6.187 C43.579,6.649 42.822,6.969 42.091,7.278 C40.099,8.119 38.781,8.674 38.276,11.524 C38.141,12.28 37.483,12.811 36.741,12.811 Z" id="Path" fill="#FFFFFF" fill-rule="nonzero"></path>
        <path d="M32.341,12.681 C31.599,12.681 30.942,12.15 30.807,11.393 C30.301,8.543 28.984,7.988 26.991,7.146 C26.26,6.837 25.504,6.518 24.762,6.056 C23.023,4.972 22.259,3.285 22.178,3.097 C21.837,2.305 22.202,1.388 22.994,1.046 C23.784,0.705 24.703,1.07 25.043,1.862 L25.043,1.862 C25.043,1.862 25.492,2.834 26.412,3.407 C26.944,3.739 27.557,3.997 28.205,4.271 C30.375,5.187 33.077,6.328 33.88,10.847 C34.03,11.695 33.465,12.504 32.616,12.656 C32.523,12.673 32.432,12.681 32.341,12.681 Z" id="Path" fill="#FFFFFF" fill-rule="nonzero"></path>
    </g>
</svg>