<?xml version="1.0" encoding="UTF-8"?>
<svg width="26px" height="73px" viewBox="0 0 26 73" version="1.1" xmlns="http://www.w3.org/2000/svg" xmlns:xlink="http://www.w3.org/1999/xlink">
    <!-- Generator: Sketch 62 (91390) - https://sketch.com -->
    <title>catterpillar</title>
    <desc>Created with Sketch.</desc>
    <g id="catterpillar" stroke="none" stroke-width="1" fill="none" fill-rule="evenodd">
        <path d="M22.043487,25.3507692 C21.697487,25.3507692 21.349487,25.2367692 21.060487,25.0007692 C20.392487,24.4567692 20.290487,23.4747692 20.834487,22.8067692 C21.647487,21.8067692 22.077487,20.6657692 22.077487,19.5067692 C22.077487,15.9427692 18.144487,13.0427692 13.311487,13.0427692 C8.47848704,13.0427692 4.54648704,15.9417692 4.54648704,19.5067692 C4.54648704,20.6447692 4.95948704,21.7667692 5.74348704,22.7507692 C6.28048704,23.4247692 6.16848704,24.4057692 5.49448704,24.9417692 C4.82048704,25.4787692 3.83948704,25.3677692 3.30248704,24.6937692 C2.07448704,23.1507692 1.42648704,21.3577692 1.42648704,19.5057692 C1.42648704,14.2217692 6.75748704,9.92176925 13.311487,9.92176925 C19.865487,9.92176925 25.196487,14.2217692 25.196487,19.5057692 C25.196487,21.3907692 24.524487,23.2127692 23.254487,24.7747692 C22.945487,25.1547692 22.496487,25.3507692 22.043487,25.3507692 Z" id="Path" fill="#FFFFFF" fill-rule="nonzero"></path>
        <path d="M21.966487,36.3417692 C21.620487,36.3417692 21.272487,36.2277692 20.983487,35.9907692 C20.315487,35.4477692 20.213487,34.4647692 20.757487,33.7967692 C21.570487,32.7977692 22.000487,31.6567692 22.000487,30.4987692 C22.000487,26.9347692 18.067487,24.0337692 13.234487,24.0337692 C8.40148704,24.0337692 4.46948704,26.9337692 4.46948704,30.4987692 C4.46948704,31.6357692 4.88248704,32.7567692 5.66648704,33.7407692 C6.20348704,34.4147692 6.09148704,35.3967692 5.41748704,35.9327692 C4.74348704,36.4687692 3.76248704,36.3577692 3.22548704,35.6837692 C1.99748704,34.1407692 1.34948704,32.3477692 1.34948704,30.4977692 C1.34948704,25.2127692 6.68048704,20.9127692 13.234487,20.9127692 C19.788487,20.9127692 25.119487,25.2127692 25.119487,30.4977692 C25.119487,32.3817692 24.447487,34.2027692 23.177487,35.7657692 C22.869487,36.1457692 22.420487,36.3417692 21.966487,36.3417692 Z" id="Path" fill="#FFFFFF" fill-rule="nonzero"></path>
        <path d="M21.929487,47.1747692 C21.582487,47.1747692 21.235487,47.0597692 20.946487,46.8247692 C20.277487,46.2807692 20.176487,45.2977692 20.720487,44.6297692 C21.533487,43.6307692 21.962487,42.4897692 21.962487,41.3307692 C21.962487,37.7667692 18.030487,34.8677692 13.197487,34.8677692 C8.36448704,34.8677692 4.43148704,37.7667692 4.43148704,41.3307692 C4.43148704,42.4677692 4.84648704,43.5897692 5.62948704,44.5747692 C6.16548704,45.2487692 6.05448704,46.2297692 5.38048704,46.7657692 C4.70448704,47.3027692 3.72448704,47.1907692 3.18848704,46.5167692 C1.96048704,44.9737692 1.31248704,43.1797692 1.31248704,41.3297692 C1.31248704,36.0447692 6.64348704,31.7467692 13.197487,31.7467692 C19.750487,31.7467692 25.082487,36.0457692 25.082487,41.3297692 C25.082487,43.2147692 24.410487,45.0367692 23.140487,46.5987692 C22.832487,46.9777692 22.382487,47.1747692 21.929487,47.1747692 Z" id="Path" fill="#FFFFFF" fill-rule="nonzero"></path>
        <path d="M13.202487,72.1627692 C6.71048704,72.1627692 1.42748704,67.9017692 1.42748704,62.6647692 C1.42748704,57.4277692 6.71048704,53.1667692 13.202487,53.1667692 C19.695487,53.1667692 24.977487,57.4277692 24.977487,62.6647692 C24.977487,67.9017692 19.695487,72.1627692 13.202487,72.1627692 Z M13.202487,56.2867692 C8.43148704,56.2867692 4.54848704,59.1477692 4.54848704,62.6647692 C4.54848704,66.1817692 8.43148704,69.0437692 13.202487,69.0437692 C17.974487,69.0437692 21.857487,66.1817692 21.857487,62.6647692 C21.857487,59.1477692 17.974487,56.2867692 13.202487,56.2867692 Z" id="Shape" fill="#FFFFFF" fill-rule="nonzero"></path>
        <path d="M21.857487,58.1507692 C21.510487,58.1507692 21.163487,58.0367692 20.874487,57.8007692 C20.205487,57.2567692 20.104487,56.2747692 20.648487,55.6067692 C21.460487,54.6077692 21.890487,53.4667692 21.890487,52.3067692 C21.890487,48.7437692 17.958487,45.8427692 13.125487,45.8427692 C8.29248704,45.8427692 4.35948704,48.7427692 4.35948704,52.3067692 C4.35948704,53.4447692 4.77448704,54.5667692 5.55748704,55.5507692 C6.09348704,56.2257692 5.98248704,57.2067692 5.30848704,57.7427692 C4.63248704,58.2797692 3.65148704,58.1677692 3.11648704,57.4937692 C1.88848704,55.9507692 1.24048704,54.1567692 1.24048704,52.3057692 C1.24048704,47.0217692 6.57148704,42.7217692 13.125487,42.7217692 C19.678487,42.7217692 25.010487,47.0217692 25.010487,52.3057692 C25.010487,54.1907692 24.338487,56.0127692 23.068487,57.5747692 C22.759487,57.9547692 22.309487,58.1507692 21.857487,58.1507692 Z" id="Path" fill="#FFFFFF" fill-rule="nonzero"></path>
        <path d="M15.018487,11.8927692 C14.927487,11.8927692 14.835487,11.8847692 14.744487,11.8687692 C13.895487,11.7187692 13.330487,10.9087692 13.480487,10.0597692 C14.283487,5.53976925 16.984487,4.39976925 19.155487,3.48376925 C19.803487,3.21076925 20.416487,2.95176925 20.949487,2.61976925 C21.868487,2.04776925 22.312487,1.08476925 22.317487,1.07476925 C22.658487,0.283769249 23.576487,-0.0812307509 24.366487,0.259769249 C25.158487,0.600769249 25.523487,1.51776925 25.182487,2.30976925 C25.100487,2.49776925 24.337487,4.18576925 22.598487,5.26876925 C21.856487,5.73076925 21.099487,6.05076925 20.368487,6.35976925 C18.376487,7.20076925 17.058487,7.75576925 16.553487,10.6057692 C16.418487,11.3617692 15.760487,11.8927692 15.018487,11.8927692 Z" id="Path" fill="#FFFFFF" fill-rule="nonzero"></path>
        <path d="M10.618487,11.7627692 C9.87648704,11.7627692 9.21948704,11.2317692 9.08448704,10.4747692 C8.57848704,7.62476925 7.26148704,7.06976925 5.26848704,6.22776925 C4.53748704,5.91876925 3.78148704,5.59976925 3.03948704,5.13776925 C1.30048704,4.05376925 0.536487038,2.36676925 0.455487038,2.17876925 C0.114487038,1.38676925 0.479487038,0.469769249 1.27148704,0.127769249 C2.06148704,-0.213230751 2.98048704,0.151769249 3.32048704,0.943769249 L3.32048704,0.943769249 C3.32048704,0.943769249 3.76948704,1.91576925 4.68948704,2.48876925 C5.22148704,2.82076925 5.83448704,3.07876925 6.48248704,3.35276925 C8.65248704,4.26876925 11.354487,5.40976925 12.157487,9.92876925 C12.307487,10.7767692 11.742487,11.5857692 10.893487,11.7377692 C10.800487,11.7547692 10.709487,11.7627692 10.618487,11.7627692 Z" id="Path" fill="#FFFFFF" fill-rule="nonzero"></path>
    </g>
</svg>