<?xml version="1.0" encoding="utf-8"?>
<svg version="1.1" xmlns:xlink="http://www.w3.org/1999/xlink" width="21px" height="19px" xmlns="http://www.w3.org/2000/svg">
  <g transform="matrix(1 0 0 1 -44 -151 )">
    <path d="M 11.885579064588 15.9684495192308  C 11.9596325167038 15.8961338141026  11.9966592427617 15.8066907051282  11.9966592427617 15.7001201923077  L 11.9966592427617 13.5306490384615  C 11.9966592427617 13.424078525641  11.9596325167038 13.3346354166667  11.885579064588 13.2623197115385  C 11.8115256124722 13.1900040064103  11.7238307349666 13.1538461538462  11.6224944320713 13.1538461538462  L 9.37750556792873 13.1538461538462  C 9.27616926503341 13.1538461538462  9.18847438752784 13.1900040064103  9.11442093541203 13.2623197115385  C 9.04036748329621 13.3346354166667  9.00334075723831 13.424078525641  9.00334075723831 13.5306490384615  L 9.00334075723831 15.7001201923077  C 9.00334075723831 15.8066907051282  9.04036748329621 15.8961338141026  9.11442093541203 15.9684495192308  C 9.18847438752784 16.040765224359  9.27616926503341 16.0769230769231  9.37750556792873 16.0769230769231  L 11.6224944320713 16.0769230769231  C 11.7238307349666 16.0769230769231  11.8115256124722 16.040765224359  11.885579064588 15.9684495192308  Z M 11.8505011135857 11.6180889423077  C 11.9245545657016 11.568609775641  11.9654788418708 11.5058092948718  11.9732739420935 11.4296875  L 12.1837416481069 6.18870192307692  C 12.1837416481069 6.09735576923077  12.1447661469933 6.02504006410256  12.0668151447661 5.97175480769231  C 11.9654788418708 5.88802083333333  11.8719376391982 5.84615384615385  11.7861915367483 5.84615384615385  L 9.21380846325167 5.84615384615385  C 9.12806236080178 5.84615384615385  9.03452115812918 5.88802083333333  8.93318485523385 5.97175480769231  C 8.85523385300668 6.02504006410256  8.8162583518931 6.10496794871795  8.8162583518931 6.21153846153846  L 9.01503340757238 11.4296875  C 9.01503340757238 11.5058092948718  9.05400890868597 11.568609775641  9.13195991091314 11.6180889423077  C 9.20991091314031 11.6675681089744  9.30345211581292 11.6923076923077  9.41258351893096 11.6923076923077  L 11.575723830735 11.6923076923077  C 11.684855233853 11.6923076923077  11.7764476614699 11.6675681089744  11.8505011135857 11.6180889423077  Z M 11.2600222717149 0.205528846153846  C 11.4938752783964 0.342548076923077  11.6770601336303 0.529046474358973  11.8095768374165 0.765024038461539  L 20.7895322939866 16.8419471153846  C 21.0623608017817 17.3215144230769  21.054565701559 17.8010817307692  20.7661469933185 18.2806490384615  C 20.6336302895323 18.5014022435897  20.4523942093541 18.6764823717949  20.222438752784 18.8058894230769  C 19.9924832962138 18.935296474359  19.7449888641425 19  19.4799554565702 19  L 1.52004454342984 19  C 1.25501113585746 19  1.00751670378619 18.935296474359  0.777561247216036 18.8058894230769  C 0.54760579064588 18.6764823717949  0.366369710467706 18.5014022435897  0.233853006681514 18.2806490384615  C -0.0545657015590201 17.8010817307692  -0.0623608017817372 17.3215144230769  0.210467706013363 16.8419471153846  L 9.19042316258352 0.765024038461539  C 9.32293986636971 0.529046474358973  9.50612472160356 0.342548076923077  9.73997772828508 0.205528846153846  C 9.97383073496659 0.0685096153846162  10.2271714922049 0  10.5 0  C 10.7728285077951 0  11.0261692650334 0.0685096153846162  11.2600222717149 0.205528846153846  Z " fill-rule="nonzero" fill="#e95a50" stroke="none" transform="matrix(1 0 0 1 44 151 )" />
  </g>
</svg>