<svg xmlns="http://www.w3.org/2000/svg" viewBox="0 0 500 500"><g id="freepik--Floor--inject-6"><ellipse id="freepik--floor--inject-6" cx="250" cy="343.75" rx="243.12" ry="144.62" style="fill:#fafafa"></ellipse></g><g id="freepik--Shadows--inject-6"><path id="freepik--Shadow--inject-6" d="M350.89,439.17l-16.33-9.43a6.59,6.59,0,0,0-5.93,0l-14.45,8.34a3,3,0,0,0-.83-.7L297,428a6.59,6.59,0,0,0-5.93,0l-16.33,9.43c-1.64.95-1.64,2.48,0,3.43l9.84,5.68-.66.38c-1.64.95-1.64,2.48,0,3.43l16.33,9.43a6.59,6.59,0,0,0,5.93,0l16.33-9.43a2.45,2.45,0,0,0,1.1-1.15l5,2.88a6.59,6.59,0,0,0,5.93,0l16.33-9.43C352.53,441.65,352.53,440.12,350.89,439.17Z" style="fill:#ebebeb"></path><ellipse id="freepik--shadow--inject-6" cx="143.02" cy="371.73" rx="95.45" ry="55.11" style="fill:#ebebeb"></ellipse><ellipse id="freepik--shadow--inject-6" cx="358.25" cy="375.63" rx="71.78" ry="41.44" style="fill:#ebebeb"></ellipse><path id="freepik--shadow--inject-6" d="M306.12,306.94c31.29-18.06,31.29-47.34,0-65.4s-82-18.06-113.28,0-31.29,47.34,0,65.4S274.84,325,306.12,306.94Z" style="fill:#ebebeb"></path></g><g id="freepik--Window--inject-6"><g id="freepik--window--inject-6"><polygon points="162.52 124.06 41.26 194.12 41.26 94.07 162.52 24 162.52 124.06" style="fill:#fff"></polygon><polygon points="41.26 194.12 41.26 197.85 165.69 125.95 162.52 124.06 41.26 194.12" style="fill:#fafafa"></polygon><path d="M171.68,11.8,35.34,90.57V208.19l136.34-78.78Zm-6,114.15L41.26,197.85V94.07l124.43-71.9Z" style="fill:#f0f0f0"></path><polygon points="165.69 125.95 162.52 124.06 162.52 24 165.69 22.17 165.69 125.95" style="fill:#e0e0e0"></polygon><polygon points="171.68 11.8 168.46 9.96 32.11 88.73 35.34 90.58 171.68 11.8" style="fill:#fafafa"></polygon><polygon points="32.11 88.73 35.34 90.58 35.34 208.19 32.11 206.34 32.11 88.73" style="fill:#e0e0e0"></polygon><polygon points="97.29 61.66 100.52 59.8 100.52 163.6 97.29 161.75 97.29 61.66" style="fill:#e0e0e0"></polygon><polygon points="106.5 56.36 100.52 59.8 100.52 163.6 106.5 160.13 106.5 56.36" style="fill:#f0f0f0"></polygon></g></g><g id="freepik--Shelf--inject-6"><g id="freepik--Bookcase--inject-6"><g id="freepik--v--inject-6"><polygon points="320.06 236.63 350.56 219.03 480.08 293.81 480.08 297.15 449.59 314.76 320.06 239.98 320.06 236.63" style="fill:#ebebeb"></polygon><polygon points="449.59 311.41 320.06 236.63 350.56 219.03 480.08 293.81 449.59 311.41" style="fill:#f5f5f5"></polygon><polygon points="449.59 311.41 449.59 314.76 480.08 297.15 480.08 293.81 449.59 311.41" style="fill:#e0e0e0"></polygon><polygon points="320.06 114.2 350.56 96.6 353.45 98.27 353.45 220.7 322.96 238.3 320.06 236.63 320.06 114.2" style="fill:#ebebeb"></polygon><polygon points="353.45 220.7 322.96 238.3 322.96 115.87 353.45 98.27 353.45 220.7" style="fill:#e0e0e0"></polygon><polygon points="347.64 175.99 324.39 189.42 324.39 235.27 347.64 221.84 347.64 175.99" style="fill:#e0e0e0"></polygon><path d="M325.14,190.16l22.5-12.92a9.42,9.42,0,0,0,5.15,2.81l-22.32,12.87S329,192.58,325.14,190.16Z" style="fill:#fff"></path><path d="M332.64,192.84a4.79,4.79,0,0,1-4.33,0l-3.79-2.18a1.31,1.31,0,0,1,0-2.48l22.18-12.73.94.54-21.81,12.6a.78.78,0,0,0,0,1.49l3.52,2a2.87,2.87,0,0,0,2.6,0l21.81-12.57,1.06.61Z" style="fill:#fafafa"></path><path d="M354.82,180.11V226l-22.18,12.73a4.85,4.85,0,0,1-4.33,0l-3.79-2.18a1.51,1.51,0,0,1-.89-1.24V189.42a1.51,1.51,0,0,0,.89,1.24l3.79,2.18a4.79,4.79,0,0,0,4.33,0Z" style="fill:#e0e0e0"></path><path d="M330.47,193.36a4.37,4.37,0,0,1-2.16-.52l-3.79-2.18a1.51,1.51,0,0,1-.89-1.24v45.85a1.51,1.51,0,0,0,.89,1.24l3.79,2.18a4.48,4.48,0,0,0,2.16.51Z" style="fill:#f0f0f0"></path><polygon points="357.16 181.45 333.9 194.88 333.9 240.73 357.16 227.3 357.16 181.45" style="fill:#ebebeb"></polygon><path d="M334.65,195.62l22.51-12.92a9.39,9.39,0,0,0,5.14,2.81L340,198.38S338.54,198,334.65,195.62Z" style="fill:#fff"></path><path d="M342.15,198.3a4.79,4.79,0,0,1-4.33,0L334,196.13a1.31,1.31,0,0,1,0-2.49l22.19-12.73.94.54-21.82,12.6a.78.78,0,0,0,0,1.49l3.52,2a2.87,2.87,0,0,0,2.6,0L363.27,185l1.06.61Z" style="fill:#fafafa"></path><path d="M364.33,185.57v45.85l-22.18,12.73a4.85,4.85,0,0,1-4.33,0L334,242a1.51,1.51,0,0,1-.89-1.24V194.88a1.51,1.51,0,0,0,.89,1.24l3.79,2.18a4.79,4.79,0,0,0,4.33,0Z" style="fill:#e0e0e0"></path><path d="M340,198.82a4.38,4.38,0,0,1-2.17-.52L334,196.12a1.51,1.51,0,0,1-.89-1.24v45.85A1.51,1.51,0,0,0,334,242l3.79,2.18a4.49,4.49,0,0,0,2.17.51Z" style="fill:#f0f0f0"></path><polygon points="375.94 193.29 352.69 206.72 352.69 250.97 375.94 237.54 375.94 193.29" style="fill:#e0e0e0"></polygon><path d="M353.43,207.46l22.51-12.92a9.42,9.42,0,0,0,5.15,2.81l-22.32,12.87S357.33,209.88,353.43,207.46Z" style="fill:#fff"></path><path d="M360.93,210.14a4.77,4.77,0,0,1-4.32,0L352.82,208c-1.2-.68-1.2-1.79,0-2.48L375,192.75l.94.54-21.82,12.6a.79.79,0,0,0,0,1.49l3.53,2a2.88,2.88,0,0,0,2.59,0l21.81-12.57,1.07.61Z" style="fill:#fafafa"></path><path d="M383.12,197.41v44.24l-22.19,12.73a4.77,4.77,0,0,1-4.32,0l-3.79-2.17a1.51,1.51,0,0,1-.9-1.24V206.72a1.51,1.51,0,0,0,.9,1.24l3.79,2.18a4.77,4.77,0,0,0,4.32,0Z" style="fill:#e0e0e0"></path><path d="M358.77,210.66a4.48,4.48,0,0,1-2.16-.52L352.82,208a1.51,1.51,0,0,1-.9-1.24V251a1.51,1.51,0,0,0,.9,1.24l3.79,2.17a4.37,4.37,0,0,0,2.16.52Z" style="fill:#f0f0f0"></path><polygon points="385.45 198.75 362.2 212.18 362.2 256.43 385.45 243 385.45 198.75" style="fill:#ebebeb"></polygon><path d="M362.94,212.92,385.45,200a9.42,9.42,0,0,0,5.15,2.81l-22.32,12.87S366.84,215.34,362.94,212.92Z" style="fill:#fff"></path><path d="M370.44,215.6a4.77,4.77,0,0,1-4.32,0l-3.79-2.18a1.31,1.31,0,0,1,0-2.48l22.18-12.73.94.54-21.81,12.6a.78.78,0,0,0,0,1.49l3.52,2a2.85,2.85,0,0,0,2.59,0l21.81-12.57,1.07.61Z" style="fill:#fafafa"></path><path d="M392.63,202.87v44.24l-22.18,12.73a4.79,4.79,0,0,1-4.33,0l-3.79-2.17a1.51,1.51,0,0,1-.9-1.24V212.18a1.51,1.51,0,0,0,.9,1.24l3.79,2.18a4.79,4.79,0,0,0,4.33,0Z" style="fill:#e0e0e0"></path><path d="M368.28,216.12a4.48,4.48,0,0,1-2.16-.52l-3.79-2.18a1.51,1.51,0,0,1-.9-1.24v44.25a1.51,1.51,0,0,0,.9,1.24l3.79,2.17a4.37,4.37,0,0,0,2.16.52Z" style="fill:#f0f0f0"></path><polygon points="401.33 210.51 378.08 223.94 385.3 269.52 408.56 256.09 401.33 210.51" style="fill:#ebebeb"></polygon><path d="M379,224.58l22.52-12.93a12.3,12.3,0,0,0,6,2.33l-22.32,12.86A29,29,0,0,1,379,224.58Z" style="fill:#fff"></path><path d="M387.52,226.67a6,6,0,0,1-4.69.21l-4.43-1.81c-1.39-.57-1.55-1.59-.36-2.27l22.2-12.74,1.09.45-21.81,12.6c-.72.41-.62,1,.21,1.36l4.11,1.66a3.66,3.66,0,0,0,2.82-.13l21.81-12.58,1.24.51Z" style="fill:#fafafa"></path><path d="M409.71,213.93l7.23,45.58-22.2,12.74a6,6,0,0,1-4.69.21l-4.42-1.81c-.7-.28-1.09-.68-1.15-1.09L377.25,224c.07.41.46.8,1.15,1.09l4.43,1.81a6,6,0,0,0,4.69-.21Z" style="fill:#e0e0e0"></path><path d="M385.25,227.25a5.79,5.79,0,0,1-2.42-.37l-4.43-1.81c-.69-.29-1.08-.68-1.15-1.09l7.23,45.58c.06.41.45.81,1.15,1.09l4.42,1.81a6,6,0,0,0,2.42.37Z" style="fill:#f0f0f0"></path><polygon points="417.93 218.69 394.67 232.12 394.67 275.3 417.93 261.87 417.93 218.69" style="fill:#e0e0e0"></polygon><path d="M395.42,232.86l22.51-12.92a9.39,9.39,0,0,0,5.14,2.81l-22.32,12.87S399.31,235.28,395.42,232.86Z" style="fill:#fff"></path><path d="M402.92,235.54a4.79,4.79,0,0,1-4.33,0l-3.79-2.18a1.31,1.31,0,0,1,0-2.48L417,218.15l.94.54-21.82,12.6a.78.78,0,0,0,0,1.49l3.52,2a2.87,2.87,0,0,0,2.6,0L424,222.2l1.06.61Z" style="fill:#fafafa"></path><path d="M425.1,222.81V266l-22.18,12.73a4.79,4.79,0,0,1-4.33,0l-3.79-2.17a1.51,1.51,0,0,1-.89-1.24V232.12a1.51,1.51,0,0,0,.89,1.24l3.79,2.18a4.79,4.79,0,0,0,4.33,0Z" style="fill:#e0e0e0"></path><path d="M400.76,236.06a4.49,4.49,0,0,1-2.17-.52l-3.79-2.18a1.51,1.51,0,0,1-.89-1.24V275.3a1.51,1.51,0,0,0,.89,1.24l3.79,2.17a4.38,4.38,0,0,0,2.17.52Z" style="fill:#f0f0f0"></path><polygon points="427.44 224.15 404.18 237.58 404.18 280.76 427.44 267.33 427.44 224.15" style="fill:#ebebeb"></polygon><path d="M404.93,238.32l22.51-12.92a9.42,9.42,0,0,0,5.14,2.81l-22.31,12.87S408.82,240.74,404.93,238.32Z" style="fill:#fff"></path><path d="M412.43,241a4.79,4.79,0,0,1-4.33,0l-3.79-2.18a1.31,1.31,0,0,1,0-2.48l22.19-12.73.94.54-21.82,12.6a.78.78,0,0,0,0,1.49l3.52,2a2.87,2.87,0,0,0,2.6,0l21.81-12.57,1.06.61Z" style="fill:#fafafa"></path><path d="M434.61,228.27v43.17l-22.18,12.73a4.79,4.79,0,0,1-4.33,0L404.31,282a1.51,1.51,0,0,1-.89-1.24V237.58a1.51,1.51,0,0,0,.89,1.24L408.1,241a4.79,4.79,0,0,0,4.33,0Z" style="fill:#e0e0e0"></path><path d="M410.27,241.52a4.49,4.49,0,0,1-2.17-.52l-3.79-2.18a1.51,1.51,0,0,1-.89-1.24v43.18a1.51,1.51,0,0,0,.89,1.24l3.79,2.17a4.38,4.38,0,0,0,2.17.52Z" style="fill:#f0f0f0"></path><polygon points="447.43 234.31 424.17 247.74 424.17 291.99 447.43 278.55 447.43 234.31" style="fill:#e0e0e0"></polygon><path d="M424.92,248.48l22.51-12.92a9.48,9.48,0,0,0,5.14,2.81l-22.31,12.86S428.81,250.9,424.92,248.48Z" style="fill:#fff"></path><path d="M432.42,251.16a4.85,4.85,0,0,1-4.33,0L424.3,249a1.31,1.31,0,0,1,0-2.48l22.19-12.73.94.54-21.82,12.6c-.72.41-.72,1.07,0,1.48l3.52,2a2.9,2.9,0,0,0,2.6,0l21.81-12.57,1.06.61Z" style="fill:#fafafa"></path><path d="M454.6,238.42v44.25L432.42,295.4a4.79,4.79,0,0,1-4.33,0l-3.79-2.17a1.52,1.52,0,0,1-.89-1.25V247.74a1.51,1.51,0,0,0,.89,1.24l3.79,2.18a4.85,4.85,0,0,0,4.33,0Z" style="fill:#e0e0e0"></path><path d="M430.26,251.67a4.49,4.49,0,0,1-2.17-.51L424.3,249a1.51,1.51,0,0,1-.89-1.24V292a1.52,1.52,0,0,0,.89,1.25l3.79,2.17a4.49,4.49,0,0,0,2.17.51Z" style="fill:#f0f0f0"></path><polygon points="456.94 239.76 433.68 253.2 433.68 297.45 456.94 284.01 456.94 239.76" style="fill:#ebebeb"></polygon><path d="M434.43,253.94,456.94,241a9.48,9.48,0,0,0,5.15,2.81l-22.32,12.86S438.33,256.36,434.43,253.94Z" style="fill:#fff"></path><path d="M441.93,256.62a4.83,4.83,0,0,1-4.32,0l-3.79-2.18c-1.2-.68-1.2-1.79,0-2.48L456,239.23l.94.54-21.82,12.6c-.72.41-.72,1.07,0,1.48l3.52,2a2.9,2.9,0,0,0,2.6,0l21.81-12.57,1.06.61Z" style="fill:#fafafa"></path><path d="M464.11,243.88v44.25l-22.18,12.73a4.77,4.77,0,0,1-4.32,0l-3.8-2.17a1.52,1.52,0,0,1-.89-1.25V253.2a1.51,1.51,0,0,0,.89,1.24l3.8,2.18a4.83,4.83,0,0,0,4.32,0Z" style="fill:#e0e0e0"></path><path d="M439.77,257.13a4.45,4.45,0,0,1-2.16-.51l-3.8-2.18a1.51,1.51,0,0,1-.89-1.24v44.24a1.52,1.52,0,0,0,.89,1.25l3.8,2.17a4.45,4.45,0,0,0,2.16.51Z" style="fill:#f0f0f0"></path><polygon points="325.95 181.07 356.44 163.45 480.08 234.83 480.08 238.18 449.59 255.79 325.95 184.41 325.95 181.07" style="fill:#ebebeb"></polygon><polygon points="449.59 252.45 325.95 181.07 356.44 163.45 480.08 234.83 449.59 252.45" style="fill:#f5f5f5"></polygon><polygon points="449.59 252.45 449.59 255.79 480.08 238.18 480.08 234.83 449.59 252.45" style="fill:#e0e0e0"></polygon><polygon points="350.03 120.72 326.77 134.15 334 179.73 357.25 166.3 350.03 120.72" style="fill:#ebebeb"></polygon><path d="M327.69,134.79l22.52-12.93a12.3,12.3,0,0,0,6,2.33l-22.32,12.86A29.25,29.25,0,0,1,327.69,134.79Z" style="fill:#fff"></path><path d="M336.21,136.88a6.07,6.07,0,0,1-4.69.21l-4.42-1.81c-1.4-.57-1.56-1.59-.36-2.27l22.19-12.74,1.1.45-21.82,12.6c-.72.41-.62,1,.22,1.36l4.11,1.66a3.63,3.63,0,0,0,2.81-.13l21.82-12.58,1.24.51Z" style="fill:#fafafa"></path><path d="M358.41,124.14l7.22,45.58-22.19,12.74a6,6,0,0,1-4.69.21l-4.43-1.81c-.69-.28-1.08-.68-1.15-1.09L326,134.19c.06.41.45.8,1.15,1.09l4.42,1.81a6,6,0,0,0,4.69-.21Z" style="fill:#e0e0e0"></path><path d="M333.94,137.46a6,6,0,0,1-2.42-.37l-4.42-1.81c-.7-.29-1.09-.68-1.15-1.09l7.22,45.58c.07.41.46.81,1.15,1.09l4.43,1.81a6.1,6.1,0,0,0,2.42.37Z" style="fill:#f0f0f0"></path><polygon points="378.49 133.55 355.23 146.98 355.23 191.23 378.49 177.8 378.49 133.55" style="fill:#ebebeb"></polygon><path d="M356,147.72l22.51-12.92a9.35,9.35,0,0,0,5.14,2.81l-22.32,12.87S359.87,150.14,356,147.72Z" style="fill:#fff"></path><path d="M363.48,150.4a4.79,4.79,0,0,1-4.33,0l-3.79-2.17a1.31,1.31,0,0,1,0-2.49L377.54,133l.95.54-21.82,12.6a.78.78,0,0,0,0,1.49l3.52,2a2.87,2.87,0,0,0,2.6,0l21.81-12.57,1.06.61Z" style="fill:#fafafa"></path><path d="M385.66,137.67v44.24l-22.18,12.73a4.79,4.79,0,0,1-4.33,0l-3.79-2.17a1.51,1.51,0,0,1-.89-1.24V147a1.51,1.51,0,0,0,.89,1.24l3.79,2.18a4.79,4.79,0,0,0,4.33,0Z" style="fill:#e0e0e0"></path><path d="M361.31,150.92a4.48,4.48,0,0,1-2.16-.52l-3.79-2.18a1.51,1.51,0,0,1-.89-1.24v44.25a1.51,1.51,0,0,0,.89,1.24l3.79,2.17a4.37,4.37,0,0,0,2.16.52Z" style="fill:#f0f0f0"></path><polygon points="390.34 132.5 367.08 145.93 367.08 198 390.34 184.57 390.34 132.5" style="fill:#e0e0e0"></polygon><path d="M367.83,146.67l22.51-12.92a9.39,9.39,0,0,0,5.14,2.81l-22.32,12.87S371.72,149.09,367.83,146.67Z" style="fill:#fff"></path><path d="M375.33,149.35a4.85,4.85,0,0,1-4.33,0l-3.79-2.18a1.31,1.31,0,0,1,0-2.48L389.4,132l.94.54-21.82,12.6a.78.78,0,0,0,0,1.49l3.52,2a2.9,2.9,0,0,0,2.6,0L396.45,136l1.06.61Z" style="fill:#fafafa"></path><path d="M397.51,136.62v52.07l-22.18,12.73a4.85,4.85,0,0,1-4.33,0l-3.79-2.18a1.51,1.51,0,0,1-.89-1.24V145.93a1.51,1.51,0,0,0,.89,1.24l3.79,2.18a4.79,4.79,0,0,0,4.33,0Z" style="fill:#e0e0e0"></path><path d="M373.16,149.86a4.48,4.48,0,0,1-2.16-.51l-3.79-2.18a1.51,1.51,0,0,1-.89-1.24V198a1.51,1.51,0,0,0,.89,1.24l3.79,2.18a4.48,4.48,0,0,0,2.16.51Z" style="fill:#f0f0f0"></path><polygon points="399.85 137.96 376.59 151.39 376.59 203.46 399.85 190.03 399.85 137.96" style="fill:#ebebeb"></polygon><path d="M377.34,152.13l22.51-12.92A9.42,9.42,0,0,0,405,142l-22.31,12.87S381.23,154.55,377.34,152.13Z" style="fill:#fff"></path><path d="M384.84,154.81a4.85,4.85,0,0,1-4.33,0l-3.79-2.18a1.31,1.31,0,0,1,0-2.48l22.19-12.73.94.54L378,150.56a.78.78,0,0,0,0,1.49l3.52,2a2.9,2.9,0,0,0,2.6,0L406,141.47l1.06.61Z" style="fill:#fafafa"></path><path d="M407,142.08v52.07l-22.18,12.73a4.85,4.85,0,0,1-4.33,0l-3.79-2.18a1.51,1.51,0,0,1-.89-1.24V151.39a1.51,1.51,0,0,0,.89,1.24l3.79,2.18a4.79,4.79,0,0,0,4.33,0Z" style="fill:#e0e0e0"></path><path d="M382.68,155.32a4.49,4.49,0,0,1-2.17-.51l-3.79-2.18a1.51,1.51,0,0,1-.89-1.24v52.07a1.51,1.51,0,0,0,.89,1.24l3.79,2.18a4.49,4.49,0,0,0,2.17.51Z" style="fill:#f0f0f0"></path><polygon points="428.01 157.47 402.09 172.44 410.14 223.26 436.07 208.29 428.01 157.47" style="fill:#ebebeb"></polygon><path d="M403.11,173.15l25.11-14.41a13.75,13.75,0,0,0,6.68,2.6L410,175.68S408.22,175.41,403.11,173.15Z" style="fill:#fff"></path><path d="M412.61,175.48a6.72,6.72,0,0,1-5.22.24l-4.94-2c-1.55-.63-1.73-1.77-.4-2.53L426.79,157l1.23.5-24.33,14c-.8.46-.69,1.14.25,1.52l4.58,1.85a4.05,4.05,0,0,0,3.14-.14l24.31-14,1.39.56Z" style="fill:#fafafa"></path><path d="M437.35,161.28l8.06,50.82-24.74,14.2a6.75,6.75,0,0,1-5.23.23l-4.94-2c-.77-.32-1.21-.76-1.28-1.22l-8.05-50.82c.07.46.51.9,1.28,1.22l4.94,2a6.72,6.72,0,0,0,5.22-.23Z" style="fill:#e0e0e0"></path><path d="M410.08,176.13a6.53,6.53,0,0,1-2.69-.41l-4.94-2c-.77-.32-1.21-.76-1.28-1.22l8.05,50.82c.07.46.51.9,1.28,1.22l4.94,2a6.58,6.58,0,0,0,2.7.41Z" style="fill:#f0f0f0"></path><polygon points="445.27 165.65 422.01 179.09 422.01 229.96 445.27 216.53 445.27 165.65" style="fill:#e0e0e0"></polygon><path d="M422.76,179.82l22.51-12.91a9.48,9.48,0,0,0,5.15,2.81L428.1,182.58S426.66,182.25,422.76,179.82Z" style="fill:#fff"></path><path d="M430.26,182.51a4.83,4.83,0,0,1-4.32,0l-3.79-2.18a1.3,1.3,0,0,1,0-2.48l22.18-12.73.94.53-21.82,12.61a.78.78,0,0,0,0,1.48l3.53,2a2.88,2.88,0,0,0,2.59,0l21.81-12.58,1.07.62Z" style="fill:#fafafa"></path><path d="M452.45,169.77v50.87l-22.19,12.73a4.77,4.77,0,0,1-4.32,0l-3.79-2.17a1.51,1.51,0,0,1-.9-1.24V179.09a1.51,1.51,0,0,0,.9,1.24l3.79,2.18a4.83,4.83,0,0,0,4.32,0Z" style="fill:#e0e0e0"></path><path d="M428.1,183a4.48,4.48,0,0,1-2.16-.51l-3.79-2.18a1.51,1.51,0,0,1-.9-1.24V230a1.51,1.51,0,0,0,.9,1.24l3.79,2.17a4.37,4.37,0,0,0,2.16.52Z" style="fill:#f0f0f0"></path><polygon points="454.78 171.12 431.53 184.55 431.53 235.42 454.78 221.99 454.78 171.12" style="fill:#ebebeb"></polygon><path d="M432.27,185.28l22.51-12.91a9.48,9.48,0,0,0,5.15,2.81L437.61,188S436.17,187.71,432.27,185.28Z" style="fill:#fff"></path><path d="M439.77,188a4.83,4.83,0,0,1-4.32,0l-3.79-2.18a1.31,1.31,0,0,1,0-2.48l22.18-12.73.94.53L433,183.72c-.72.41-.72,1.07,0,1.48l3.52,2a2.88,2.88,0,0,0,2.59,0l21.81-12.58,1.07.62Z" style="fill:#fafafa"></path><path d="M462,175.23V226.1l-22.18,12.73a4.79,4.79,0,0,1-4.33,0l-3.79-2.17a1.51,1.51,0,0,1-.9-1.24V184.55a1.51,1.51,0,0,0,.9,1.24l3.79,2.18a4.85,4.85,0,0,0,4.33,0Z" style="fill:#e0e0e0"></path><path d="M437.61,188.48a4.48,4.48,0,0,1-2.16-.51l-3.79-2.18a1.51,1.51,0,0,1-.9-1.24v50.87a1.51,1.51,0,0,0,.9,1.24l3.79,2.17a4.37,4.37,0,0,0,2.16.52Z" style="fill:#f0f0f0"></path><polygon points="446.69 187.31 477.18 169.71 480.08 171.38 480.08 297.15 449.59 314.76 446.69 313.09 446.69 187.31" style="fill:#ebebeb"></polygon><polygon points="480.08 297.15 449.59 314.76 449.59 188.98 480.08 171.38 480.08 297.15" style="fill:#e6e6e6"></polygon><polygon points="320.06 110.86 350.56 93.25 480.08 168.03 480.08 171.38 449.59 188.98 320.06 114.2 320.06 110.86" style="fill:#ebebeb"></polygon><polygon points="449.59 185.64 320.06 110.86 350.56 93.25 480.08 168.03 449.59 185.64" style="fill:#fafafa"></polygon><polygon points="449.59 185.64 449.59 188.98 480.08 171.38 480.08 168.03 449.59 185.64" style="fill:#e6e6e6"></polygon></g><g id="freepik--Picture--inject-6"><g id="freepik--Frame--inject-6"><polygon points="403.96 133.44 402.56 134.12 376.61 119.14 378.01 118.47 403.96 133.44" style="fill:#fafafa"></polygon><polygon points="378.01 118.47 402.69 132.71 406.28 95.8 381.6 81.56 378.01 118.47" style="fill:#fff"></polygon><path d="M374,120.37l30.72,17.73,4.23-43.53L378.21,76.83Zm6.37-39.55,25.94,15-3.73,38.32-25.94-15Z" style="fill:#f0f0f0"></path><polygon points="376.61 119.14 378.01 118.47 381.6 81.56 380.34 80.82 376.61 119.14" style="fill:#e0e0e0"></polygon><polygon points="378.21 76.83 379.63 76.18 410.34 93.91 408.92 94.57 378.21 76.83" style="fill:#fafafa"></polygon><polygon points="410.34 93.91 408.92 94.57 404.69 138.1 406.11 137.45 410.34 93.91" style="fill:#e0e0e0"></polygon></g><g id="freepik--Land--inject-6"><polygon points="379.1 117.76 401.85 130.9 402.45 124.68 398.22 106.41 394.19 112.65 395.02 117.9 388.3 98.52 379.7 111.55 379.1 117.76" style="fill:#f0f0f0"></polygon><path d="M398.57,98.72a3.21,3.21,0,0,1,1.51,2.81c-.1,1-.94,1.41-1.87.87a3.21,3.21,0,0,1-1.5-2.81C396.81,98.57,397.64,98.18,398.57,98.72Z" style="fill:#f0f0f0"></path></g></g><g id="freepik--Pot--inject-6"><path id="freepik--shadow--inject-6" d="M350.63,106.39c-4.21,2.43-4.21,6.37,0,8.8a16.84,16.84,0,0,0,15.24,0c4.21-2.43,4.21-6.37,0-8.8A16.84,16.84,0,0,0,350.63,106.39Z" style="opacity:0.05"></path><path d="M365.1,112.52c3.67-3.74,5.82-13.08,2.24-16H349.15c-3.57,3-1.42,12.3,2.24,16l.1.11.13.12a3.11,3.11,0,0,0,.33.29l.09.07.28.21a3.38,3.38,0,0,0,.47.3,12,12,0,0,0,10.92,0h0a4.2,4.2,0,0,0,.48-.3,2.43,2.43,0,0,0,.25-.2l.11-.08c.12-.09.22-.19.32-.28l.15-.15Z" style="fill:#f5f5f5"></path><path d="M350.73,95.05c-4.15,2.39-4.15,6.28,0,8.68a16.65,16.65,0,0,0,15,0c4.15-2.4,4.15-6.29,0-8.68A16.59,16.59,0,0,0,350.73,95.05Z" style="fill:#fff"></path><path d="M353.68,96.75c-2.53,1.45-2.53,3.82,0,5.28a10.15,10.15,0,0,0,9.14,0c2.53-1.46,2.53-3.83,0-5.28A10.08,10.08,0,0,0,353.68,96.75Z" style="fill:#ebebeb"></path><path d="M362.82,99.25a10.08,10.08,0,0,0-9.14,0,4.15,4.15,0,0,0-1.52,1.39,4.15,4.15,0,0,0,1.52,1.39,10.15,10.15,0,0,0,9.14,0,4.2,4.2,0,0,0,1.51-1.39A4.2,4.2,0,0,0,362.82,99.25Z" style="fill:#e0e0e0"></path><path d="M354.23,100.64a20.69,20.69,0,0,1-3.3-4.4c-1.53-2.7-1.81-6.32-1-6.76s4,3.16,4,3.16a19.86,19.86,0,0,1-.34-4.61c.14-2.41.72-4.59,1.41-5s2.23,2.59,2.89,4.79,1.06,4,1.06,4a34.3,34.3,0,0,1,1.18-5.07c.81-2.28,1.53-2.79,2.1-2.57s.93,1.29,1.1,4.33a30.87,30.87,0,0,1-.14,4.36s1.13-1.25,2.39-2.46,2-1.51,2.37-1.26.51,2.32-1.63,6.19a21.59,21.59,0,0,1-4,5.32S359.29,102.55,354.23,100.64Z" style="fill:#ebebeb"></path></g><path id="freepik--shadow--inject-6" d="M444.77,175.83c3.5-1.6,5.91-5.63,6.66-9.29.18-.86.28-1.75.51-2.6a4.89,4.89,0,0,1,1-2.05,8.2,8.2,0,0,1,1.85-1.21,19.53,19.53,0,0,0,3.85-2.92,8.09,8.09,0,0,0,1.18-1.42L439,144.3a27.36,27.36,0,0,0-4.64,2.59c-1.66,1.17-3.18,2.52-4.84,3.69a49,49,0,0,1-11,5.86c-1.7.63-8.73,2.11-6.28,4.7A10.49,10.49,0,0,0,424,163.35c1.59-.75,3-1.87,4.59-2.63A6.42,6.42,0,0,1,431,160a3.75,3.75,0,0,1,2.37.57,2.14,2.14,0,0,1,.53,1.27,50.35,50.35,0,0,1,.35,5.77,15.08,15.08,0,0,0,1.11,5.64,7.49,7.49,0,0,0,.86,1.09,4.71,4.71,0,0,0,.91.93,6.14,6.14,0,0,0,2.44,1.06A8.47,8.47,0,0,0,444.77,175.83Z" style="fill:#ebebeb"></path><g id="freepik--Bunny--inject-6"><path d="M439.84,106a3,3,0,0,1-1.62-1.65c-1.81-4.89-7.63-8.59-10.37-11.79-2-2.29-2.09-4.53.88-5.79,5.63-2.39,18.28,10.53,17.36,20.14A10.19,10.19,0,0,1,439.84,106Z" style="fill:#f0f0f0"></path><path d="M441,106.46a11,11,0,0,0,3,.59c-.08-4.85-5.21-13.46-9.65-15.59-2.59-1.23-4.5-.23-3.11,1.65,1.26,1.71,2,1.64,4.7,4.67A31.6,31.6,0,0,1,441,106.46Z" style="fill:#e6e6e6"></path><path d="M433.57,153.66c-.94,2-8.19,6.81-10.11,7.77a12.09,12.09,0,0,1-4.44,1.28c-3.46,0-5.43-1.88-7-6-1-2.72-1.86-9.51,2.17-11.05,4.53-1.72,7.81,2.79,7.81,2.79s4.78-1.92,8.05-1.39S434.49,151.65,433.57,153.66Z" style="fill:#f5f5f5"></path><path d="M419.58,151.41a7.85,7.85,0,0,0-4.38-4.27,3.13,3.13,0,0,0-3.78,2.1,14.4,14.4,0,0,0,.59,7.48c1.47,3.83,3.28,5.69,6.31,6C422.28,162.22,421.42,155.14,419.58,151.41Z" style="fill:#ebebeb"></path><path d="M418.84,158.42c0,2-1.19,2.86-2.66,2a6.38,6.38,0,0,1-2.66-5.08c0-2,1.19-2.86,2.66-2A6.38,6.38,0,0,1,418.84,158.42Z" style="fill:#e0e0e0"></path><path d="M415.93,151.11c0,.74-.45,1.08-1,.76a2.4,2.4,0,0,1-1-1.92c0-.74.45-1.08,1-.76A2.4,2.4,0,0,1,415.93,151.11Z" style="fill:#e0e0e0"></path><path d="M419.09,153.27c0,.75-.45,1.09-1,.77a2.43,2.43,0,0,1-1-1.93c0-.74.45-1.08,1-.76A2.42,2.42,0,0,1,419.09,153.27Z" style="fill:#e0e0e0"></path><path d="M413.58,152.49c0,.74-.45,1.08-1,.76a2.4,2.4,0,0,1-1-1.93c0-.74.45-1.08,1-.76A2.44,2.44,0,0,1,413.58,152.49Z" style="fill:#e0e0e0"></path><path d="M424.21,152.69a8.61,8.61,0,0,0-.87-4.71c-.82.27-1.35.48-1.35.48A16.76,16.76,0,0,1,424.21,152.69Z" style="fill:#f0f0f0"></path><path d="M437.31,128.49c-3.66-1-12.48,7-13.31,8.47s.19,6.22,4.06,6.2c2.31,0,10.2-8,11.37-10S437.31,128.49,437.31,128.49Z" style="fill:#f0f0f0"></path><path d="M459.32,148.29c-1.12,7.69-6.39,10.53-11.22,11.42a22.69,22.69,0,0,1-6.39.25c-4.57-.45-12.8-2.18-14.83-10.59-.11-.51-.21-1-.29-1.59-1.31-9.79,7.48-12.91,7.48-12.91.75-6.92,6.45-11,10.27-10.57C452.9,125.21,461,136.74,459.32,148.29Z" style="fill:#f5f5f5"></path><path d="M444.34,124.3c-3.61-.38-8.89,3.22-10.1,9.45a12.36,12.36,0,0,0,4.82-1.44,2.66,2.66,0,0,0,2.36,1.55,3,3,0,0,0,2.52-.63s2.64,3.4,4.45,4.33a5.71,5.71,0,0,0,3.77.36l1.5,7a9.55,9.55,0,0,1-6.74,11.23l-.49.12c-8.08,1.91-16.28.26-19.1-5.44h0c2.59,7.12,10.09,8.67,14.38,9.09a22.69,22.69,0,0,0,6.39-.25c4.83-.89,10.1-3.73,11.22-11.42C461,136.74,452.9,125.21,444.34,124.3Z" style="fill:#f0f0f0"></path><path d="M454.59,129.69c-2.19.91-1.81,4.16-.58,9.19,1.43,5.85,5.91,18.69,5.91,18.69s1.58,2.64,6.26-.4,3.05-5.84,3.05-5.84S459.12,127.83,454.59,129.69Z" style="fill:#f5f5f5"></path><path d="M434,118.12a12.89,12.89,0,0,1-.15-4.84,13.21,13.21,0,0,1,1.25-3.81,14.54,14.54,0,0,1,15.72-7.55,15.06,15.06,0,0,1,12.28,13c.8,8-4.74,13.42-13.19,14.19a16,16,0,0,1-9.22-1.94A13.66,13.66,0,0,1,434,118.12Z" style="fill:#f5f5f5"></path><path d="M448.58,129.12q.65,0,1.29-.06c8.45-.77,14-6.15,13.19-14.19a14,14,0,0,0-2.45-6.57c.28.42-.67,1.91-.67,1.91a10.73,10.73,0,0,1,1.13,7.71C459.81,122.27,456.39,126.87,448.58,129.12Z" style="fill:#f0f0f0"></path><path d="M440.53,130.79s1.7-1.69,1.12-2.84c-2.7-2.38-7.48-4.75-8.66-4.39-2.11.65-2.79,7.83-.68,8.59S440.53,130.79,440.53,130.79Z" style="fill:#fafafa"></path><path d="M440.13,129c-.88-.48-4.49-2.77-4.8-2-.38,1,4,2.29,4,2.29s-4.42-.11-4.23,1c.13.73,4.7-.42,4.7-.42Z" style="fill:#ebebeb"></path><path d="M440.52,128.34l-.08.07a2.73,2.73,0,0,0-.68,1.38,2.48,2.48,0,0,0,0,1.21c.48,1.65,3,1.93,4.25,1.14a2.31,2.31,0,0,0,1-2.36A2.2,2.2,0,0,0,443,128c-.44,0-.87,0-1.3-.06A1.48,1.48,0,0,0,440.52,128.34Z" style="fill:#f5f5f5"></path><path d="M443.08,117.39c-4-1.34-7-.9-8.16,2s1.38,7.24,6.54,8a10.31,10.31,0,0,0,3.54,0,4.21,4.21,0,0,0,3.29-5.5A7.84,7.84,0,0,0,443.08,117.39Z" style="fill:#e6e6e6"></path><path d="M443,119.32c-.32-1.14-3.84-2.45-5.28-1.07-1.28,1.21.25,3.27,1.37,3.68l.06,0-.24,1.67a.38.38,0,0,0,.31.43h.06a.38.38,0,0,0,.37-.33l.24-1.66C441.61,122.11,443.39,120.6,443,119.32Z" style="fill:#e0e0e0"></path><path d="M443,119.32c-.32-1.14-3.84-2.45-5.28-1.07-1.28,1.21.25,3.27,1.37,3.68l.06,0-.24,1.67a.38.38,0,0,0,.31.43h.06a.38.38,0,0,0,.37-.33l.24-1.66C441.61,122.11,443.39,120.6,443,119.32Z" style="opacity:0.05"></path><path d="M444,129.48s7.82-3.93,10.63-1.7c1.5,1.2-.17,7.74-2.05,8.3-2.73.82-6.83-2-8.81-4.39A2.7,2.7,0,0,1,444,129.48Z" style="fill:#fafafa"></path><path d="M456.39,107.82a3,3,0,0,1,0-2.31c2.11-4.77.52-11.48.79-15.68.19-3,1.66-4.71,4.67-3.54,5.71,2.22,5.76,20.3-1.6,26.55A10.24,10.24,0,0,1,456.39,107.82Z" style="fill:#f0f0f0"></path><path d="M456.9,109a10.74,10.74,0,0,0,1.72,2.49c3.32-3.53,5.66-13.27,3.95-17.89-1-2.7-3.05-3.31-3.37-1-.29,2.11.31,2.6.1,6.63A31.51,31.51,0,0,1,456.9,109Z" style="fill:#e6e6e6"></path><path d="M439.92,137.34c-6.13-1.66-11.69,2.25-12.14,8s7.69,10.54,14.85,7.85S447.19,139.3,439.92,137.34Z" style="fill:#e6e6e6"></path><path d="M450.41,161.19c-.44,2.68-2.66,10.06-5.79,12.74a4.59,4.59,0,0,1-2.14,1,7.2,7.2,0,0,1-6.79-2.7,11.65,11.65,0,0,1-1.78-3.14c-.58-1.41-2.44-9.4.42-11.48a5.45,5.45,0,0,1,6.82-.1,25.71,25.71,0,0,1,3.19-2.63c2.11-1.28,4.17-.18,5.35,1.5A6.6,6.6,0,0,1,450.41,161.19Z" style="fill:#f5f5f5"></path><path d="M435.56,158.57a2.77,2.77,0,0,0-2.73,2.49,21.84,21.84,0,0,0,1.08,8,11.65,11.65,0,0,0,1.78,3.14,8.67,8.67,0,0,0,3,2.26c1.14.4,3.55.29,4.37-1.75.89-2.23.05-8.29-2.48-11.66A6.14,6.14,0,0,0,435.56,158.57Z" style="fill:#ebebeb"></path><ellipse cx="438.06" cy="168.41" rx="2.49" ry="4.4" transform="translate(-30.96 184.96) rotate(-23.05)" style="fill:#e0e0e0"></ellipse><path d="M437.79,162.19c0,.8-.49,1.17-1.09.82a2.6,2.6,0,0,1-1.08-2.07c0-.8.49-1.17,1.08-.82A2.6,2.6,0,0,1,437.79,162.19Z" style="fill:#e0e0e0"></path><path d="M441.2,164.52c0,.8-.49,1.17-1.09.82a2.58,2.58,0,0,1-1.08-2.07c0-.8.48-1.17,1.08-.82A2.58,2.58,0,0,1,441.2,164.52Z" style="fill:#e0e0e0"></path><path d="M435.26,163.68c0,.79-.48,1.16-1.08.82a2.62,2.62,0,0,1-1.09-2.08c0-.8.49-1.16,1.09-.82A2.61,2.61,0,0,1,435.26,163.68Z" style="fill:#e0e0e0"></path><path d="M441.74,157l-.59.54a9.55,9.55,0,0,1,2.25,3.44A5.49,5.49,0,0,0,441.74,157Z" style="fill:#f0f0f0"></path><path d="M443.78,130.09a2.93,2.93,0,0,0-.1.53c.33.4,4.54,2.5,4.71,1.77s-3.83-2-3.83-2,4.81-.36,4.62-1.23C449.06,128.56,444.35,129.69,443.78,130.09Z" style="fill:#ebebeb"></path><path d="M438.44,113.49a1.43,1.43,0,1,1-1.43-1.43A1.43,1.43,0,0,1,438.44,113.49Z" style="fill:#e0e0e0"></path><path d="M450.75,115.84a1.43,1.43,0,1,1-1.43-1.42A1.43,1.43,0,0,1,450.75,115.84Z" style="fill:#e0e0e0"></path><path d="M438.44,113.49a1.43,1.43,0,1,1-1.43-1.43A1.43,1.43,0,0,1,438.44,113.49Z" style="opacity:0.05"></path><path d="M450.75,115.84a1.43,1.43,0,1,1-1.43-1.42A1.43,1.43,0,0,1,450.75,115.84Z" style="opacity:0.05"></path></g></g></g><g id="freepik--Table--inject-6"><g id="freepik--table--inject-6"><path d="M192.55,244.18a9,9,0,0,0-4.66,0c-.64.21-1,.48-1,.74L184.51,287h0c0,.18.23.37.68.51a6.33,6.33,0,0,0,3.29,0c.44-.14.67-.33.68-.51h0l4.35-42.1C193.51,244.65,193.19,244.39,192.55,244.18Zm119.5.74c0-.26-.32-.53-1-.74a8.94,8.94,0,0,0-4.65,0c-.65.21-1,.47-1,.74l4.36,42.1h0c0,.18.23.37.68.51a6.33,6.33,0,0,0,3.29,0c.44-.14.67-.33.68-.51h0ZM252,251.76a9.84,9.84,0,0,0-5.11,0c-.7.23-1.06.52-1.06.82l1.06,53.79h0c0,.2.25.4.74.56a6.91,6.91,0,0,0,3.61,0c.49-.16.74-.36.75-.56h0l1.06-53.79C253.06,252.28,252.71,252,252,251.76Z" style="fill:#37474f"></path><g id="freepik--table--inject-6"><g id="freepik--table--inject-6"><path d="M194.72,197.22c30.26-17.47,79.33-17.47,109.59,0C319.45,206,327,217.41,327,228.86v2.22c0,11.45-7.54,22.9-22.68,31.64-30.26,17.47-79.33,17.48-109.59,0C179.58,254,172,242.53,172,231.08c0-2.35,0,.13,0-2.22C172,217.41,179.58,206,194.72,197.22Z" style="fill:#455a64"></path><path d="M194.65,191.41c30.26-17.47,79.33-17.47,109.59,0,15.14,8.74,22.69,20.19,22.69,31.64,0,2.35,0,1.47,0,3.82,0,11.45-7.55,22.9-22.69,31.64C274,276,224.91,276,194.65,258.51,179.52,249.77,172,236.73,172,225.28v-2.23C172,211.6,179.52,200.15,194.65,191.41Z" style="fill:#92E3A9"></path><g style="opacity:0.4"><path d="M194.65,191.41c30.26-17.47,79.33-17.47,109.59,0,15.14,8.74,22.69,20.19,22.69,31.64,0,2.35,0,1.47,0,3.82,0,11.45-7.55,22.9-22.69,31.64C274,276,224.91,276,194.65,258.51,179.52,249.77,172,236.73,172,225.28v-2.23C172,211.6,179.52,200.15,194.65,191.41Z" style="fill:#fff"></path></g><g style="opacity:0.1"><path d="M194.65,191.41c30.26-17.47,79.33-17.47,109.59,0,15.14,8.74,22.69,20.19,22.69,31.64,0,2.35,0,1.47,0,3.82,0,11.45-7.55,22.9-22.69,31.64C274,276,224.91,276,194.65,258.51,179.52,249.77,172,236.73,172,225.28v-2.23C172,211.6,179.52,200.15,194.65,191.41Z"></path></g><path d="M304.24,254.69c30.27-17.47,30.27-45.8,0-63.28s-79.33-17.47-109.59,0-30.27,45.81,0,63.28S274,272.16,304.24,254.69Z" style="fill:#92E3A9"></path><g style="opacity:0.85"><ellipse cx="249.51" cy="223.05" rx="77.5" ry="44.74" style="fill:#fff"></ellipse></g></g></g><g id="freepik--Mobile--inject-6"><path id="freepik--shadow--inject-6" d="M288,201.68l-48.55,28a2.1,2.1,0,0,1-1.89,0L210.66,214.2c-.52-.3-.52-.78,0-1.09l48.55-28a2.1,2.1,0,0,1,1.89,0L288,200.59A.58.58,0,0,1,288,201.68Z" style="fill:#92E3A9;opacity:0.35000000000000003"></path><g id="freepik--mobile--inject-6"><path d="M215.42,214.65l22,12.72a2.33,2.33,0,0,0,2.26,0l43.49-25.11a2.49,2.49,0,0,0,1.24-1.75v-1.79a2.58,2.58,0,0,0-1.24-2L261.25,184.1a2.77,2.77,0,0,0-2.48,0l-43.35,25a2.59,2.59,0,0,0-1.25,2v1.83A2.46,2.46,0,0,0,215.42,214.65Z" style="fill:#37474f"></path><path d="M237.44,227.37l-22-12.72a2.46,2.46,0,0,1-1.25-1.71v-1.83a2.59,2.59,0,0,1,1.25-2l23.2-13.47v32A2.37,2.37,0,0,1,237.44,227.37Z" style="fill:#263238;opacity:0.4"></path><path d="M238,223.58a2.42,2.42,0,0,0,2.19,0l43.06-24.85a1,1,0,0,0,0-1.95L261.25,184.1a2.77,2.77,0,0,0-2.48,0l-43.35,25a.76.76,0,0,0,0,1.43Z" style="fill:#455a64"></path><path d="M240.05,221.08a2.56,2.56,0,0,0,2.35,0l37-21.39a.72.72,0,0,0,0-1.36L259.2,186.64a2.59,2.59,0,0,0-2.36,0l-37,21.39a.72.72,0,0,0,0,1.36Z" style="fill:#37474f"></path><path d="M258.09,186.36a2.34,2.34,0,0,1,1.11.28l20.25,11.69a.72.72,0,0,1,0,1.36l-4,2.32-17.35-11.08Z" style="fill:#37474f"></path><path d="M256.83,187.52a2.65,2.65,0,0,1,2.36,0l20.25,11.69a1.35,1.35,0,0,1,.31.25,1.48,1.48,0,0,1-.3.23l-37,21.39a2.56,2.56,0,0,1-2.35,0l-20.26-11.69a1.26,1.26,0,0,1-.3-.24,1,1,0,0,1,.29-.24Z" style="fill:#263238"></path><path d="M272.05,192.86l-3.59-2.07c-.21-.12-.23-.32,0-.44a.86.86,0,0,1,.75,0l3.59,2.07c.21.12.22.32,0,.44A.86.86,0,0,1,272.05,192.86Z" style="fill:#263238"></path><path d="M265.89,189.31c-.21-.12-.21-.31,0-.42a.76.76,0,0,1,.72,0c.2.11.2.3,0,.42A.83.83,0,0,1,265.89,189.31Z" style="fill:#263238"></path><path d="M264.43,188.47c-.2-.12-.2-.31,0-.42a.79.79,0,0,1,.73,0c.2.11.2.3,0,.42A.85.85,0,0,1,264.43,188.47Z" style="fill:#263238"></path><path d="M276.07,195.19c-.2-.12-.2-.31,0-.42a.79.79,0,0,1,.73,0c.2.11.2.3,0,.42A.85.85,0,0,1,276.07,195.19Z" style="fill:#263238"></path><path d="M274.62,194.35c-.2-.12-.2-.31,0-.42a.76.76,0,0,1,.72,0c.2.11.2.3,0,.42A.83.83,0,0,1,274.62,194.35Z" style="fill:#263238"></path><path d="M268.79,208.36a1,1,0,0,0-.45.75.28.28,0,0,0,.12.26l.32.19a.32.32,0,0,0,.32,0l5.88-3.39a1,1,0,0,0,.45-.75.29.29,0,0,0-.11-.26l-.33-.19a.32.32,0,0,0-.32,0Z" style="fill:#455a64"></path><path d="M269.1,208.54l5.88-3.39c.25-.14.45,0,.45.23a1,1,0,0,1-.45.75l-5.88,3.39c-.24.15-.45,0-.45-.23A1,1,0,0,1,269.1,208.54Z" style="fill:#37474f"></path><path d="M276.65,203.82a1,1,0,0,0-.45.75.27.27,0,0,0,.13.26l.31.19a.37.37,0,0,0,.33,0l2.77-1.6a1,1,0,0,0,.45-.75.3.3,0,0,0-.11-.26l-.33-.19a.35.35,0,0,0-.32,0Z" style="fill:#455a64"></path><path d="M277,204l2.77-1.6c.25-.14.45,0,.45.23a1,1,0,0,1-.45.75L277,205c-.25.14-.45,0-.45-.23A1,1,0,0,1,277,204Z" style="fill:#37474f"></path></g></g></g></g><g id="freepik--Blocks--inject-6"><g id="freepik--blocks--inject-6"><g id="freepik--Block--inject-6"><path d="M317.51,441.09,329.43,448a4.79,4.79,0,0,0,4.33,0l11.92-6.88a4.8,4.8,0,0,0,2.16-3.75V423.58a4.78,4.78,0,0,0-2.16-3.75l-11.92-6.89a4.79,4.79,0,0,0-4.33,0l-11.92,6.89a4.75,4.75,0,0,0-2.16,3.75v13.76A4.77,4.77,0,0,0,317.51,441.09Z" style="fill:#92E3A9"></path><path d="M317.51,441.09,329.43,448a4.79,4.79,0,0,0,4.33,0l11.92-6.88a4.8,4.8,0,0,0,2.16-3.75V423.58a4.78,4.78,0,0,0-2.16-3.75l-11.92-6.89a4.79,4.79,0,0,0-4.33,0l-11.92,6.89a4.75,4.75,0,0,0-2.16,3.75v13.76A4.77,4.77,0,0,0,317.51,441.09Z" style="opacity:0.4"></path><path d="M345.68,422.33l-11.92,6.88a4.78,4.78,0,0,0-2.17,3.75v13.76c0,1.38,1,1.94,2.17,1.25l11.92-6.88a4.8,4.8,0,0,0,2.16-3.75V423.58C347.84,422.19,346.87,421.64,345.68,422.33Z" style="fill:#92E3A9"></path><path d="M333.09,433a3.31,3.31,0,0,1,1.42-2.45l11.83-6.84v13.67a3.35,3.35,0,0,1-1.41,2.45l-11.84,6.83Z" style="fill:#fff;opacity:0.5"></path><path d="M317.51,422.33l11.92,6.88a4.79,4.79,0,0,0,4.33,0l11.92-6.88a1.32,1.32,0,0,0,0-2.5l-11.92-6.89a4.79,4.79,0,0,0-4.33,0l-11.92,6.89A1.32,1.32,0,0,0,317.51,422.33Z" style="fill:#92E3A9"></path><path d="M317.51,422.33l11.92,6.88a4.79,4.79,0,0,0,4.33,0l11.92-6.88a1.32,1.32,0,0,0,0-2.5l-11.92-6.89a4.79,4.79,0,0,0-4.33,0l-11.92,6.89A1.32,1.32,0,0,0,317.51,422.33Z" style="fill:#fff;opacity:0.5"></path><path d="M331.59,428.22a2.94,2.94,0,0,1-1.41-.31l-11.83-6.83,11.83-6.84a3.06,3.06,0,0,1,1.41-.31,3.11,3.11,0,0,1,1.42.31l11.83,6.84L333,427.91A3,3,0,0,1,331.59,428.22Z" style="fill:#fff;opacity:0.5"></path><path d="M317.51,422.33l11.92,6.88a4.8,4.8,0,0,1,2.16,3.75v13.76c0,1.38-1,1.94-2.16,1.25l-11.92-6.88a4.77,4.77,0,0,1-2.16-3.75V423.58C315.35,422.19,316.31,421.63,317.51,422.33Z" style="fill:#92E3A9"></path><path d="M317.51,422.33l11.92,6.88a4.8,4.8,0,0,1,2.16,3.75v13.76c0,1.38-1,1.94-2.16,1.25l-11.92-6.88a4.78,4.78,0,0,1-2.17-3.75V423.58C315.34,422.19,316.31,421.64,317.51,422.33Z" style="opacity:0.15"></path><path d="M318.26,439.79a3.32,3.32,0,0,1-1.41-2.45V423.67l11.83,6.84a3.3,3.3,0,0,1,1.41,2.45v13.66Z" style="fill:#92E3A9"></path><path d="M330.68,424.14c-.13-.08-.2-.13-.19-.16a4.1,4.1,0,0,1,.42-.29l.12-.06.12-.07c-.66-.33-1.22-.62-1.68-.89s-1.2-.74-2.36-1.52l-.12.1a1,1,0,0,1-.39.12,2.21,2.21,0,0,1-1.24-.37q-.36-.21-.39-.36a6.23,6.23,0,0,1,2-1.5c.68-.39,1.44-.78,2.28-1.18a12.14,12.14,0,0,1,1.81-.75,4.93,4.93,0,0,1,1,.46,4.8,4.8,0,0,1,1,.84,1.84,1.84,0,0,1-.41.31,3.81,3.81,0,0,1-1.45.44l-.31-.22a2.86,2.86,0,0,0-.93.38c-.42.25-.62.4-.58.45a11.82,11.82,0,0,0,1.31,1.08q.48-.27.45-.3a2.43,2.43,0,0,1-.34-.19.59.59,0,0,1-.23-.26s.06-.07.16-.12a5.2,5.2,0,0,1,.74-.33,4,4,0,0,1,.7-.23,1.82,1.82,0,0,1,.7.3q1.16.68,1.14,1c0,.05-.2.18-.57.4a2.1,2.1,0,0,1-.64.3,1.54,1.54,0,0,1-.63-.22l-.49.31,1.56.84a1.15,1.15,0,0,1,.26-.19,1.18,1.18,0,0,1,.35-.15,2.4,2.4,0,0,1,.79.33c.3.18.45.27.43.28s-.11.31-.39.55a7.05,7.05,0,0,1-1,.72,4.51,4.51,0,0,1-1.78.67A3.44,3.44,0,0,1,330.68,424.14Z" style="fill:#455a64"></path><path d="M337,436.61a11.36,11.36,0,0,1,.69-4.05,4.53,4.53,0,0,1,1.76-2.43,1.88,1.88,0,0,1,1.3-.24s0-.1.06-.27a.69.69,0,0,1,.13-.35,4.94,4.94,0,0,1,.66-.49c.25-.15.44-.18.57-.1a5,5,0,0,1,.06.83,9.53,9.53,0,0,1-.19,1.94c0,.11-.23.27-.6.49s-.55.27-.65.24-.09-.11-.09-.22a2.4,2.4,0,0,1,.05-.33,1.73,1.73,0,0,0-.69.21,2.5,2.5,0,0,0-1,1.44,7.26,7.26,0,0,0-.35,2.3,2.54,2.54,0,0,0,.33,1.58.59.59,0,0,0,.82.09,2,2,0,0,0,.55-.51,2.42,2.42,0,0,0,.14-.67.92.92,0,0,0-.14-.5q-.8.46-.81.3c-.05,0-.08-.2-.08-.5a2,2,0,0,1,.11-.85,2.1,2.1,0,0,1,1-1,3.78,3.78,0,0,1,.92-.4c.29-.09.46-.07.5.05a6.87,6.87,0,0,1,.15,1.11c0,.58.07,1.2.07,1.88s0,1.54-.08,2.14a1.46,1.46,0,0,1-.57.56,3.14,3.14,0,0,1-.67.28c-.13,0-.19-.15-.19-.44a3.8,3.8,0,0,1-1.21,1.33,1.49,1.49,0,0,1-.91.23,1.35,1.35,0,0,1-.82-.4,2.69,2.69,0,0,1-.59-1.19A7.87,7.87,0,0,1,337,436.61Z" style="fill:#37474f"></path><path d="M320.41,436.88a2.52,2.52,0,0,1,0-.72,1.54,1.54,0,0,1,.53.14c-.08-1-.11-1.92-.11-2.86s0-1.76.11-2.6l-.21-.16a1.91,1.91,0,0,1-.32-.31,3.4,3.4,0,0,1,0-.78,3.07,3.07,0,0,1,0-.79c.14-.16.63,0,1.46.47a4.05,4.05,0,0,1,1,.71,7.51,7.51,0,0,1,.12.77,8.32,8.32,0,0,1,.08.89.5.5,0,0,1,0,.23.6.6,0,0,1-.41-.09l-.15-.1c.07.68.1,1.31.11,1.91.09-.07.38,0,.84.3a2,2,0,0,1,.83.69c0-.69.05-1.27.1-1.76a1.06,1.06,0,0,1-.2-.16,1.6,1.6,0,0,1-.32-.3,2.87,2.87,0,0,1,0-.78,2.57,2.57,0,0,1,0-.79c.14-.17.62,0,1.44.46a4,4,0,0,1,1,.71,4.9,4.9,0,0,1,.13.77,8,8,0,0,1,.07.9.53.53,0,0,1,0,.22.59.59,0,0,1-.43-.09l-.15-.1c.07.78.11,1.61.11,2.48s0,1.75-.11,3.09a.48.48,0,0,1,.15.07,1.34,1.34,0,0,1,.43.4.76.76,0,0,1,0,.25,6,6,0,0,1-.07.81,2.65,2.65,0,0,1-.13.62,2.78,2.78,0,0,1-1-.45,3.53,3.53,0,0,1-1.46-1.22,3.26,3.26,0,0,1,0-.84,2.06,2.06,0,0,1,0-.72.57.57,0,0,1,.32.06l.2.07c-.06-.73-.09-1.4-.1-2a2.08,2.08,0,0,1-.8-.35,3.78,3.78,0,0,1-.9-.63c0,.28,0,.93-.08,2l.15.07a1.37,1.37,0,0,1,.41.39.73.73,0,0,1,0,.25,6,6,0,0,1-.08.81,3.75,3.75,0,0,1-.12.63,2.69,2.69,0,0,1-1-.45,3.49,3.49,0,0,1-1.48-1.22A4.05,4.05,0,0,1,320.41,436.88Z" style="fill:#263238"></path></g><g id="freepik--block--inject-6"><path d="M289.15,449.31l11.92,6.88a4.79,4.79,0,0,0,4.33,0l11.92-6.88a4.8,4.8,0,0,0,2.16-3.75V431.8a4.8,4.8,0,0,0-2.16-3.75l-11.92-6.88a4.79,4.79,0,0,0-4.33,0l-11.92,6.88A4.8,4.8,0,0,0,287,431.8v13.76A4.8,4.8,0,0,0,289.15,449.31Z" style="fill:#92E3A9"></path><path d="M289.15,449.31l11.92,6.88a4.79,4.79,0,0,0,4.33,0l11.92-6.88a4.8,4.8,0,0,0,2.16-3.75V431.8a4.8,4.8,0,0,0-2.16-3.75l-11.92-6.88a4.79,4.79,0,0,0-4.33,0l-11.92,6.88A4.8,4.8,0,0,0,287,431.8v13.76A4.8,4.8,0,0,0,289.15,449.31Z" style="opacity:0.4"></path><path d="M317.32,430.55l-11.92,6.88a4.78,4.78,0,0,0-2.17,3.75v13.76c0,1.39,1,1.94,2.17,1.25l11.92-6.88a4.8,4.8,0,0,0,2.16-3.75V431.8C319.48,430.42,318.51,429.86,317.32,430.55Z" style="fill:#92E3A9"></path><path d="M317.32,430.55l-11.92,6.88a4.78,4.78,0,0,0-2.17,3.75v13.76c0,1.39,1,1.94,2.17,1.25l11.92-6.88a4.8,4.8,0,0,0,2.16-3.75V431.8C319.48,430.42,318.51,429.86,317.32,430.55Z" style="opacity:0.15"></path><path d="M304.73,441.18a3.33,3.33,0,0,1,1.42-2.45L318,431.9v13.66a3.32,3.32,0,0,1-1.41,2.45l-11.84,6.84Z" style="fill:#fff;opacity:0.5"></path><path d="M289.15,430.55l11.92,6.88a4.79,4.79,0,0,0,4.33,0l11.92-6.88a1.32,1.32,0,0,0,0-2.5l-11.92-6.88a4.79,4.79,0,0,0-4.33,0l-11.92,6.88A1.32,1.32,0,0,0,289.15,430.55Z" style="fill:#92E3A9"></path><path d="M303.23,436.45a2.94,2.94,0,0,1-1.41-.32L290,429.3l11.83-6.83a3.29,3.29,0,0,1,2.83,0l11.83,6.83-11.83,6.83A3,3,0,0,1,303.23,436.45Z" style="fill:#fff;opacity:0.6000000000000001"></path><path d="M289.15,430.55l11.92,6.88a4.77,4.77,0,0,1,2.16,3.75v13.76c0,1.39-1,1.94-2.16,1.25l-11.92-6.88a4.8,4.8,0,0,1-2.16-3.75V431.8C287,430.42,288,429.86,289.15,430.55Z" style="fill:#92E3A9"></path><path d="M289.15,430.55l11.92,6.88a4.77,4.77,0,0,1,2.16,3.75v13.76c0,1.39-1,1.94-2.16,1.25l-11.92-6.88a4.8,4.8,0,0,1-2.16-3.75V431.8C287,430.42,288,429.86,289.15,430.55Z" style="opacity:0.30000000000000004"></path><path d="M289.9,448a3.32,3.32,0,0,1-1.41-2.45V431.9l11.83,6.83a3.32,3.32,0,0,1,1.41,2.45v13.67Z" style="fill:#92E3A9"></path><path d="M301.67,433.36c-.49-.28-.69-.47-.6-.54s0-.11.24-.23a.7.7,0,0,1,.4-.14,29.24,29.24,0,0,1-2.12-2.39,12.3,12.3,0,0,1-1.64-2.15c.36-.25.82-.53,1.37-.85q.51-.3,1.2-.63a34.44,34.44,0,0,1,3.71.95c2.4.66,3.78,1.07,4.14,1.22,0-.06.08-.14.24-.23s.35-.17.41-.14.44.06.93.35c.32.18.46.3.41.36a5.59,5.59,0,0,1-1.5,1c-.42.25-.84.47-1.25.68a2.39,2.39,0,0,1-.66.29,1.84,1.84,0,0,1-1.06-.34,1.15,1.15,0,0,1-.26-.19s-.05-.06,0-.11a.24.24,0,0,1,.14-.14c.2-.12.31-.17.34-.15s0-.05-.08-.1-.44-.21-.93-.41a6.31,6.31,0,0,1-.85.55,9.65,9.65,0,0,1-1,.51,6.61,6.61,0,0,0,.72.54c.08,0,.14.06.16,0s.06-.08.26-.2a.73.73,0,0,1,.25-.08.34.34,0,0,1,.19,0l.32.15c.46.27.66.47.61.61s-.15.15-.51.39-.76.48-1.18.72a7.3,7.3,0,0,1-1.74.86C302.2,433.62,302,433.54,301.67,433.36Zm.7-3.62a5.63,5.63,0,0,1,.57-.38c.26-.14.51-.27.75-.37-1.05-.36-2-.65-2.81-.86A14.49,14.49,0,0,0,302.37,429.74Z" style="fill:#455a64"></path><path d="M308.84,448.65a5.09,5.09,0,0,1,.06-.77.78.78,0,0,1,.38-.43l.14-.06c0-.83-.06-1.64-.06-2.41,0-1.39,0-2.57.1-3.54a3.43,3.43,0,0,1-.5.23,3.06,3.06,0,0,1,0-.8,6.29,6.29,0,0,1,0-.86,1.07,1.07,0,0,1,.3-.4,3.43,3.43,0,0,1,.65-.48,6.82,6.82,0,0,1,.76-.41,3.6,3.6,0,0,1,0,.56,6.24,6.24,0,0,1,.66-.82,3.45,3.45,0,0,1,.73-.6.81.81,0,0,1,1.17.2,2.71,2.71,0,0,1,.47,1.7,5.61,5.61,0,0,1-.66,2.57c.61.18.91.77.91,1.77a5.08,5.08,0,0,1-.47,2.09,3.06,3.06,0,0,1-1.23,1.49,1,1,0,0,1-1.06.11,1,1,0,0,1-.07.43,12.29,12.29,0,0,1-1.22.81,6.49,6.49,0,0,1-1,.45A6.12,6.12,0,0,1,308.84,448.65Zm2.15-3.57a1.1,1.1,0,0,0,.27.81.44.44,0,0,0,.58.09.83.83,0,0,0,.36-.45,1.67,1.67,0,0,0,.13-.67,1.32,1.32,0,0,0-.24-.83.4.4,0,0,0-.57-.14,1.06,1.06,0,0,0-.38.46A1.73,1.73,0,0,0,311,445.08Zm0-4a1,1,0,0,0,.25.75.39.39,0,0,0,.54.08.94.94,0,0,0,.37-.43,1.49,1.49,0,0,0,.15-.66,1.18,1.18,0,0,0-.23-.75.39.39,0,0,0-.55-.1,1,1,0,0,0-.38.45A1.52,1.52,0,0,0,311,441.08Z" style="fill:#37474f"></path><path d="M292.41,441.73a5.85,5.85,0,0,1,.69-3.17,1.24,1.24,0,0,1,1.87-.37,3,3,0,0,1,1.26,1.33c0-.27.08-.4.19-.4a1,1,0,0,1,.55.17,1.79,1.79,0,0,1,.66.65,14.86,14.86,0,0,1,.11,1.69,3.56,3.56,0,0,1-.32,1.73,1.54,1.54,0,0,1-.84-.2,2.59,2.59,0,0,1-.73-.7s0-.06,0-.13a.45.45,0,0,1,0-.21,2,2,0,0,0-.29-1,1.64,1.64,0,0,0-.54-.62c-.24-.15-.45,0-.63.51a5.4,5.4,0,0,0-.26,1.78,5.45,5.45,0,0,0,.25,1.73,1.65,1.65,0,0,0,.63.93c.29.17.56.08.82-.28a2.48,2.48,0,0,1,0-.29v-.1a1.11,1.11,0,0,1,.72.18,3.23,3.23,0,0,1,.88.79,6.42,6.42,0,0,1,.31,2.09,12.32,12.32,0,0,1-.11,1.57.67.67,0,0,1-.72-.07,1.33,1.33,0,0,1-.49-.51.92.92,0,0,1-.19-.64,1.28,1.28,0,0,1-1.21-.08,3.78,3.78,0,0,1-.93-.85,7,7,0,0,1-.84-1.37,8.39,8.39,0,0,1-.61-1.89A10.37,10.37,0,0,1,292.41,441.73Z" style="fill:#263238"></path></g><g id="freepik--block--inject-6"><path d="M283.53,426.06l11.92,6.88a4.79,4.79,0,0,0,4.33,0l11.92-6.88a4.8,4.8,0,0,0,2.16-3.75V408.55a4.8,4.8,0,0,0-2.16-3.75l-11.92-6.88a4.73,4.73,0,0,0-4.33,0l-11.92,6.88a4.8,4.8,0,0,0-2.16,3.75v13.76A4.8,4.8,0,0,0,283.53,426.06Z" style="fill:#92E3A9"></path><path d="M283.53,426.06l11.92,6.88a4.79,4.79,0,0,0,4.33,0l11.92-6.88a4.8,4.8,0,0,0,2.16-3.75V408.55a4.8,4.8,0,0,0-2.16-3.75l-11.92-6.88a4.73,4.73,0,0,0-4.33,0l-11.92,6.88a4.8,4.8,0,0,0-2.16,3.75v13.76A4.8,4.8,0,0,0,283.53,426.06Z" style="opacity:0.4"></path><path d="M311.7,407.3l-11.92,6.88a4.78,4.78,0,0,0-2.17,3.75v13.76c0,1.38,1,1.94,2.17,1.25l11.92-6.88a4.8,4.8,0,0,0,2.16-3.75V408.55C313.86,407.17,312.89,406.61,311.7,407.3Z" style="fill:#92E3A9"></path><path d="M311.7,407.3l-11.92,6.88a4.78,4.78,0,0,0-2.17,3.75v13.76c0,1.38,1,1.94,2.17,1.25l11.92-6.88a4.8,4.8,0,0,0,2.16-3.75V408.55C313.86,407.17,312.89,406.61,311.7,407.3Z" style="opacity:0.15"></path><path d="M299.11,417.93a3.33,3.33,0,0,1,1.42-2.45l11.83-6.84v13.67a3.32,3.32,0,0,1-1.41,2.45l-11.84,6.83Z" style="fill:#92E3A9"></path><path d="M283.53,407.3l11.92,6.88a4.79,4.79,0,0,0,4.33,0l11.92-6.88a1.32,1.32,0,0,0,0-2.5l-11.92-6.88a4.73,4.73,0,0,0-4.33,0l-11.92,6.88A1.32,1.32,0,0,0,283.53,407.3Z" style="fill:#92E3A9"></path><path d="M297.61,413.19a2.94,2.94,0,0,1-1.41-.31l-11.83-6.83,11.83-6.84a3.38,3.38,0,0,1,2.83,0l11.83,6.84L299,412.88A3,3,0,0,1,297.61,413.19Z" style="fill:#fff;opacity:0.5"></path><path d="M283.53,407.3l11.92,6.88a4.77,4.77,0,0,1,2.16,3.75v13.76c0,1.38-1,1.94-2.16,1.25l-11.92-6.88a4.8,4.8,0,0,1-2.16-3.75V408.55C281.37,407.17,282.34,406.61,283.53,407.3Z" style="fill:#92E3A9"></path><path d="M283.53,407.3l11.92,6.88a4.77,4.77,0,0,1,2.16,3.75v13.76c0,1.38-1,1.94-2.16,1.25l-11.92-6.88a4.8,4.8,0,0,1-2.16-3.75V408.55C281.37,407.17,282.34,406.61,283.53,407.3Z" style="opacity:0.30000000000000004"></path><path d="M284.28,424.76a3.32,3.32,0,0,1-1.41-2.45V408.64l11.83,6.84a3.32,3.32,0,0,1,1.41,2.45v13.66Z" style="fill:#92E3A9"></path><path d="M284.28,424.76a3.32,3.32,0,0,1-1.41-2.45V408.64l11.83,6.84a3.32,3.32,0,0,1,1.41,2.45v13.66Z" style="opacity:0.15"></path><path d="M291.27,406.4c-.34-.2-.52-.36-.53-.49s.07-.29.3-.5a4.85,4.85,0,0,1,.88-.62,3.81,3.81,0,0,1,1-.44,2.93,2.93,0,0,1,.42.18l.08.06a3.91,3.91,0,0,0,.35-.56,1.58,1.58,0,0,1,.57-.64,3.47,3.47,0,0,1,2.07-.29,5.52,5.52,0,0,1,2.27.67,2.46,2.46,0,0,1,.89.82.88.88,0,0,1,.06.88,14.91,14.91,0,0,1,2-.05,5.63,5.63,0,0,1,1.25.13.39.39,0,0,1,.15-.13,1.31,1.31,0,0,1,.34-.12,1.29,1.29,0,0,1,.66.19c.23.14.35.26.35.36a3.86,3.86,0,0,1-1.27.94,5.9,5.9,0,0,1-1.37.59.88.88,0,0,1-.38,0,1.77,1.77,0,0,1-.45-.18c-.17-.1-.26-.19-.26-.28s0-.1.11-.14l.23-.08a3.5,3.5,0,0,0-.66-.1,4.38,4.38,0,0,0-.62,0l-.54.07a4.11,4.11,0,0,0-.47.11l-.34.11-.24.1-.1,0a3.59,3.59,0,0,1,.59.29,5.26,5.26,0,0,1,.49.3.34.34,0,0,1,.14-.11,1.56,1.56,0,0,1,.76-.23,2.13,2.13,0,0,1,.53.26,1.53,1.53,0,0,1,.44.3c.1.1-.43.49-1.59,1.16s-1.73.92-1.91.86a3,3,0,0,1-.52-.25,2.59,2.59,0,0,1-.45-.31c0-.05,0-.12.08-.2a1.09,1.09,0,0,1,.27-.21l.16-.09-.66-.37-1-.56a22.31,22.31,0,0,1-2.32-1.46.69.69,0,0,1-.25.2,1,1,0,0,1-.5.16A1.84,1.84,0,0,1,291.27,406.4Zm4.62-.6a1.41,1.41,0,0,0,.63.22.84.84,0,0,0,.51-.09.76.76,0,0,0,.41-.62.72.72,0,0,0-.43-.65,1.45,1.45,0,0,0-.69-.19,1.24,1.24,0,0,0-.68.15.49.49,0,0,0-.28.56A.94.94,0,0,0,295.89,405.8Z" style="fill:#455a64"></path><path d="M303.35,419.8a6.37,6.37,0,0,1,.67-2.87,4.23,4.23,0,0,1,1.57-1.87,1.48,1.48,0,0,1,1.22-.2,1.92,1.92,0,0,1,.18-.7,1.51,1.51,0,0,1,.44-.39c.27-.15.46-.18.57-.08a4.59,4.59,0,0,1,.06.95c0,1.23-.13,2-.37,2.18a1.05,1.05,0,0,1-.3.24.57.57,0,0,1-.52.1,1.25,1.25,0,0,1-.06-.42.6.6,0,0,0-.68,0,2,2,0,0,0-.68.8,2.5,2.5,0,0,0-.29,1.08c0,.55.26.67.78.37l.44-.27.44-.27a.85.85,0,0,1,1,0c.26.2.39.69.39,1.5a6.66,6.66,0,0,1-.7,3,4.71,4.71,0,0,1-1.79,2.06,1.07,1.07,0,0,1-1.09.11,1.55,1.55,0,0,1-.09.57,1.63,1.63,0,0,1-.53.44c-.27.15-.45.19-.54.11a8,8,0,0,1-.05-1,8.57,8.57,0,0,1,.38-2.55,1.12,1.12,0,0,1,.34-.29c.22-.13.38-.15.49,0a2.29,2.29,0,0,1,.06.49c.18.21.42.23.73.05a2.32,2.32,0,0,0,.77-.72,1.67,1.67,0,0,0,.27-.88.53.53,0,0,0-.08-.35.24.24,0,0,0-.26-.08,1.67,1.67,0,0,0-.3.07l-.34.16-.36.18-.38.13a1.51,1.51,0,0,1-.41.07,1.31,1.31,0,0,1-.36-.08.59.59,0,0,1-.31-.25,1.76,1.76,0,0,1-.2-.52A3.86,3.86,0,0,1,303.35,419.8Z" style="fill:#37474f"></path><path d="M286.24,415.45a10.45,10.45,0,0,1,.12-2l.75.37c.4.2.79.39,1.17.6s.78.42,1.17.65.78.45,1.17.7l1.23.78c.42.27.68.44.77.51a13.24,13.24,0,0,1,.12,2.12,5.62,5.62,0,0,1-.06.95,3,3,0,0,1-.73-.28,2.05,2.05,0,0,1-.66-.62l-.16-.92a2.83,2.83,0,0,0-.79-.61c0,1.19.05,2.25.05,3.19a20.29,20.29,0,0,1-.09,2.23l.2.16a1.91,1.91,0,0,1,.32.31,3.46,3.46,0,0,1,.05.79,3.18,3.18,0,0,1-.05.8c-.12.18-.55.06-1.32-.38a3,3,0,0,1-1.34-1.16,4,4,0,0,1-.05-.86,2.41,2.41,0,0,1,.05-.72.62.62,0,0,1,.32.05l.2.08a23.08,23.08,0,0,1-.1-2.34c0-.94,0-2,.06-3.13-.44-.24-.71-.34-.79-.31l-.16.75A.88.88,0,0,1,287,417a5.32,5.32,0,0,1-.73-.56A7.16,7.16,0,0,1,286.24,415.45Z" style="fill:#263238"></path></g></g></g><g id="freepik--character-2--inject-6"><g id="freepik--Character--inject-6"><g id="freepik--Bottom--inject-6"><path d="M423.14,373.48c1.22-1.35-2.66-6.83-8.73-8.08-4.78-1-7.07-.3-10.52-.13s-8.45-1-11.32-1.45c-7.05-1.2-9.19,3.18-8.84,4,.82,1.81,2.88,2.56,6.79,4.38S413.81,375.4,423.14,373.48Z" style="fill:#455a64"></path><path d="M423.14,373.48s-.64-3.86-8.54-2.7c-5.17.76-14.49.55-17.31-.06-3.7-.8-8.48-4.65-12.51-3.44-1.85,2.12-1.43,4.41-1.21,7.71-8.82,3-27.52,8-27.52,8l-23.12,17.45c8.77,3.09,24.5,2.38,37.31-2.9,7.59-3.13,14.14-7.55,20.88-11.48,3.65-2.12,6.46-3.58,8-4,3.84-.93,9.34-2.5,14.38-4.15l0,0C417.42,376.86,421.27,375.14,423.14,373.48Z" style="fill:#c8856a"></path><path d="M304.76,368.64c1.5-6.23,8.28-13.78,14.69-18.91,8.56-6.86,26.14-17.7,26.14-17.7l.18,1.52h0l46.12-5.16c2.39,6.27,4.73,18.93,3.95,27.66-.73,8.14-2.86,17.81-18,27.09-9.22,5.63-13.2,9.89-20,12.71-7.38,3.05-17.49,8.24-27.24,3.64-5.62-2.65-9.12-6.57-8.58-13.07h0c-1.22.6-8.4,1.21-12.94-1.93C304.83,381.59,303.19,375.1,304.76,368.64Z" style="fill:#c8856a"></path><path d="M319,386.88a9.91,9.91,0,0,0,3-.47c2.75-10.81,14.67-17.91,31.7-29.35-6.42-1.95-12-9.65-12-9.65.53,5.83,3.1,8.76,5.31,10.34-3.82,2.85-10.93,6.19-17.18,12.19C325.65,373.94,320.24,379,319,386.88Z" style="fill:#af6152"></path><path d="M312.12,356.62c-1.06,1.17-2.06,2.37-3,3.58,8.17-.13,20.14,2.09,36,16.06,10.06,8.84,11.7,16.79,11.7,16.79l3.92-1.19C357,378.77,340.33,359,312.12,356.62Z" style="fill:#af6152"></path><path d="M352.14,393.64c5.62,1.05,17.05-1.75,24.1-6.87,2.24-1.63,8-5.58,11.18-10.79.92-1.48-21,12.19-21,12.19S358.69,392.42,352.14,393.64Z" style="fill:#af6152"></path><path d="M381.72,377.73c4.56,2.34,7,7.62,5.68,10.52l-1.13.68s-.72,1.44,3.44-1,6.45-4,8.08-4.76a74.18,74.18,0,0,1,11.83-3.72c6.13-1.54,13-3.73,13.73-6.45-2.73-3.26-4.55-3-9-2.71s-9.47,1.43-13.56.29-9.6-4.71-12.47-4.73c-1.62,0-3.55,0-4.65,2s-.46,6.68-.46,6.68-4.11,1.33-4.66,1.47-.8.85-.8.85l1.2-.37A13.77,13.77,0,0,1,381.72,377.73Z" style="fill:#37474f"></path></g><g id="freepik--Top--inject-6"><path id="freepik--Arm--inject-6" d="M353.82,319.83c-2,7.29-3.47,11.33-9,16.57s-12.07,9.65-23.34,15.73c-6,3.23-10.33,4.55-14.12,4.13-9.12-1-15-10.07-8.25-11.63,5.38-1.23,8.11-2,9.36-3.14,0,0-5.84-2.95-5.51-5.07.31-1.95,4.57-1.1,8.63-.32,2.6.49,4.81,1.63,6.16.9,8.06-4.86,17.62-13.58,17.62-13.58s4.45-23,8.05-30.91c4.71-10.32,17.82-9,17.82-9l-3.62,20.84Z" style="fill:#c8856a"></path><g id="freepik--Chest--inject-6"><path d="M338.37,335.51a51.16,51.16,0,0,1,5-9.94c.32-8.73.47-12.82,1.18-21.37.62-7.35,3-17.77,13.24-20s14.45-.73,21.25.91c7.83,1.9,11.45,3.14,11.45,3.14A20.59,20.59,0,0,1,398.43,302c1.45,12.51,2.55,40.12.6,51.4s-2.86,20.31-21.9,30.67c-12.64,6.88-20.36,8.64-20.36,8.64s4-10.52-22.34-26.82a46.6,46.6,0,0,0-24.13-7.1,58.91,58.91,0,0,1,12.83-12.71C332.21,339.63,336.61,337.79,338.37,335.51Z" style="fill:#92E3A9"></path><path d="M338.37,335.51a51.16,51.16,0,0,1,5-9.94c.32-8.73.47-12.82,1.18-21.37.62-7.35,3-17.77,13.24-20s14.45-.73,21.25.91c7.83,1.9,11.45,3.14,11.45,3.14A20.59,20.59,0,0,1,398.43,302c1.45,12.51,2.55,40.12.6,51.4s-2.86,20.31-21.9,30.67c-12.64,6.88-20.36,8.64-20.36,8.64s4-10.52-22.34-26.82a46.6,46.6,0,0,0-24.13-7.1,58.91,58.91,0,0,1,12.83-12.71C332.21,339.63,336.61,337.79,338.37,335.51Z" style="opacity:0.2"></path></g><path d="M382,279.53c3.7-6.37,8.53-8,12-15.59,4.51-9.86,1.83-17.93-2.27-20.59,0,0,.51-7-7.68-11.7a30.48,30.48,0,0,0-24.75-2.82c-4.06,1.24-9.06,4.45-11.38,8.07-3,4.75-4.56,11.17.25,16.86C350.31,256.25,381.2,279.47,382,279.53Z" style="fill:#263238"></path><path d="M346.74,222.32a1.06,1.06,0,0,1-.4.75c-1.29,1-2.65-.3-2.41-1.69-1.16,1.47-.58,3.83,1.29,3.88a2.36,2.36,0,0,0-.06,4.69,2.4,2.4,0,0,0,2.58,4c-.12,3,4.6,2.44,6.42,2.58a4.32,4.32,0,0,0,2.64-.38c1.05-.67,1.46-2.23,2.67-2.56.83-.22,1.76.24,2.54-.12,1.27-.59.93-2.69,2-3.54a9.26,9.26,0,0,1,1.89-.69,2.33,2.33,0,0,0,1.2-2.8c-.2-.58-.65-1.1-.66-1.72s.63-1.44.47-2.17-.93-1-1.63-1.19a3.27,3.27,0,0,1-1.94-.8c-.5-.59-.42-1.47-.69-2.2A2.38,2.38,0,0,0,360,217c-.71.18-1.36.72-2.1.65s-1.4-.92-2.14-1.34a2.46,2.46,0,0,0-3.26,1c-.34.68-.44,1.62-1.16,1.89s-1.24-.21-1.87-.36a2.26,2.26,0,0,0-2.66,1.88C346.71,221.22,346.82,221.82,346.74,222.32Z" style="fill:#263238"></path><path d="M403.32,234.05a1.18,1.18,0,0,0,.11.9c.9,1.49,2.75.74,3.05-.74.58,1.91-.91,4-2.78,3.35a2.52,2.52,0,0,1-1.77,4.68,2.56,2.56,0,0,1-4.13,3c-1,3-5.51.64-7.37.06a4.55,4.55,0,0,1-2.48-1.39c-.78-1.08-.58-2.79-1.65-3.58-.74-.54-1.85-.45-2.48-1.11-1-1.08.13-3-.65-4.3-.37-.62-1.11-.91-1.61-1.43a2.48,2.48,0,0,1-.1-3.24c.43-.5,1.07-.84,1.32-1.45s-.06-1.67.38-2.34a2.05,2.05,0,0,1,2.08-.55,3.53,3.53,0,0,0,2.23,0c.74-.4,1-1.31,1.55-1.92a2.53,2.53,0,0,1,3.26-.34c.64.46,1.08,1.24,1.84,1.46s1.74-.36,2.64-.49a2.61,2.61,0,0,1,2.85,2.24c.08.81-.19,1.78.42,2.33s1.31.27,2,.36a2.4,2.4,0,0,1,1.9,2.91C403.78,233,403.44,233.52,403.32,234.05Z" style="fill:#263238"></path><path d="M348.24,251.66c.14-1.27.22-2.9,1.15-3.85a11.76,11.76,0,0,1,3.11-1.87,14.39,14.39,0,0,0,3.61-2.67,4.28,4.28,0,0,1-.65,2.9,12.26,12.26,0,0,1-1.94,2.32,10.91,10.91,0,0,0,4.37.89,20.59,20.59,0,0,0,6-.69,10.84,10.84,0,0,0,5.83-3.66,5.28,5.28,0,0,1-1.65,3.53,16.14,16.14,0,0,1-3.23,2.32,10.74,10.74,0,0,0,8.24-.75c3.89-2,4.59-4.82,4.59-4.82,0,.62-.09,3,0,3.59a10.67,10.67,0,0,0,.75,3c1.14,2.53.78,3.56,3,5.23a8.26,8.26,0,0,0-.18,3.92,2.59,2.59,0,0,0,.46,1.15,1.31,1.31,0,0,0,.24.23c1.32,1,1.46-1.42,2.92-2.92a3.63,3.63,0,0,1,3-1,4.59,4.59,0,0,1,4.11,2.94c1.18,3-2.32,8.94-6,9.51-3,.47-4.15-1.27-4.15-1.27l.52,16.21s-4.67,13.76-22.64,15.34c-2-2.25-2.12-9.46,2.46-15.27l-.4-4.89a23,23,0,0,1-7-1.51,12.84,12.84,0,0,1-7.65-11.36c-.23-4.12.79-6.58,1-10.08C348.32,256.07,348.09,253,348.24,251.66Z" style="fill:#c8856a"></path><path d="M361.82,281.1c4.64,0,8,0,13.46-3.07a13.89,13.89,0,0,0,5.27-5.9s-1.32,5.1-3.51,7.18c-5.73,5.45-15,4.36-15,4.36Z" style="fill:#af6152"></path><path d="M368.54,254.19l4.76,2.5a2.82,2.82,0,0,0-1.17-3.73A2.63,2.63,0,0,0,368.54,254.19Z" style="fill:#263238"></path><path d="M371.77,259.49a2.21,2.21,0,1,1-1.95-2.45A2.22,2.22,0,0,1,371.77,259.49Z" style="fill:#263238"></path><path d="M355.38,257.32a2.21,2.21,0,1,1-1.94-2.45A2.21,2.21,0,0,1,355.38,257.32Z" style="fill:#263238"></path><path d="M350.39,253.56l5.3-1.19a2.62,2.62,0,0,0-3.15-2.1A2.86,2.86,0,0,0,350.39,253.56Z" style="fill:#263238"></path><path d="M367.16,268.46l-6.51,1.35a3.18,3.18,0,0,0,3.81,2.63A3.49,3.49,0,0,0,367.16,268.46Z" style="fill:#af6152"></path><path d="M365.94,269.81a2.21,2.21,0,0,0-2.45,1.94,2.29,2.29,0,0,0,.05.74,3.18,3.18,0,0,0,.92-.05,3.45,3.45,0,0,0,2.53-2.22A2.15,2.15,0,0,0,365.94,269.81Z" style="fill:#f28f8f"></path><polygon points="361.57 255.43 359.39 265.69 354.69 263.15 361.57 255.43" style="fill:#af6152"></polygon><path id="freepik--arm--inject-6" d="M407,329s-2-16.44-3-24.15-3.8-14.26-13.51-16.62c0,0-6.21,6.54-6.19,15.22s4.31,33.21,4.31,33.21-8.46,13.58-15.46,19.87c-1.18,1-3.83,1.9-6.77,2.51-4,.84-8.78,1.83-8.71,3.82s5.54,1.72,7.11,1.75c2.52,0-1.68,2.2-9.88,4.67-6.64,2,2.48,9.77,11.63,9,3.8-.3,7.83-2.42,13.09-6.72a110.17,110.17,0,0,0,23.63-26.33C407.28,338.77,407.26,335.37,407,329Z" style="fill:#c8856a"></path></g></g></g><g id="freepik--character-1--inject-6"><g id="freepik--character--inject-6"><path d="M164.24,393.51c-2.07,3.6-6.46,2.37-8.64,6.21a11.59,11.59,0,0,0-1.18,8.75c.32,1.46,1,3.07.84,4.55-.2,1.88-.41,3.78-.58,5.67a64.1,64.1,0,0,1-1.6,8.9c-1.65,7.2,1.42,14.78,5.82,20.42a26.31,26.31,0,0,0,7.87,7.07c2.22,1.28,5.59,2.36,7.89.78s3-4.65,3.07-7.25c.13-3.18-1.14-6.27-1.78-9.33s-1.5-7.47-.34-10.35a74.55,74.55,0,0,0,2.28-7.5c1.3-4.61,2.52-9.24,3.72-13.88l.36-1.41c1.31-4.38,5.33-11.91,5.33-11.91l-20.85-6.08A25,25,0,0,1,164.24,393.51Z" style="fill:#c8856a"></path><path d="M154.25,399.67a7.73,7.73,0,0,0-3.74,3.71A23.79,23.79,0,0,0,152,412.6c1.45,4.13,2,5.82.87,9s-2.66,7-2.25,12.81,2.93,13.29,11.37,19.69c6.93,5.24,13,5,15.32,4.64s2.86-3.61,2.86-3.61Z" style="fill:#263238"></path><path d="M165.43,391.07a26.44,26.44,0,0,0-1.52,5.3c-.59,4.6,4.19,10.6,5.53,12.17a4.7,4.7,0,0,1,3.66-1.28c3,0,8.23.53,8.74,1.86s-4.05,10.77-4.81,17.8a30.24,30.24,0,0,0,2.78,16.39c1.77,3.63,4.81,8.58-.34,12.95-3,.84-15.33-.87-22.5-11.37-6.36-9.32-3.38-18.85-1.71-23.74s.27-7.84-1.11-13.88c-.61-2.63-1.26-4.61.1-7.6,2.43-3,6-4.31,8.11-6.11C164.05,392.1,164.24,390.48,165.43,391.07Z" style="fill:#37474f"></path><path d="M157,444.89c1-2.78,5.48-6.63,11.21-7.73,7-1.36,9.49.1,11,2.48,1.28,2,8.22,13.3.57,16.81C177.29,458,165.29,457.83,157,444.89Z" style="fill:#fafafa"></path><path d="M169.44,408.54a2.48,2.48,0,0,1,.86,1.53,5.38,5.38,0,0,1-.26,1.77c-.32,1.12-.59,2.21-.87,3.33-.59,2.21-1.14,4.42-1.6,6.65a61.56,61.56,0,0,0-1,6.74,30.62,30.62,0,0,0,.1,6.83,21,21,0,0,1-.92-6.87,39,39,0,0,1,.77-6.91,59,59,0,0,1,1.79-6.7c.36-1.09.77-2.19,1.19-3.25a6,6,0,0,0,.48-1.58A2.61,2.61,0,0,0,169.44,408.54Z" style="fill:#263238"></path><path d="M165.3,433.62c2.77-1.13,10.32-1.42,11.85.95l.13.81a3.62,3.62,0,0,0-.05-2.46c-.48-1.47-5.6-3.1-12-1.05C164.55,432.5,164.45,433.88,165.3,433.62Z" style="fill:#fafafa"></path><path d="M165.63,427.72c2.7-1.29,9.62-1.74,11.29.54l0,.66a2.14,2.14,0,0,0,.17-2.24c-.57-1.44-5.32-3.12-11.59-.71C164.81,426.65,164.79,428,165.63,427.72Z" style="fill:#fafafa"></path><path d="M166.5,421.75c2.78-1,9.8-1.23,11.26,1.21l-.18.78a2.72,2.72,0,0,0,.58-2.11c-.33-1.57-5.3-3.49-11.7-1.65C165.77,420.6,165.65,422,166.5,421.75Z" style="fill:#fafafa"></path><path d="M167.5,416.68c2.78-1.05,10.26-1.31,11.71,1.13l-.2.78a3.09,3.09,0,0,0,.6-2.23c-.33-1.57-5.73-3.3-12.13-1.45C166.78,415.53,166.65,416.91,167.5,416.68Z" style="fill:#fafafa"></path><path d="M137.81,316.28c2.36,3.23,6.4,1.66,18,0,22.81-3.25,32.62-4.92,42.95-3,5.82,1.08,11.18,2.62,14.83,8.24,2.72,4.19,4.71,11,2.24,20.62-5.46,21.18-16.51,38.09-25,55.8,0,0-15.81-8.23-26.94-7.84l7.18-28.06-36.95,10.83Z" style="fill:#455a64"></path><path d="M190.57,383.18c3.77-2.18,16.85-22.6,23.6-35.29-5.82,18.55-15.63,34-23.35,50.06,0,0-15.81-8.23-26.94-7.84l1.1-4.32C171.89,385.69,187,385.25,190.57,383.18Z" style="fill:#37474f"></path><path d="M134.11,372.88l3-6s10.8-3,20.76-6.91c8.44-3.32,11.95-10.57,14.21-16.07s5.9-10.28,10.06-11.91c-5,4.38-7.73,18.76-11,30Z" style="fill:#37474f"></path><path d="M200.88,387.22c3.86-1.54,3.27-6.06,7.38-7.67a11.55,11.55,0,0,1,8.83.08c1.4.52,2.89,1.42,4.39,1.48,1.88.07,3.79.12,5.69.23a65.06,65.06,0,0,0,9-.32c7.35-.61,14.42,3.51,19.37,8.67a26.16,26.16,0,0,1,5.88,8.8c1,2.38,1.55,5.87-.35,7.92s-5,2.28-7.61,2c-3.17-.33-6.05-2-9-3.09s-7.17-2.55-10.19-1.81a74.28,74.28,0,0,1-7.75,1.18c-4.75.63-9.51,1.18-14.27,1.71l-1.45.15c-4.52.68-12.55,3.58-12.55,3.58l-3-21.5A25.47,25.47,0,0,0,200.88,387.22Z" style="fill:#c8856a"></path><path d="M208.4,378.2a7.76,7.76,0,0,1,4.21-3.17,23.76,23.76,0,0,1,8.91,2.82c3.88,2,5.47,2.77,8.75,2.14s7.34-1.64,13-.4,12.73,4.78,17.86,14.06c4.21,7.59,3.15,13.58,2.42,15.82s-4,2.31-4,2.31Z" style="fill:#263238"></path><path d="M198.3,388.05a27.12,27.12,0,0,1,5.45-.76c4.65.08,9.9,5.66,11.26,7.22a4.68,4.68,0,0,0-1.78,3.43c-.41,3-.65,8.22.59,8.92s11.24-2.47,18.31-2.23A30.29,30.29,0,0,1,248,409.72c3.34,2.26,7.8,6,12.86,1.51,1.26-2.84,1.33-15.3-8-23.89-8.32-7.63-18.18-6-23.25-5.08s-7.8-.85-13.58-3.08c-2.52-1-4.39-1.89-7.54-1-3.31,2-5.12,5.36-7.2,7.16C199.51,386.82,197.89,386.78,198.3,388.05Z" style="fill:#37474f"></path><path d="M252.77,387.34c-2.89.57-7.34,4.48-9.25,10-2.34,6.79-1.24,9.41.89,11.28,1.77,1.54,12,10,16.56,2.95C262.81,409.31,264.39,397.41,252.77,387.34Z" style="fill:#fafafa"></path><path d="M215,394.51a2.59,2.59,0,0,0,1.4,1.06,5.38,5.38,0,0,0,1.79,0c1.15-.16,2.27-.28,3.42-.39,2.27-.27,4.54-.5,6.81-.63a61.9,61.9,0,0,1,6.81-.05,30.55,30.55,0,0,1,6.75,1.08,20.57,20.57,0,0,0-6.67-1.89,37.58,37.58,0,0,0-6.95-.22,58.69,58.69,0,0,0-6.88.81c-1.13.2-2.28.46-3.39.72a5.87,5.87,0,0,1-1.63.25A2.73,2.73,0,0,1,215,394.51Z" style="fill:#263238"></path><path d="M240.43,394c-1.51,2.59-2.87,10-.74,11.87l.78.25a3.66,3.66,0,0,1-2.43-.4c-1.39-.69-2.27-6,.67-12C239.43,393.07,240.81,393.17,240.43,394Z" style="fill:#fafafa"></path><path d="M234.55,393.46c-1.67,2.5-3.1,9.28-1.08,11.25l.66.06a2.16,2.16,0,0,1-2.24-.15c-1.34-.77-2.33-5.71,1-11.58C233.6,392.5,235,392.68,234.55,393.46Z" style="fill:#fafafa"></path><path d="M228.51,393.48c-1.43,2.6-2.62,9.52-.41,11.31l.8-.07a2.69,2.69,0,0,1-2.17.27c-1.51-.54-2.7-5.74,0-11.81C227.48,392.59,228.86,392.67,228.51,393.48Z" style="fill:#fafafa"></path><path d="M223.35,393.74c-1.43,2.61-2.76,10-.55,11.76l.81-.1a3.12,3.12,0,0,1-2.3.28c-1.51-.55-2.45-6.14.29-12.22C222.31,392.87,223.7,392.93,223.35,393.74Z" style="fill:#fafafa"></path><path d="M134.11,372.88l14.75,15.82a51.66,51.66,0,0,1,15.94-2.2c8.48.27,27,1.78,32.51,1,6.52,3.06,11.72,12.88,6.66,21.21-12,3.75-32.32,10-45,12.75-15.35,3.28-25.37,4.79-38-2.89S84,392.22,76.72,383.53,67.1,359,66.6,348.33c18.43,3.15,60.43-4.52,68-31C145.63,329.64,139.58,351.84,134.11,372.88Z" style="fill:#455a64"></path><path d="M129.69,367.48s11.45-6.59,11.39-19.07c3.19,12.23-2.87,18.79-7,24.47Z" style="fill:#37474f"></path><path d="M68.77,348.63l.17,0c.73.08,1.49.15,2.28.2h0c1.08,12,2.57,23,14.22,36.71,16,18.86,37.16,33.72,38.75,34.82-1.08-.56-2.16-1.14-3.22-1.79-12.6-7.67-36.93-26.37-44.25-35.06A26.11,26.11,0,0,1,74.21,380a42.43,42.43,0,0,1-3.77-8.57,91.1,91.1,0,0,1-3.84-23.06C67.29,348.45,68,348.54,68.77,348.63Z" style="fill:#37474f"></path><g id="freepik--top--inject-6"><path id="freepik--arm--inject-6" d="M119.44,234.59c15.28.55,19.66,1.73,31,25.44,7.65,16.05,21.52,46.19,21.52,46.19L149.31,317.3c-7.67-13.83-13.11-24.63-23-44.9Z" style="fill:#ebebeb"></path><g id="freepik--chest--inject-6"><path d="M97.82,238.56c-10.38,2.9-15.8,4.15-30.06,9.57-3,2.9-9.13,13.23-9.24,26.15-.16,19.55.82,25.8,3.07,48.69a279.16,279.16,0,0,0,5.09,31.26c35.83,9.48,74.73-19.39,76.89-36-3.54-5.05-3.29-12.83-5.11-48.28-1.07-20.86-7-35.94-19-35.35C116.08,235.43,108.2,235.65,97.82,238.56Z" style="fill:#fafafa"></path></g><g id="freepik--Tie--inject-6"><path d="M112.9,276.6c0,6.75-2.18,41.8-1.9,45.95s7.9,15.93,9.73,15.22,7.07-14.53,7.21-19.88S118,275.56,118,275.56,116,270.69,112.9,276.6Z" style="fill:#92E3A9"></path><path d="M85.24,239.82l-4.42,3.78a94.77,94.77,0,0,0,14.11,17,67.66,67.66,0,0,0,18,11.38l-.5-2.09C109.36,268.22,90.23,252.9,85.24,239.82Zm32.31,3.51-5-2.88c4,6.21,6.16,18.59,4.52,27.41l1.16,1C120.1,264.84,121.38,254.15,117.55,243.33Z" style="fill:#92E3A9"></path><path d="M119.05,266.47a2.79,2.79,0,0,0-1.61-1.46c-.09,1-.21,1.94-.38,2.85l1.16,1A14.73,14.73,0,0,0,119.05,266.47Z" style="opacity:0.2"></path><path d="M117.55,243.33l-5-2.88c2.58,4,4.4,10.66,4.91,17.23a5.42,5.42,0,0,1,2.57,1.24A44.43,44.43,0,0,0,117.55,243.33Zm-32.31-3.51L81.54,243l1.26,3.54a91.6,91.6,0,0,0,12.13,14.06,58.43,58.43,0,0,0,7,5.43l2.16-2.65C97.27,257.33,88.41,248.13,85.24,239.82Z" style="opacity:0.2"></path><path d="M109.42,267.79c-.65.77-.65,2.23,0,3.66a32.84,32.84,0,0,0,3.48,5.15c1.18-1.13,4.52-2.54,5.12-1,.9-1.55,1.17-7.24.6-8.67C117.64,264.41,111.76,265.07,109.42,267.79Z" style="fill:#92E3A9"></path><path d="M114.66,274.11c-1.3.32-2.29.24-3.23-2.14s-1.25-4.45.57-5.94a6.92,6.92,0,0,0-2.58,1.76c-.65.77-.65,2.23,0,3.66a32.84,32.84,0,0,0,3.48,5.15c1.18-1.13,4.52-2.54,5.12-1C118.47,273.69,116.52,273.66,114.66,274.11Z" style="opacity:0.2"></path></g><g id="freepik--Head--inject-6"><path d="M127.55,201.3a11.66,11.66,0,0,0,4.44-5.66,18.29,18.29,0,0,0,1.07-8,9,9,0,0,0-.75-2.76,4.07,4.07,0,0,0-3.08-1.49c-.73-.1-1.48-.2-2.22-.28a14.5,14.5,0,0,0,3.35-4.75,7.64,7.64,0,0,0,.23-4.34,2.3,2.3,0,0,0-.49-1.06,2.48,2.48,0,0,0-2.51-.31,48.8,48.8,0,0,1-15.84,1.3c-4.21-.21-6.32-.71-12.1-1.22s-16.08,2.17-17.82,13.08c-7.73,1.31-8.67,13.81-6.43,19.07,4.12,9.69,8,16.09,10.14,23.07.4-.29,26.28-15.42,32.21-19.66l6.66-4.78C125.48,202.75,126.55,202.05,127.55,201.3Z" style="fill:#263238"></path><path d="M78,220.81c4.62,3.43,7.61.12,7.61.12l-.08,22.17c10.37,11.56,25.56,11.84,27,16.93,1.14-3.45.77-12.28-2.74-19.1v-4.24a37.36,37.36,0,0,0,7.06-.32,12,12,0,0,0,4.11-1.53,12.64,12.64,0,0,0,5.62-7.56,61.68,61.68,0,0,0,2.15-16.87c0-6.84-.68-15.67-2.94-20.26-4.09-3.61-16.27-4-26.52-1-.18,2.56.08,4.8-2,7.61a10.87,10.87,0,0,1-3.92,3.08c-.27,5-.47,6.31-1.39,8.5-.51,1.27-1.53,3.16-4.06,2.24-1.19-.43-2.07-3.07-3.31-4.83-1.66-2.36-6.87-3.46-9.4,1.65S74.82,218.44,78,220.81Z" style="fill:#c8856a"></path><path d="M109.8,236.68c-5.17-.51-14.39-2.47-17.06-5.63S88,220.6,88,220.6s1,8.19,3,11.75,6.5,5,9.76,6a57.18,57.18,0,0,0,9,1.48Z" style="fill:#af6152"></path><path d="M106.31,201.79l-5,2.15a2.84,2.84,0,0,1,1.45-3.64A2.62,2.62,0,0,1,106.31,201.79Z" style="fill:#263238"></path><path d="M120.65,201.51l4.77,2.52a2.83,2.83,0,0,0-1.17-3.74A2.63,2.63,0,0,0,120.65,201.51Z" style="fill:#263238"></path><path d="M104.7,219.59l9,3.43a5,5,0,0,1-6.39,2.82A4.7,4.7,0,0,1,104.7,219.59Z" style="fill:#af6152"></path><path d="M105,221.46a4.7,4.7,0,0,1,4.69,4.63,4.75,4.75,0,0,1-2.38-.25,4.63,4.63,0,0,1-3-4.31A4.93,4.93,0,0,1,105,221.46Z" style="fill:#f28f8f"></path><polygon points="112.06 202.32 113.68 218.5 122.05 214.98 112.06 202.32" style="fill:#af6152"></polygon><path d="M103.28,207.7a2.21,2.21,0,1,0,2.24-2.18A2.2,2.2,0,0,0,103.28,207.7Z" style="fill:#263238"></path><path d="M119.66,207.23a2.21,2.21,0,1,0,2.24-2.18A2.2,2.2,0,0,0,119.66,207.23Z" style="fill:#263238"></path><path d="M112.54,260c-1.84-3-3.78-3.55-7.76,0a73.38,73.38,0,0,0-7.44,7.9s-8.77-6-13.53-13.84c-4-6.64-4.58-10.09-4.58-10.09a53.38,53.38,0,0,0,3.22-4.78c1.65-2.94,1.34-5.05,3.1-5.15v3a33.25,33.25,0,0,0,6.7,9.14c3.64,3.6,6.66,5.64,13.39,8.44C109.49,256.27,111.86,257.55,112.54,260Z" style="fill:#ebebeb"></path><path d="M112.54,260c0-2.8-.14-4.64,0-6.28s-1.17-10.12-2.74-12.82v-4.25a31.73,31.73,0,0,0,4.94-.06,37.23,37.23,0,0,1,6.75,12.47,53.6,53.6,0,0,1,1.75,11.5,11.08,11.08,0,0,0-4.42-4.22C116,255.07,113.66,256.87,112.54,260Z" style="fill:#ebebeb"></path></g><g id="freepik--arm--inject-6"><path d="M175.22,291.17s-.24-2.27,2.68-4.6,6.76-4.26,7.82-9.82l4.22,2.22-6.5,12Z" style="fill:#92E3A9"></path><path d="M175.22,291.17s-.24-2.27,2.68-4.6,6.76-4.26,7.82-9.82l4.22,2.22-6.5,12Z" style="fill:#fff;opacity:0.75"></path><path d="M175.22,291.17s-4.6-2.08-14.41.34S143,296.9,124,297.22l5,2.66,49.21-4.79Z" style="fill:#92E3A9"></path><path d="M175.22,291.17s-4.6-2.08-14.41.34S143,296.9,124,297.22l5,2.66,49.21-4.79Z" style="fill:#fff;opacity:0.75"></path><polygon points="124.01 297.22 108.59 354.67 113.63 357.32 129.05 299.88 124.01 297.22" style="fill:#92E3A9"></polygon><polygon points="124.01 297.22 108.59 354.67 113.63 357.32 129.05 299.88 124.01 297.22" style="fill:#fff;opacity:0.8"></polygon><polygon points="124.01 297.22 108.59 354.67 113.63 357.32 129.05 299.88 124.01 297.22" style="opacity:0.1"></polygon><g style="opacity:0.1"><path d="M185.83,279.8a9.7,9.7,0,0,1-1.91,3.27,28.67,28.67,0,0,1-2.73,2.67,19.54,19.54,0,0,0-2.67,2.63,6.79,6.79,0,0,0-.92,1.58,3.58,3.58,0,0,0-.29,1.69l-.6.11a4.16,4.16,0,0,1,.4-2,6.9,6.9,0,0,1,1-1.65,19.14,19.14,0,0,1,2.84-2.58,29.41,29.41,0,0,0,2.81-2.54A9.69,9.69,0,0,0,185.83,279.8Z"></path><path d="M185.16,283a9.4,9.4,0,0,1-1.44,2c-.54.62-1.1,1.23-1.63,1.85a12.68,12.68,0,0,0-1.41,2,5.2,5.2,0,0,0-.7,2.22l-.6-.05a5.48,5.48,0,0,1,.91-2.4,12.81,12.81,0,0,1,1.57-1.94c.58-.6,1.17-1.17,1.75-1.75A9.14,9.14,0,0,0,185.16,283Z"></path><path d="M143,296.9a75.11,75.11,0,0,0,8-1.5c2.64-.64,5.24-1.4,7.86-2.12a37.87,37.87,0,0,1,8.05-1.37,29.67,29.67,0,0,1,4.11,0,13,13,0,0,1,2.05.3,5,5,0,0,1,2,.89l-.4.45a4.48,4.48,0,0,0-1.71-.78,11.63,11.63,0,0,0-2-.33,27.07,27.07,0,0,0-4-.08,36.08,36.08,0,0,0-8,1.21c-2.63.67-5.25,1.38-7.91,2A75.16,75.16,0,0,1,143,296.9Z"></path><path d="M156.05,296.14c1.53-.26,3-.64,4.53-1s3-.68,4.54-.95a31.2,31.2,0,0,1,4.63-.49,12.83,12.83,0,0,1,4.66.68l-.22.56a12.5,12.5,0,0,0-4.44-.78,29.32,29.32,0,0,0-4.58.33c-1.53.22-3,.5-4.56.8S157.58,295.93,156.05,296.14Z"></path></g><polygon points="189.84 276.13 182.25 290.32 165.71 351.91 168.22 353.24 175.68 335.93 192.35 277.46 189.84 276.13" style="fill:#92E3A9"></polygon><polygon points="184.77 291.64 192.35 277.46 175.68 335.93 168.22 353.24 184.77 291.64" style="opacity:0.2"></polygon><polygon points="174.32 295.31 125.8 300.33 109.25 361.93 111.77 363.25 160.3 358.24 176.85 296.64 174.32 295.31" style="fill:#92E3A9"></polygon><polygon points="128.32 301.66 111.77 363.25 160.3 358.24 176.85 296.64 128.32 301.66" style="opacity:0.2"></polygon><polygon points="125.8 300.33 128.32 301.66 111.77 363.25 109.25 361.93 125.8 300.33" style="opacity:0.35000000000000003"></polygon><path d="M176.85,296.64l7.92-5-16.55,61.6c-1.13,3.33-3.85,4.91-7.92,5Z" style="fill:#92E3A9"></path><g style="opacity:0.35000000000000003"><path d="M176.85,296.64l7.92-5-16.55,61.6c-1.27,3.53-4.08,5-7.92,5Z"></path></g><path d="M182,290.17c-1.54-.82-4.56-.38-6.75,1s-2.71,3.16-1.17,4l2.8,1.48,7.92-5-2.52-1.32Z" style="fill:#455a64"></path><path d="M182.25,290.32c-.39,2.35-3.31,3.93-7.92,5l2.52,1.33c4-.61,6.55-2.33,7.92-5Z" style="fill:#92E3A9"></path><path d="M67.76,248.61c-10.74,3.15-18.41,8-19.87,22.75-1.56,15.69-2.1,28.38-1.73,53.58.15,10.23-.26,14.83,10.49,18.71,18.39,6.63,42.07,7.61,48.31,8.13,4,.33,12.79,1.11,15.89.74,9.72-1.17,14.9-7,18-10,1.68-1.67,3.33-3.71,3.29-6.09a8.62,8.62,0,0,1,0-2.27,10.78,10.78,0,0,1,1.1-2,4.07,4.07,0,0,0,.39-2.45,13.41,13.41,0,0,1-.44-2.22c0-1.53,1.44-2.64,2.06-4a1.29,1.29,0,0,0,.14-.66c-.06-.51-.59-.81-1.09-.92-2-.47-4.82.4-6.57,1.48-6.14,3.76-9.65,8.41-18.28,8.66-2.06.06-4.54-.77-4-2.76l1.06-3.93c-4.93,1-7.58,5.85-11.64,6.69-3.6.75-32.8-9-32.8-9l.82-34.51S78.09,260.71,67.76,248.61Z" style="fill:#c8856a"></path><path d="M67.76,248.13C61.76,250,53.29,252,49,262.67s-3.56,20.73-4,36.63-.08,34.92.55,38.5,4.51,5.32,11.15,7.54,22.38,5.38,29.51,5.46l5.08-21.73-18.61-6.43s1.15-27.38,1.45-33.55S78.43,257.71,67.76,248.13Z" style="fill:#ebebeb"></path><path d="M86.75,327.51l10.67,3.25a19.94,19.94,0,0,0-4.64,10.89c-.77,7.18.09,10.8.09,10.8L80.08,350.3S76.24,337,86.75,327.51Z" style="fill:#e0e0e0"></path><path d="M91.91,332.92a1.52,1.52,0,1,1-1.52-1.51A1.52,1.52,0,0,1,91.91,332.92Z" style="fill:#fafafa"></path><path d="M182.66,311.47a34.14,34.14,0,0,1-3.21,6.26c-.91,1.61-.78,3.48.3,3.94l-2.9,10.19s1.43.16,4.39-3.3,5-9.92,5.56-13.41,1-9.74-2-11.23Z" style="fill:#c8856a"></path></g></g></g></g><g id="freepik--speech-bubble-2--inject-6"><g id="freepik--speech-bubble--inject-6"><g id="freepik--speech-bubble--inject-6"><path d="M245.2,156.91l-4.86-9.13,3.91-11.28v-6.91l-12,6.91v6.9l5.14,8.91a.74.74,0,0,0,.35.31h0Z" style="fill:#92E3A9"></path><path d="M245.2,156.91l-4.86-9.13,3.91-11.28v-6.91l-12,6.91v6.9l5.14,8.91a.74.74,0,0,0,.35.31h0Z" style="opacity:0.1"></path><path d="M270.21,79.37a7.92,7.92,0,0,0-3.59-6.21l-.73-.43a7.94,7.94,0,0,0-7.17,0L216.8,96.86a8,8,0,0,0-3.59,6.21v46.69A8,8,0,0,0,216.8,156l.73.43a7.94,7.94,0,0,0,7.17,0l15.1-8.66,5.13,8.89a.77.77,0,0,0,1.39-.13l5.42-15.66,14.88-8.58a7.92,7.92,0,0,0,3.59-6.21Z" style="fill:#92E3A9"></path><path d="M270.21,79.37a7.92,7.92,0,0,0-3.59-6.21l-.73-.43a7.94,7.94,0,0,0-7.17,0L216.8,96.86a8,8,0,0,0-3.59,6.21v46.69A8,8,0,0,0,216.8,156l.73.43a7.94,7.94,0,0,0,7.17,0l15.1-8.66,5.13,8.89a.77.77,0,0,0,1.39-.13l5.42-15.66,14.88-8.58a7.92,7.92,0,0,0,3.59-6.21Z" style="fill:#fff;opacity:0.2"></path><path d="M213.21,149.76A8,8,0,0,0,216.8,156l.73.43a8,8,0,0,0,6.56.28c-1.69.64-3-.31-3-2.36V107.64a7.3,7.3,0,0,1,1-3.53l-7.9-4.57a7.3,7.3,0,0,0-1,3.53Z" style="fill:#92E3A9"></path><path d="M213.21,149.76A8,8,0,0,0,216.8,156l.73.43a8,8,0,0,0,6.56.28c-1.69.64-3-.31-3-2.36V107.64a7.3,7.3,0,0,1,1-3.53l-7.9-4.57a7.3,7.3,0,0,0-1,3.53Z" style="opacity:0.1"></path><path d="M270.09,78.35c-.42-1.52-1.81-2-3.46-1L224.7,101.44a7.09,7.09,0,0,0-2.53,2.67l-7.9-4.56a7.28,7.28,0,0,1,2.53-2.68l41.91-24.14a8,8,0,0,1,7.18,0l.74.44A7.89,7.89,0,0,1,270.09,78.35Z" style="fill:#fff;opacity:0.5"></path></g><path id="freepik--Off--inject-6" d="M248.44,100.74v5c3.6-.48,6.19,2.53,6.19,7.85,0,6.64-4,14.38-9,17.25s-9-.17-9-6.82a22.91,22.91,0,0,1,6.18-15v-5c-5.62,5-9.82,14.12-9.82,22.12,0,9.32,5.68,13.62,12.68,9.58s12.66-14.89,12.66-24.21C258.27,103.51,254.07,99.19,248.44,100.74Zm-2.84,15.81a4.35,4.35,0,0,0,1.82-3.48v-14c0-1.34-.81-1.95-1.82-1.37a4.38,4.38,0,0,0-1.82,3.48v14C243.78,116.52,244.6,117.13,245.6,116.55Z" style="fill:#fafafa"></path></g></g><g id="freepik--speech-bubble-1--inject-6"><g id="freepik--speech-bubble--inject-6"><path d="M93,138.54c0-14.49-16.38-26.23-36.6-26.23s-36.6,11.74-36.6,26.23,16.39,26.22,36.6,26.22c1.22,0,2.42,0,3.6-.13,4,7.51,10.8,8.8,16.09,8.21a9.91,9.91,0,0,1-5.65-10.08C83.72,158.81,93,149.45,93,138.54Z" style="fill:#fff"></path><path d="M73.89,173.34A15.28,15.28,0,0,1,59.82,165c-1.14.07-2.28.11-3.39.11-20.39,0-37-11.93-37-26.6s16.59-26.61,37-26.61,37,11.94,37,26.61c0,10.73-8.85,20.33-22.58,24.51a9.55,9.55,0,0,0,5.44,9.44.37.37,0,0,1,.22.4.36.36,0,0,1-.33.32A19.32,19.32,0,0,1,73.89,173.34ZM60,164.25a.38.38,0,0,1,.34.2c3.85,7.24,10.24,8.3,14.42,8.11a10.41,10.41,0,0,1-4.7-9.84.39.39,0,0,1,.27-.33c13.54-4,22.29-13.4,22.29-23.85,0-14.25-16.25-25.84-36.22-25.84s-36.22,11.59-36.22,25.84,16.25,25.84,36.22,25.84c1.17,0,2.37,0,3.58-.13Z" style="fill:#92E3A9"></path><circle cx="40.47" cy="139.28" r="3.72" style="fill:#92E3A9"></circle><path d="M60.15,139.28a3.72,3.72,0,1,1-3.72-3.72A3.71,3.71,0,0,1,60.15,139.28Z" style="fill:#92E3A9"></path><path d="M76.12,139.28a3.73,3.73,0,1,1-3.73-3.72A3.72,3.72,0,0,1,76.12,139.28Z" style="fill:#92E3A9"></path><g style="opacity:0.30000000000000004"><circle cx="40.47" cy="139.28" r="3.72" style="fill:#fff"></circle><path d="M60.15,139.28a3.72,3.72,0,1,1-3.72-3.72A3.71,3.71,0,0,1,60.15,139.28Z" style="fill:#fff"></path><path d="M76.12,139.28a3.73,3.73,0,1,1-3.73-3.72A3.72,3.72,0,0,1,76.12,139.28Z" style="fill:#fff"></path></g></g></g></svg>