<svg xmlns="http://www.w3.org/2000/svg" viewBox="0 0 500 500"><g id="freepik--background-complete--inject-62"><rect y="382.4" width="500" height="0.25" style="fill:#ebebeb"></rect><rect x="52.46" y="389.21" width="37.04" height="0.25" style="fill:#ebebeb"></rect><rect x="169" y="394.62" width="71" height="0.25" style="fill:#ebebeb"></rect><rect x="94.92" y="389.33" width="50.75" height="0.25" style="fill:#ebebeb"></rect><rect x="406.78" y="396.81" width="48.67" height="0.25" style="fill:#ebebeb"></rect><rect x="370.36" y="396.81" width="31.97" height="0.25" style="fill:#ebebeb"></rect><rect x="277.21" y="392.59" width="62.01" height="0.25" style="fill:#ebebeb"></rect><path d="M237,337.8H43.91a5.71,5.71,0,0,1-5.7-5.71V60.66A5.71,5.71,0,0,1,43.91,55H237a5.71,5.71,0,0,1,5.71,5.71V332.09A5.71,5.71,0,0,1,237,337.8ZM43.91,55.2a5.46,5.46,0,0,0-5.45,5.46V332.09a5.46,5.46,0,0,0,5.45,5.46H237a5.47,5.47,0,0,0,5.46-5.46V60.66A5.47,5.47,0,0,0,237,55.2Z" style="fill:#ebebeb"></path><path d="M453.31,337.8H260.21a5.72,5.72,0,0,1-5.71-5.71V60.66A5.72,5.72,0,0,1,260.21,55h193.1A5.71,5.71,0,0,1,459,60.66V332.09A5.71,5.71,0,0,1,453.31,337.8ZM260.21,55.2a5.47,5.47,0,0,0-5.46,5.46V332.09a5.47,5.47,0,0,0,5.46,5.46h193.1a5.47,5.47,0,0,0,5.46-5.46V60.66a5.47,5.47,0,0,0-5.46-5.46Z" style="fill:#ebebeb"></path><path d="M343.88,281.8h78a13.72,13.72,0,0,1,13.72,13.72V365.6a13.72,13.72,0,0,1-13.72,13.72h-78a0,0,0,0,1,0,0V281.8A0,0,0,0,1,343.88,281.8Z" transform="translate(779.5 661.12) rotate(180)" style="fill:#f0f0f0"></path><rect x="421.25" y="281.8" width="28.73" height="97.52" rx="13.72" transform="translate(871.24 661.12) rotate(-180)" style="fill:#f5f5f5"></rect><rect x="254.25" y="317.77" width="170.92" height="61.55" style="fill:#f0f0f0"></rect><path d="M433.54,382.4H180.92a2.81,2.81,0,0,1-2.82-2.81v-.27H357.56l78.79.27A2.81,2.81,0,0,1,433.54,382.4Z" style="fill:#e0e0e0"></path><path d="M197.24,241.34H361.08a19.13,19.13,0,0,1,19.13,19.13v71.21a0,0,0,0,1,0,0H178.1a0,0,0,0,1,0,0V260.47a19.13,19.13,0,0,1,19.13-19.13Z" style="fill:#e0e0e0"></path><path d="M210.36,241.34H376a18.21,18.21,0,0,1,18.21,18.21v72.14a0,0,0,0,1,0,0H192.15a0,0,0,0,1,0,0V259.55A18.21,18.21,0,0,1,210.36,241.34Z" style="fill:#f5f5f5"></path><path d="M417,312.15H267.26a8.64,8.64,0,0,0-8.64,8.64v7.79a8.64,8.64,0,0,0,8.64,8.64H417a12.53,12.53,0,0,0,12.53-12.54h0A12.53,12.53,0,0,0,417,312.15Z" style="fill:#e0e0e0"></path><path d="M162.06,281.8h78a13.72,13.72,0,0,1,13.72,13.72V365.6a13.72,13.72,0,0,1-13.72,13.72h-78a0,0,0,0,1,0,0V281.8A0,0,0,0,1,162.06,281.8Z" transform="translate(415.87 661.12) rotate(180)" style="fill:#f0f0f0"></path><rect x="239.44" y="281.8" width="28.73" height="97.52" rx="13.72" transform="translate(507.61 661.12) rotate(180)" style="fill:#f5f5f5"></rect><rect x="330.43" y="92.52" width="70.63" height="103.86" style="fill:#e0e0e0"></rect><rect x="332.36" y="92.52" width="72.95" height="103.86" style="fill:#f5f5f5"></rect><rect x="325.09" y="114.08" width="87.49" height="60.73" transform="translate(224.39 513.28) rotate(-90)" style="fill:#fff"></rect><path d="M361.28,148.67v6.66h0a15.11,15.11,0,0,0,15.11-15.11v-6.66h0A15.1,15.1,0,0,0,361.28,148.67Z" style="fill:#f5f5f5"></path><path d="M361.28,126.21v6.66h0a15.12,15.12,0,0,0,15.11-15.11v-6.67h0A15.11,15.11,0,0,0,361.28,126.21Z" style="fill:#f5f5f5"></path><path d="M361.28,171.14v6.66h0a15.12,15.12,0,0,0,15.11-15.12V156h0A15.11,15.11,0,0,0,361.28,171.14Z" style="fill:#f5f5f5"></path><rect x="144.19" y="22.01" width="73.28" height="230.66" transform="translate(318.17 -43.49) rotate(90)" style="fill:#ebebeb"></rect><rect x="28.16" y="136.65" width="73.28" height="1.39" transform="translate(202.15 72.54) rotate(90)" style="fill:#e0e0e0"></rect><rect x="76.87" y="112.07" width="207.92" height="50.54" style="fill:#f5f5f5"></rect><polygon points="126.7 162.61 109.43 162.61 122.95 112.07 140.22 112.07 126.7 162.61" style="fill:#fff"></polygon><polygon points="142.76 162.61 132.77 162.61 146.29 112.07 156.28 112.07 142.76 162.61" style="fill:#fff"></polygon><polygon points="229.69 162.61 219.7 162.61 233.22 112.07 243.21 112.07 229.69 162.61" style="fill:#fff"></polygon><polygon points="155.32 298.59 99.41 298.59 92.49 222.63 148.41 222.63 155.32 298.59" style="fill:#e6e6e6"></polygon><polygon points="158.22 298.59 102.3 298.59 95.39 222.63 151.31 222.63 158.22 298.59" style="fill:#f0f0f0"></polygon><polygon points="109.94 290.18 104.56 231.04 143.66 231.04 149.04 290.18 109.94 290.18" style="fill:#fff"></polygon><rect x="189.7" y="298.59" width="7.53" height="83.8" style="fill:#e6e6e6"></rect><rect x="194.37" y="298.59" width="5.23" height="83.8" style="fill:#f5f5f5"></rect><rect x="121.76" y="298.59" width="79.46" height="9.25" transform="translate(322.98 606.43) rotate(180)" style="fill:#f5f5f5"></rect><rect x="110.86" y="307.84" width="7.53" height="74.56" style="fill:#e6e6e6"></rect><rect x="115.54" y="307.84" width="5.23" height="74.56" style="fill:#f5f5f5"></rect><rect x="63.22" y="307.84" width="7.53" height="74.56" style="fill:#e6e6e6"></rect><rect x="67.9" y="307.84" width="5.23" height="74.56" style="fill:#f5f5f5"></rect><rect x="142.06" y="307.84" width="7.53" height="74.56" style="fill:#e6e6e6"></rect><rect x="146.73" y="307.84" width="5.23" height="74.56" style="fill:#f5f5f5"></rect><rect x="63.22" y="298.59" width="58.54" height="9.25" style="fill:#e6e6e6"></rect></g><g id="freepik--Shadow--inject-62"><ellipse id="freepik--path--inject-62" cx="250" cy="416.24" rx="193.89" ry="11.32" style="fill:#f5f5f5"></ellipse></g><g id="freepik--Character--inject-62"><path d="M328.36,136c-3.82-2.39-14.79,0-13,12s-12.31,8.93-9.23,22.89,28.07,34.7,43.46,20.62,2.42-20.29,2.71-37C352.5,144.58,348,126.8,328.36,136Z" style="fill:#263238"></path><path d="M351,190.91a.27.27,0,0,1-.19-.08.25.25,0,0,1,0-.36c9.48-9.42,7.29-15.16,4.52-22.42-1.54-4-3.27-8.56-3.42-14.47-.15-6.38-2.48-15.09-8.55-18.68-4.3-2.54-9.82-2.1-16.4,1.31a.26.26,0,0,1-.34-.11.25.25,0,0,1,.11-.35c6.75-3.5,12.43-3.93,16.9-1.29,6.24,3.7,8.64,12.6,8.8,19.1.14,5.83,1.86,10.33,3.38,14.3,2.83,7.44,5.08,13.32-4.64,23A.27.27,0,0,1,351,190.91Z" style="fill:#263238"></path><path d="M353.22,189.54s.16.23.27.38l.4.54q.44.56.93,1.11a25.42,25.42,0,0,0,2.14,2.14,34.85,34.85,0,0,0,5,3.81,50,50,0,0,0,5.62,3.09c1,.49,2,.88,3,1.32.19.09,0,0-.13.08s-.24.15-.13.09a4.28,4.28,0,0,0,1.14-1.53,20.39,20.39,0,0,0,1.13-2.73,54.38,54.38,0,0,0,1.63-6.37c.45-2.2.8-4.45,1.11-6.72s.59-4.57.84-6.82l4.07,0a93.07,93.07,0,0,1-.11,14.36,48.17,48.17,0,0,1-1.13,7.35,23.73,23.73,0,0,1-1.24,3.84,11.44,11.44,0,0,1-2.86,4.16,6.79,6.79,0,0,1-3.25,1.57,7.14,7.14,0,0,1-3.56-.31c-1.17-.42-2.36-.77-3.52-1.25a49.11,49.11,0,0,1-6.82-3.29,43.81,43.81,0,0,1-6.27-4.52,32.29,32.29,0,0,1-2.8-2.81c-.45-.5-.89-1-1.31-1.58l-.62-.88c-.22-.33-.37-.56-.68-1.1Z" style="fill:#ffc3bd"></path><path d="M351.85,185.84c9.35,6,8.59,9.64,8.59,9.64L354.56,204s-15-6-15.93-10.71C337.65,188.38,347.31,182.94,351.85,185.84Z" style="fill:#263238"></path><path d="M351.85,185.84c9.35,6,8.59,9.64,8.59,9.64L354.56,204s-15-6-15.93-10.71C337.65,188.38,347.31,182.94,351.85,185.84Z" style="fill:#fff;opacity:0.1"></path><path d="M361,194.64h0a.81.81,0,0,1,.2,1.12l-6,8.61a.79.79,0,0,1-1.12.2h0a.8.8,0,0,1-.19-1.12l6-8.61A.81.81,0,0,1,361,194.64Z" style="fill:#92E3A9"></path><path d="M376.83,179.89l-4.64-6.2,8.9-2.29s1.81,5.52-1.15,9.57Z" style="fill:#ffc3bd"></path><polygon points="372.44 166.07 379.85 164.82 381.09 171.4 372.19 173.69 372.44 166.07" style="fill:#ffc3bd"></polygon><polygon points="297.04 407.6 305.52 408.42 311.58 388.48 303.1 387.66 297.04 407.6" style="fill:#ffc3bd"></polygon><polygon points="243.09 378.13 249.38 384.03 262.96 369.11 256.67 363.21 243.09 378.13" style="fill:#ffc3bd"></polygon><path d="M252.29,381.2l-4.73-8.51a.68.68,0,0,0-.85-.32l-7.28,2.77a1.39,1.39,0,0,0-.67,2c1.7,2.94,2.67,4.28,4.74,8,1.28,2.3,3.77,7.59,5.54,10.77s5,1.61,4.56.12c-2-6.65-1.64-10.35-1.07-13.28A2.31,2.31,0,0,0,252.29,381.2Z" style="fill:#263238"></path><path d="M306.53,405.83H296.24a.86.86,0,0,0-.81.62l-2.24,8.14a1.29,1.29,0,0,0,1.26,1.63c3.62,0,5.34,0,9.86,0h13.83c3.76,0,4.54-3.8,3-4.14-7-1.54-11-3.67-13.15-5.7A2.06,2.06,0,0,0,306.53,405.83Z" style="fill:#263238"></path><polygon points="311.58 388.49 308.46 398.76 299.72 398.76 303.1 387.67 311.58 388.49" style="opacity:0.2"></polygon><polygon points="256.67 363.21 262.96 369.12 255.96 376.81 249.67 370.9 256.67 363.21" style="opacity:0.2"></polygon><path d="M351.85,185.84s3.4,2.31-18.15,49.13l-33.93-9.39c4.39-13.66,6.77-22.17,8-52.34a103.77,103.77,0,0,1,14.94,2.09,112.3,112.3,0,0,1,15.4,4.27A145.41,145.41,0,0,1,351.85,185.84Z" style="fill:#263238"></path><path d="M351.85,185.84s3.4,2.31-18.15,49.13l-33.93-9.39c4.39-13.66,6.77-22.17,8-52.34a103.77,103.77,0,0,1,14.94,2.09,112.3,112.3,0,0,1,15.4,4.27A145.41,145.41,0,0,1,351.85,185.84Z" style="fill:#fff;opacity:0.1"></path><path d="M329.05,158.4c-.4,5.23-1.95,14.58-6.33,16.93,0,0-2.55,8.67,8.51,11.86,9.37,2.69,6.89-7.59,6.89-7.59-5.16-2.85-2-7.9-1-13.56Z" style="fill:#ffc3bd"></path><path d="M329,158.41c-.32,4.19-1.37,11.07-4.06,14.81,3.12.31,8-.64,9.44-3a33.77,33.77,0,0,0,1.73-5.11Z" style="opacity:0.2"></path><path d="M342.77,150.83c0,8.6.15,12.25-3.92,16.9-6.13,7-16.69,5.09-19.24-3.35-2.29-7.59-1.87-20.38,6.33-24.29A11.73,11.73,0,0,1,342.77,150.83Z" style="fill:#ffc3bd"></path><path d="M325,146.06c4.83,6.75,21.08,16.13,22.17,7.09s-7.21-18-15.43-17.11S320.87,140.32,325,146.06Z" style="fill:#263238"></path><path d="M346.33,158.86a6.27,6.27,0,0,1-3.61,3.17c-2.09.69-3.24-1.15-2.75-3.18.45-1.83,2.07-4.39,4.22-4.2A2.81,2.81,0,0,1,346.33,158.86Z" style="fill:#ffc3bd"></path><path d="M333.7,235s12.08,48.93,4.16,85.94c-5.31,24.79-24.45,74.87-24.45,74.87l-15-.38s14.49-52.55,17.48-73.22c5.13-35.36-7.08-94.09-7.08-94.09Z" style="fill:#92E3A9"></path><path d="M320.23,242l-7.48,11.8A363.36,363.36,0,0,1,317,296.06C327.55,277.23,322.57,252,320.23,242Z" style="opacity:0.2"></path><polygon points="316.09 396.56 297.04 396.09 298.32 389.31 317.48 390.75 316.09 396.56" style="fill:#263238"></polygon><path d="M326.26,233s-7,53.5-22.07,83.9c-12.19,24.55-44.72,59.5-44.72,59.5l-8.32-8.57s22-38,31-54.29c22.22-40,2.53-75.85,17.59-88Z" style="fill:#92E3A9"></path><polygon points="260.31 377.57 249.58 367.1 253.14 362.26 264.84 374.35 260.31 377.57" style="fill:#263238"></polygon><path d="M299.81,223.44l-2.37,2.62c-.18.2,0,.52.42.63l35.59,9.85c.3.08.6,0,.67-.18l1.15-3c.08-.2-.14-.45-.47-.55l-34.36-9.51A.65.65,0,0,0,299.81,223.44Z" style="fill:#92E3A9"></path><path d="M299.81,223.44l-2.37,2.62c-.18.2,0,.52.42.63l35.59,9.85c.3.08.6,0,.67-.18l1.15-3c.08-.2-.14-.45-.47-.55l-34.36-9.51A.65.65,0,0,0,299.81,223.44Z" style="fill:#fff;opacity:0.5"></path><path d="M303.36,228.56l-.92-.25c-.18-.05-.29-.19-.25-.3l1.52-3.82c.05-.12.24-.17.42-.12l.92.26c.18,0,.3.18.25.3l-1.52,3.82A.36.36,0,0,1,303.36,228.56Z" style="fill:#92E3A9"></path><path d="M330.77,236.15l-.92-.25c-.18-.05-.3-.19-.25-.3l1.52-3.83a.36.36,0,0,1,.42-.11l.92.26c.18.05.29.18.25.29L331.19,236C331.14,236.15,331,236.2,330.77,236.15Z" style="fill:#92E3A9"></path><path d="M317.07,232.36l-.92-.26c-.19,0-.3-.18-.26-.29l1.53-3.83c0-.11.23-.16.41-.11l.92.25c.19,0,.3.19.26.3l-1.53,3.83C317.44,232.36,317.25,232.41,317.07,232.36Z" style="fill:#92E3A9"></path><path d="M329.91,154c0,.7-.3,1.29-.75,1.31s-.86-.51-.91-1.21.3-1.29.76-1.32S329.87,153.29,329.91,154Z" style="fill:#263238"></path><path d="M322,154.45c0,.7-.3,1.29-.76,1.32s-.85-.52-.9-1.22.3-1.29.76-1.31S322,153.76,322,154.45Z" style="fill:#263238"></path><path d="M321.32,153.26l-1.7-.38S320.55,154.14,321.32,153.26Z" style="fill:#263238"></path><path d="M324.17,155.53a19,19,0,0,1-2.22,4.6,3,3,0,0,0,2.51.32Z" style="fill:#ed847e"></path><path d="M328.35,162.83a6.15,6.15,0,0,1-1.27.19.16.16,0,0,1-.18-.16.17.17,0,0,1,.16-.18,5.62,5.62,0,0,0,4.41-2.44.17.17,0,0,1,.29.17A5.68,5.68,0,0,1,328.35,162.83Z" style="fill:#263238"></path><path d="M332.52,148.89a.33.33,0,0,1-.32-.09,3.31,3.31,0,0,0-2.87-1,.36.36,0,0,1-.41-.26.35.35,0,0,1,.26-.41,4,4,0,0,1,3.5,1.16.36.36,0,0,1,0,.49A.42.42,0,0,1,332.52,148.89Z" style="fill:#263238"></path><path d="M318.58,149.9a.34.34,0,0,1-.35,0,.34.34,0,0,1-.07-.47,4,4,0,0,1,3.27-1.7.34.34,0,0,1,.32.36.34.34,0,0,1-.36.32,3.34,3.34,0,0,0-2.68,1.42A.33.33,0,0,1,318.58,149.9Z" style="fill:#263238"></path><path d="M308.57,186.13c-.87,1.32-1.66,2.38-2.55,3.5s-1.76,2.17-2.68,3.21a73.23,73.23,0,0,1-5.88,5.94,62.89,62.89,0,0,1-6.54,5.28c-1.13.84-2.34,1.57-3.52,2.33l-1.85,1.06-.92.52c-.34.18-.78.42-1.2.59a10.31,10.31,0,0,1-5.92.78,11.21,11.21,0,0,1-5.14-2.44,17.75,17.75,0,0,1-3.26-3.58,28.89,28.89,0,0,1-2.25-3.82A58.15,58.15,0,0,1,262,183.61l4-.92c.83,2.38,1.76,4.85,2.81,7.16a48.82,48.82,0,0,0,3.47,6.67,17.33,17.33,0,0,0,4.32,5,4.06,4.06,0,0,0,2,.81,3.39,3.39,0,0,0,1.82-.44,5.32,5.32,0,0,0,.56-.33l.78-.5,1.55-1c1-.74,2-1.43,3-2.22a73.3,73.3,0,0,0,5.66-4.92c1.83-1.73,3.54-3.58,5.19-5.48.83-.95,1.64-1.91,2.42-2.89s1.56-2,2.19-2.9Z" style="fill:#ffc3bd"></path><path d="M266.77,186.38l.88-9.33-8.39,3.43s1,4.69,4.2,6.37Z" style="fill:#ffc3bd"></path><polygon points="264.97 172.01 258.48 170.6 259.26 180.48 267.65 177.05 264.97 172.01" style="fill:#ffc3bd"></polygon><path d="M307.78,173.24c-4.37,0-14.89,16.68-14.89,16.68l7.43,7.7s14-9.44,14.55-15C315.35,177.84,313.34,173.29,307.78,173.24Z" style="fill:#263238"></path><path d="M307.78,173.24c-4.37,0-14.89,16.68-14.89,16.68l7.43,7.7s14-9.44,14.55-15C315.35,177.84,313.34,173.29,307.78,173.24Z" style="fill:#fff;opacity:0.1"></path><path d="M301,198h0a.8.8,0,0,1-1.13,0l-7.51-7.36a.8.8,0,0,1,0-1.13h0a.81.81,0,0,1,1.14,0l7.5,7.35A.81.81,0,0,1,301,198Z" style="fill:#92E3A9"></path><path d="M254,385.78a1.23,1.23,0,0,0,.75-.28.64.64,0,0,0,.29-.61c-.09-1.08-2.83-2.55-3.15-2.72a.17.17,0,0,0-.18,0,.16.16,0,0,0-.06.18c.31,1.1,1,3,2,3.35A1,1,0,0,0,254,385.78ZM252,382.67c1,.54,2.56,1.58,2.61,2.25a.3.3,0,0,1-.16.3.79.79,0,0,1-.77.18C253.14,385.2,252.52,384.19,252,382.67Z" style="fill:#92E3A9"></path><path d="M254.37,383.1a2,2,0,0,0,1.23-.31.67.67,0,0,0,.16-.84,1,1,0,0,0-.64-.61c-1.17-.41-3.35.78-3.44.83a.19.19,0,0,0-.09.15.18.18,0,0,0,.08.15A6.25,6.25,0,0,0,254.37,383.1Zm.17-1.51a1.4,1.4,0,0,1,.47.08.65.65,0,0,1,.43.41c.11.26,0,.38-.06.45-.51.43-2.31.19-3.24-.21A6.46,6.46,0,0,1,254.54,381.59Z" style="fill:#92E3A9"></path><path d="M311.09,407.49a3.42,3.42,0,0,0,2-.47,1.25,1.25,0,0,0,.5-1,.54.54,0,0,0-.24-.52c-.93-.64-4.67,1.08-5.09,1.28a.17.17,0,0,0-.1.18.16.16,0,0,0,.13.14A13.43,13.43,0,0,0,311.09,407.49Zm1.64-1.77a.79.79,0,0,1,.42.09c.05,0,.1.09.09.23a.87.87,0,0,1-.37.7c-.84.64-2.89.37-4,.17A12.86,12.86,0,0,1,312.73,405.72Z" style="fill:#92E3A9"></path><path d="M308.32,407.14h.06c1.13-.46,3.48-2.35,3.35-3.29,0-.2-.16-.45-.67-.51-2-.23-2.87,3.44-2.91,3.6a.18.18,0,0,0,.06.17A.21.21,0,0,0,308.32,407.14Zm2.56-3.48H311c.35,0,.37.17.38.22.08.6-1.6,2.13-2.82,2.77C308.83,405.8,309.59,403.66,310.88,403.66Z" style="fill:#92E3A9"></path><path d="M329.21,152.8l-1.7-.38S328.44,153.68,329.21,152.8Z" style="fill:#263238"></path></g><g id="freepik--Smartphone--inject-62"><rect x="125.33" y="108.59" width="141.45" height="298.74" rx="13.96" transform="translate(413.82 497.88) rotate(175.01)" style="fill:#92E3A9"></rect><path d="M122.3,208.89h0a4,4,0,0,0,3.61-4.31L122.8,169a4,4,0,0,0-4.3-3.62h0a4,4,0,0,0-3.62,4.31L118,205.27A4,4,0,0,0,122.3,208.89Z" style="fill:#92E3A9"></path><rect x="256.27" y="153.04" width="7.29" height="27.72" rx="2.95" transform="translate(533.37 310.54) rotate(175.01)" style="fill:#263238"></rect><rect x="259.46" y="189.56" width="7.29" height="27.72" rx="2.95" transform="matrix(-1, 0.09, -0.09, -1, 542.92, 383.16)" style="fill:#263238"></rect><rect x="127.71" y="108.39" width="141.45" height="298.74" rx="13.96" transform="translate(418.55 497.26) rotate(175.01)" style="fill:#263238"></rect><path d="M143.75,394.68,276,383.13a2.63,2.63,0,0,0,2.38-2.84L256,123.69a2.63,2.63,0,0,0-2.83-2.38L120.87,132.87a2.61,2.61,0,0,0-2.37,2.83l22.42,256.61A2.6,2.6,0,0,0,143.75,394.68Z" style="fill:#92E3A9;opacity:0.4"></path><polygon points="235.69 122.84 219.07 388.1 191.43 390.52 208.05 125.25 235.69 122.84" style="fill:#92E3A9;opacity:0.30000000000000004"></polygon><rect x="170.79" y="115.54" width="30.73" height="3.53" rx="1.19" transform="translate(-9.5 16.65) rotate(-4.99)" style="fill:#fff;opacity:0.2"></rect><path d="M173.8,217.12H311.41a13.53,13.53,0,0,1,13.49,13.49v67.5a13.54,13.54,0,0,1-13.49,13.5H263.79L242.6,332.8l-21.19-21.19H173.8a13.54,13.54,0,0,1-13.5-13.5v-67.5A13.53,13.53,0,0,1,173.8,217.12Z" style="fill:#92E3A9"></path><path d="M173.8,217.12H311.41a13.53,13.53,0,0,1,13.49,13.49v67.5a13.54,13.54,0,0,1-13.49,13.5H263.79L242.6,332.8l-21.19-21.19H173.8a13.54,13.54,0,0,1-13.5-13.5v-67.5A13.53,13.53,0,0,1,173.8,217.12Z" style="fill:#fff;opacity:0.30000000000000004"></path><path d="M182.62,240.51v47.7a7,7,0,0,0,6.9,7.06H295.68a7,7,0,0,0,6.9-7.06v-47.7a7.25,7.25,0,0,0-.5-2.64,6.94,6.94,0,0,0-6.4-4.42H189.52a6.92,6.92,0,0,0-6.39,4.42A7,7,0,0,0,182.62,240.51Z" style="fill:#fff"></path><path d="M183.13,237.87l51.32,22.35a20.38,20.38,0,0,0,16.31,0l51.32-22.35a6.94,6.94,0,0,0-6.4-4.42H189.52A6.92,6.92,0,0,0,183.13,237.87Z" style="opacity:0.1"></path><circle cx="170.92" cy="223.11" r="20.52" transform="translate(-107.7 186.21) rotate(-45)" style="fill:#de5753"></circle><path d="M174.88,235.62H170.1v-18a16.49,16.49,0,0,1-6.17,3.62v-4.33a13.94,13.94,0,0,0,4.06-2.33,8.81,8.81,0,0,0,3-4h3.88Z" style="fill:#fff"></path><path d="M286.37,95.92a3,3,0,0,1-2.94-2.54,34.45,34.45,0,0,0-39.14-28.89,3,3,0,0,1-.88-5.89,40.4,40.4,0,0,1,45.9,33.9,3,3,0,0,1-2.5,3.38A2.25,2.25,0,0,1,286.37,95.92Z" style="fill:#92E3A9"></path><path d="M271.58,98.14a3,3,0,0,1-2.94-2.53,19.47,19.47,0,0,0-22.12-16.34,3,3,0,0,1-.89-5.89,25.43,25.43,0,0,1,28.9,21.34,3,3,0,0,1-2.5,3.39A3.4,3.4,0,0,1,271.58,98.14Z" style="fill:#92E3A9"></path><path d="M256.8,100.37a3,3,0,0,1-2.94-2.54,4.49,4.49,0,0,0-5.12-3.78,3,3,0,0,1-.88-5.88A10.44,10.44,0,0,1,259.75,97a3,3,0,0,1-2.5,3.38A2.28,2.28,0,0,1,256.8,100.37Z" style="fill:#92E3A9"></path></g></svg>