<svg xmlns="http://www.w3.org/2000/svg" viewBox="0 0 500 500"><g id="freepik--Floor--inject-2"><path id="freepik--floor--inject-2" d="M413.69,260.85c-90.45-52-237.11-52-327.56,0s-90.45,136.34,0,188.35,237.11,52,327.56,0S504.14,312.86,413.69,260.85Z" style="fill:#f5f5f5"></path></g><g id="freepik--Plants--inject-2"><g id="freepik--plants--inject-2"><path d="M45.65,348.17l7.59-4.38s1.86-16.24.62-28.82c-1.74-17.68-13.15-39-26.77-34s6.24,23,10.66,38S45.65,348.17,45.65,348.17Z" style="fill:#92E3A9"></path><path d="M45.65,348.17l7.59-4.38s1.86-16.24.62-28.82c-1.74-17.68-13.15-39-26.77-34s6.24,23,10.66,38S45.65,348.17,45.65,348.17Z" style="opacity:0.15"></path><path d="M49.64,346.33h0a.46.46,0,0,1-.45-.48c1.33-39.28-18.22-59-18.42-59.23a.46.46,0,0,1,.65-.65c.2.2,20,20.24,18.69,59.92A.46.46,0,0,1,49.64,346.33Z" style="fill:#fff"></path><path d="M40.88,350.9l5.4-3.11a59.49,59.49,0,0,0-4.55-24.69c-4.75-11.79-16.56-21.57-22.5-19.51s-5.79,6.26-2.89,10.68S36.84,329.21,40.88,350.9Z" style="fill:#92E3A9"></path><path d="M43.73,349.72h0a.46.46,0,0,1-.46-.46c.11-24.84-23.21-41.62-23.45-41.79a.47.47,0,0,1-.11-.64.45.45,0,0,1,.64-.11c.24.17,23.95,17.23,23.84,42.54A.47.47,0,0,1,43.73,349.72Z" style="fill:#fff"></path></g><g id="freepik--plants--inject-2"><path d="M447.37,313.93l-6-3.11s.09-20.48,4.88-32.81c6.65-17.09,18.65-25,25.58-20.28,4.05,2.75,3.93,8.3-6.34,16.93C459.44,279.75,450.84,297.24,447.37,313.93Z" style="fill:#92E3A9"></path><g style="opacity:0.15"><path d="M447.37,313.93l-6-3.11s.09-20.48,4.88-32.81c6.65-17.09,18.65-25,25.58-20.28,4.05,2.75,3.93,8.3-6.34,16.93C459.44,279.75,450.84,297.24,447.37,313.93Z"></path></g><path d="M446.59,300.48h.05a.42.42,0,0,0,.44-.38c1.34-17.31,12.1-34.25,21.31-40a.4.4,0,0,0,.12-.57.4.4,0,0,0-.56-.12c-9.38,5.87-20.33,23.08-21.69,40.65A.43.43,0,0,0,446.59,300.48Z" style="fill:#fff"></path><path d="M459.48,320.69c.73.66,3.52-.66,4.28-1a8.19,8.19,0,0,0,3.32-2.47,7.58,7.58,0,0,0,1.64-4.36,17.53,17.53,0,0,0,0-2.51c-.06-.83-.11-1.65-.17-2.47a6.15,6.15,0,0,1,.17-2.42c.55-1.54,2.2-2.35,3.69-3,1.65-.75,3.43-1.83,3.84-3.75a6.88,6.88,0,0,0-.81-4.37,39.51,39.51,0,0,1-2-3.72,4.76,4.76,0,0,1,.7-3.71c.67-1.16,1.58-2.16,2.3-3.29s1.55-3.11.75-4.56c-1.8-3.24-5.4-3.13-8.46-1.9-2.05.83-4,2-6.12,2.47-2.91.64-6.17,0-8.72,1.5a5.85,5.85,0,0,0-2.79,5.11c.06,1.9,1.06,3.84.41,5.63s-2.39,2.51-3.75,3.65a11,11,0,0,0-3.36,10.37,24.71,24.71,0,0,0,3,8S458.8,320.08,459.48,320.69Z" style="fill:#92E3A9"></path><path d="M452.4,314.16h0a.41.41,0,0,0,.46-.32c2.64-15.14,13.31-30.17,19.5-33.87a.38.38,0,0,0,.14-.53.39.39,0,0,0-.53-.13c-6.32,3.77-17.2,19-19.88,34.4A.39.39,0,0,0,452.4,314.16Z" style="fill:#fff"></path><path d="M458.81,296.34a.2.2,0,0,0,.11,0,51.27,51.27,0,0,1,11.28.62.39.39,0,0,0,.44-.32.37.37,0,0,0-.31-.45,53,53,0,0,0-11.47-.62.4.4,0,0,0-.36.42A.39.39,0,0,0,458.81,296.34Z" style="fill:#fff"></path></g></g><g id="freepik--Stage--inject-2"><g id="freepik--Pallet--inject-2"><polygon points="39.27 340.16 231.58 451.19 463.35 317.38 271.03 206.35 39.27 340.16" style="fill:#455a64"></polygon><polygon points="39.27 340.16 39.27 351.54 231.58 462.58 231.58 451.19 39.27 340.16" style="fill:#263238"></polygon><polygon points="463.35 317.38 463.35 328.77 231.58 462.58 231.58 451.19 463.35 317.38" style="fill:#37474f"></polygon></g></g><g id="freepik--Character--inject-2"><g id="freepik--character--inject-2"><g id="freepik--Chair--inject-2"><path d="M177.6,327a4.55,4.55,0,0,0,.12,1.09,2.48,2.48,0,0,0,1,1.53l0,0a2.85,2.85,0,0,0,3-.23,9.2,9.2,0,0,0,4.17-7.22,3,3,0,0,0-1.18-2.64h0l-.2-.11h0a2.52,2.52,0,0,0-1.77-.07,4.43,4.43,0,0,0-1,.44A9.19,9.19,0,0,0,177.6,327Z" style="fill:#37474f"></path><path d="M178.74,318a3.84,3.84,0,0,1,1.85-.56,2.22,2.22,0,0,1,1.17.33l.11.06,2.68,1.55a2.52,2.52,0,0,0-1.77-.07,4.43,4.43,0,0,0-1,.44,9.19,9.19,0,0,0-4.16,7.2,4.55,4.55,0,0,0,.12,1.09,2.48,2.48,0,0,0,1,1.53l-2.76-1.6,0,0-.24-.14-.07-.05a3.07,3.07,0,0,1-1-2.55A9.2,9.2,0,0,1,178.74,318Z" style="fill:#263238"></path><path d="M222.65,302.73a5.22,5.22,0,0,0,.11,1.09,2.56,2.56,0,0,0,1,1.53l0,0a2.89,2.89,0,0,0,3-.24,9.18,9.18,0,0,0,4.16-7.21,3,3,0,0,0-1.17-2.64h0l-.2-.12h0a2.58,2.58,0,0,0-1.77-.07,5,5,0,0,0-1,.45A9.17,9.17,0,0,0,222.65,302.73Z" style="fill:#37474f"></path><path d="M223.78,293.78a3.76,3.76,0,0,1,1.86-.56,2.13,2.13,0,0,1,1.17.33l.11.05,2.68,1.55a2.58,2.58,0,0,0-1.77-.07,5,5,0,0,0-1,.45,9.17,9.17,0,0,0-4.16,7.2,5.22,5.22,0,0,0,.11,1.09,2.56,2.56,0,0,0,1,1.53l-2.76-1.6,0,0-.24-.14-.07,0a3.08,3.08,0,0,1-1-2.56A9.19,9.19,0,0,1,223.78,293.78Z" style="fill:#263238"></path><path d="M214.61,336.41a5.19,5.19,0,0,1-.12,1.09,2.51,2.51,0,0,1-1,1.53l0,0a2.87,2.87,0,0,1-3-.23,9.22,9.22,0,0,1-4.17-7.22,3,3,0,0,1,1.18-2.64h0l.2-.12h0a2.67,2.67,0,0,1,1.78-.07,5.5,5.5,0,0,1,1,.45A9.17,9.17,0,0,1,214.61,336.41Z" style="fill:#37474f"></path><path d="M213.47,327.46a3.84,3.84,0,0,0-1.85-.56,2.22,2.22,0,0,0-1.17.33l-.11.06-2.69,1.54a2.67,2.67,0,0,1,1.78-.07,5.5,5.5,0,0,1,1,.45,9.17,9.17,0,0,1,4.16,7.2,5.19,5.19,0,0,1-.12,1.09,2.51,2.51,0,0,1-1,1.53l2.75-1.6.05,0,.24-.14.07,0a3.08,3.08,0,0,0,1-2.56A9.2,9.2,0,0,0,213.47,327.46Z" style="fill:#263238"></path><path d="M243.85,322.09a5.22,5.22,0,0,1-.11,1.09,2.51,2.51,0,0,1-1,1.52l0,0a2.88,2.88,0,0,1-3-.24,9.19,9.19,0,0,1-4.17-7.21,3,3,0,0,1,1.18-2.64h0l.19-.12h0a2.58,2.58,0,0,1,1.77-.07,4.49,4.49,0,0,1,1,.45A9.17,9.17,0,0,1,243.85,322.09Z" style="fill:#37474f"></path><path d="M242.71,313.14a3.75,3.75,0,0,0-1.85-.57,2.22,2.22,0,0,0-1.17.33l-.11.06-2.68,1.55a2.58,2.58,0,0,1,1.77-.07,4.49,4.49,0,0,1,1,.45,9.17,9.17,0,0,1,4.16,7.2,5.22,5.22,0,0,1-.11,1.09,2.51,2.51,0,0,1-1,1.52l2.76-1.59,0,0,.24-.15.07,0a3.08,3.08,0,0,0,1-2.56A9.18,9.18,0,0,0,242.71,313.14Z" style="fill:#263238"></path><path d="M187.33,304.52a5.19,5.19,0,0,1-.12,1.09,2.56,2.56,0,0,1-1,1.53l0,0a2.89,2.89,0,0,1-3-.23,9.21,9.21,0,0,1-4.16-7.22,3,3,0,0,1,1.17-2.64h0l.2-.12h0a2.58,2.58,0,0,1,1.77-.07,5,5,0,0,1,1,.45A9.18,9.18,0,0,1,187.33,304.52Z" style="fill:#37474f"></path><path d="M186.19,295.57a3.76,3.76,0,0,0-1.85-.56,2.14,2.14,0,0,0-1.18.33l-.1.05-2.69,1.55a2.58,2.58,0,0,1,1.77-.07,5,5,0,0,1,1,.45,9.18,9.18,0,0,1,4.17,7.2,5.19,5.19,0,0,1-.12,1.09,2.56,2.56,0,0,1-1,1.53l2.76-1.6.05,0,.23-.14a.18.18,0,0,0,.07-.05,3.05,3.05,0,0,0,1-2.56A9.19,9.19,0,0,0,186.19,295.57Z" style="fill:#263238"></path><polygon points="212.19 295.72 227.05 291.46 227.05 294.63 212.19 303.21 212.19 295.72" style="fill:#f0f0f0"></polygon><polygon points="212.19 295.72 210.72 294.82 225.63 290.75 227.05 291.46 212.19 295.72" style="fill:#fafafa"></polygon><polygon points="205.75 305.19 184.68 297.3 184.68 294.08 205.75 295.97 205.75 305.19" style="fill:#f0f0f0"></polygon><polygon points="184.68 294.08 186.22 293.67 207.01 295.02 205.75 295.97 184.68 294.08" style="fill:#fafafa"></polygon><path d="M205.19,304.18c0,2.39,7.33,2.39,7.33,0V283.34h-7.33Z" style="fill:#fafafa"></path><path d="M210.68,298.76l4,26.17H212l-3.77-26.17A4.66,4.66,0,0,0,210.68,298.76Z" style="fill:#fafafa"></path><polygon points="208.19 298.75 208.19 305.94 211.96 329.36 211.96 324.93 208.19 298.75" style="fill:#f0f0f0"></polygon><rect x="211.96" y="324.93" width="2.76" height="4.43" style="fill:#e0e0e0"></rect><polygon points="206.94 305.73 179.75 319.98 179.75 315.59 206.94 298.78 206.94 305.73" style="fill:#f0f0f0"></polygon><path d="M206.93,298.78a3.13,3.13,0,0,1-1.74-.79l-27.13,16.45,1.69,1.15Z" style="fill:#fafafa"></path><polygon points="179.75 319.98 179.75 315.59 178.06 314.44 178.06 318.7 179.75 319.98" style="fill:#e0e0e0"></polygon><polygon points="241.2 314.94 212.16 305 212.16 298.48 241.2 310.56 241.2 314.94" style="fill:#f0f0f0"></polygon><path d="M212.16,298.48c.24-.06.34-.49.36-1.13l29.54,12.85-.86.36Z" style="fill:#fafafa"></path><polygon points="242.06 310.2 242.06 314.45 241.2 314.94 241.2 310.56 242.06 310.2" style="fill:#e0e0e0"></polygon><rect x="211.96" y="324.93" width="2.76" height="4.43" style="fill:#f0f0f0;opacity:0.1"></rect><polygon points="179.75 319.98 179.75 315.59 178.06 314.44 178.06 318.7 179.75 319.98" style="fill:#f0f0f0;opacity:0.1"></polygon><polygon points="242.06 310.2 242.06 314.45 241.2 314.94 241.2 310.56 242.06 310.2" style="opacity:0.1"></polygon><path d="M215.06,247H202.65v43c0,3.57,12.41,3.57,12.41,0Z" style="fill:#f0f0f0"></path><g id="freepik--chair--inject-2"><path d="M164.83,241.07l47.57-24.85s3.34-16.27-7.93-34c0,0,3.36-31.61-2.27-42.12-4.12-8-9-6.92-9-6.92l-54,24.39Z" style="fill:#92E3A9"></path><path d="M164.83,241.07l47.57-24.85s3.34-16.27-7.93-34c0,0,3.36-31.61-2.27-42.12-4.12-8-9-6.92-9-6.92l-54,24.39Z" style="opacity:0.30000000000000004"></path><path d="M193.15,133.17l-54,24.39,1.77,5.77L200,136.65C196.5,132.43,193.15,133.17,193.15,133.17Z" style="fill:#92E3A9"></path><path d="M193.15,133.17l-54,24.39,1.77,5.77L200,136.65C196.5,132.43,193.15,133.17,193.15,133.17Z" style="opacity:0.15"></path><path d="M266.77,236.49v2.62a9.48,9.48,0,0,1-4.63,7.66l-53,27.84a10.53,10.53,0,0,1-9.15-.19l-30.59-17.66a10,10,0,0,1-4.53-7.84V246.3a9.45,9.45,0,0,1,4.63-7.65l50.2-26.22a11.44,11.44,0,0,1,9.31-.08l33.13,16.57A9.26,9.26,0,0,1,266.77,236.49Z" style="fill:#92E3A9"></path><path d="M266.77,236.49v2.62a9.48,9.48,0,0,1-4.63,7.66l-53,27.84a10.53,10.53,0,0,1-9.15-.19l-30.59-17.66a10,10,0,0,1-4.53-7.84V246.3a9.45,9.45,0,0,1,4.63-7.65l50.2-26.22a11.44,11.44,0,0,1,9.31-.08l33.13,16.57A9.26,9.26,0,0,1,266.77,236.49Z" style="opacity:0.1"></path><path d="M266.77,236.49v2.62a9.48,9.48,0,0,1-4.63,7.66l-53,27.84a10.53,10.53,0,0,1-9.15-.19l-30.59-17.66a10,10,0,0,1-4.53-7.84V246.3a9.45,9.45,0,0,1,4.63-7.65l50.2-26.22a11.44,11.44,0,0,1,9.31-.08l33.13,16.57A9.26,9.26,0,0,1,266.77,236.49Z" style="opacity:0.25"></path><path d="M209.1,261.53l53-27.84c2.56-1.34,2.54-3.48,0-4.77L229,212.35a11.44,11.44,0,0,0-9.31.08l-50.2,26.22c-2.56,1.33-2.6,3.59-.1,5L200,261.34A10.53,10.53,0,0,0,209.1,261.53Z" style="fill:#92E3A9"></path><path d="M209.1,261.53l53-27.84c2.56-1.34,2.54-3.48,0-4.77L229,212.35a11.44,11.44,0,0,0-9.31.08l-50.2,26.22c-2.56,1.33-2.6,3.59-.1,5L200,261.34A10.53,10.53,0,0,0,209.1,261.53Z" style="opacity:0.15"></path><path d="M205.7,275.52a10.27,10.27,0,0,1-5.76-1.1l-30.58-17.65a10,10,0,0,1-4.53-7.85v-2.63a9.57,9.57,0,0,1,4-7.24c-1.88,1.35-1.7,3.33.56,4.63l30.58,17.67a10,10,0,0,0,4.68,1.13Z" style="opacity:0.2"></path><path d="M193.15,133.17s7.81-5.3,16.06-.54,5.52,20.77,4.64,31.09-1.17,28.3,6.05,34.84,30.89-2.15,41.21-2.15L252,230c-10-5.46-26.09-11.07-39.6-13.75,0,0,.44-20.93-9.15-32.88,0,0,3.54-8.37,1.22-25.14C202.33,142.68,199.43,136.8,193.15,133.17Z" style="fill:#92E3A9"></path><path d="M193.15,133.17s7.81-5.3,16.06-.54,5.52,20.77,4.64,31.09-1.17,28.3,6.05,34.84,30.89-2.15,41.21-2.15L252,230c-10-5.46-26.09-11.07-39.6-13.75,0,0,.44-20.93-9.15-32.88,0,0,3.54-8.37,1.22-25.14C202.33,142.68,199.43,136.8,193.15,133.17Z" style="opacity:0.45"></path><path d="M252,230c-.46-3-2.37-20.27.86-27.79,2.8-6.54,10.15-6.92,12.46-4.12s.25,6.2-3.43,11c-3.1,4.05-4.22,7.84-4.22,17.64Z" style="fill:#92E3A9"></path><path d="M252,230c-.46-3-2.37-20.27.86-27.79,2.8-6.54,10.15-6.92,12.46-4.12s.25,6.2-3.43,11c-3.1,4.05-4.22,7.84-4.22,17.64Z" style="opacity:0.1"></path><path d="M252,230c-.46-3-2.37-20.27.86-27.79,2.8-6.54,10.15-6.92,12.46-4.12s.25,6.2-3.43,11c-3.1,4.05-4.22,7.84-4.22,17.64Z" style="opacity:0.25"></path></g></g><g id="freepik--character--inject-2"><path d="M256.43,167c2.41-2.42,6.53,1.31,9.33,5.56,2.38,3.61,3.8,7.49,1.32,9.54s-6.9-2.23-9-5S254.68,168.71,256.43,167Z" style="fill:#263238"></path><path d="M262.42,181.36c-2.5,3.16-7.23,8.42-8.23,9.38-3.49,3.35-6.38,5.53-13,.62s-27-24-27-24l-6.24-20.69c5.27.42,10.05-.15,14.75,4.62,3.9,4,24.12,25.34,24.12,25.34l3.94-3.64" style="fill:#ffa8a7"></path><path d="M274.66,148.28c2.9-.61,7.14-1.9,9.69-.6s2.79,2.22,2.79,2.22l-3.35,3.84Z" style="fill:#f28f8f"></path><path d="M268.75,153.2c-1.79,2.17-13.86,15.88-18.38,20.12l10.36,10.41c3.91-5.27,9.16-14.18,12.62-16.59,4.71.72,6.12-1.67,8.85-1.67l-3.72-15.89S271.29,150.15,268.75,153.2Z" style="fill:#ffa8a7"></path><path d="M272.07,171.12h0a1.87,1.87,0,0,1-.79-2.53l20.14-38.48,3.33,1.74L274.6,170.33A1.87,1.87,0,0,1,272.07,171.12Z"></path><path d="M290.88,113.61c-1.38-.79-3.27-.67-5.37.54a16.87,16.87,0,0,0-7.62,13.2c0,2.42.86,4.13,2.24,4.92l2.73,1.58c1.38.8,3.28.69,5.39-.53a16.84,16.84,0,0,0,7.62-13.19c0-2.43-.86-4.14-2.24-4.93Z" style="fill:#37474f"></path><path d="M288.25,115.73c4.2-2.43,7.62-.46,7.62,4.4a16.87,16.87,0,0,1-7.62,13.19c-4.21,2.43-7.62.46-7.62-4.4A16.82,16.82,0,0,1,288.25,115.73Z" style="fill:#263238"></path><path d="M293.15,116.36c-1.22-.7-2.89-.59-4.74.48a14.88,14.88,0,0,0-6.74,11.66c0,2.15.76,3.65,2,4.35L301.27,143c1.22.71,2.9.61,4.76-.46a14.89,14.89,0,0,0,6.73-11.67c0-2.15-.75-3.65-2-4.35Z" style="fill:#92E3A9"></path><path d="M293.15,116.36c-1.22-.7-2.89-.59-4.74.48a14.88,14.88,0,0,0-6.74,11.66c0,2.15.76,3.65,2,4.35L301.27,143c1.22.71,2.9.61,4.76-.46a14.89,14.89,0,0,0,6.73-11.67c0-2.15-.75-3.65-2-4.35Z" style="opacity:0.30000000000000004"></path><path d="M309.35,139.64l-26.8-15.47a12.21,12.21,0,0,0-.88,4.33c0,2.15.76,3.65,2,4.35L301.27,143c1.22.71,2.9.61,4.76-.46A12.32,12.32,0,0,0,309.35,139.64Z" style="opacity:0.15"></path><path d="M308.66,123.88c-1.37-.79-3.27-.68-5.36.53a16.84,16.84,0,0,0-7.62,13.2c0,2.43.85,4.13,2.23,4.93l2.74,1.58c1.37.79,3.27.68,5.38-.53a16.84,16.84,0,0,0,7.62-13.2c0-2.43-.86-4.13-2.24-4.92Z" style="fill:#37474f"></path><path d="M306,126c4.21-2.43,7.62-.46,7.62,4.4a16.84,16.84,0,0,1-7.62,13.2c-4.21,2.43-7.62.46-7.62-4.4A16.84,16.84,0,0,1,306,126Z" style="fill:#455a64"></path><path d="M283,153.93a3.63,3.63,0,0,0,.93-1.37s2-3.91,2-3.91a3.89,3.89,0,0,1,1.32,1.56,8.53,8.53,0,0,1,.53,3.12c.11,3.24-.16,8.95-2.21,10.68" style="fill:#f28f8f"></path><path d="M263.76,158.93c3-3.81,5.29-7.49,7.65-9.35s5.32-1.56,8.81-.54a16.14,16.14,0,0,0,6.25.81c.3.2-.2,2.34-1.44,2.94a11.93,11.93,0,0,1-5.11.67c-4,0-.76,4.88-6.12,8.85C272.13,165.18,263.76,158.93,263.76,158.93Z" style="fill:#ffa8a7"></path><path d="M285.6,164c-2.05,1.73-6.24,2-7.77,1.07a3.86,3.86,0,0,1-1.48-1.57c-.33-.64-.26-1.38-.6-2-.16-.33-.38-.64-.53-1a1.43,1.43,0,0,1-.08-1.09c.15-.38.54-.65.63-1.06a1.22,1.22,0,0,0-.11-.7c-.16-.37-.42-.69-.57-1.06a1.11,1.11,0,0,1,.07-1.13,1.44,1.44,0,0,1,.93-.38,30.13,30.13,0,0,1,3.79-.17,5.5,5.5,0,0,0,3.1-1" style="fill:#f28f8f"></path><path d="M276.59,158.92c-1.69,3.07-5.54,2.88-7.72,2.32,0,0,2.48,1.82,4.93,1.07l-2.52,6.28Z" style="fill:#f28f8f"></path><path d="M208.24,146.59c5.5.32,8.45-2.2,12.59,0,3.36,1.78,4.2,4.81,7.48,8.85,1.78,2.2,2.52,3.07,5.88,6.86,7.09,8,12.51,13.34,12.51,13.34l9.73-8.69c-1.43,5.61,4.2,13.77,10.65,15.1,0,0-2.29,2-9.14,7.22-5.26,4-8.23,6.07-9.45,6.26s-4-.89-12.6-7.8-29.83-26.58-29.83-26.58Z" style="fill:#455a64"></path><path d="M246.7,175.64c-3.13,3-3.66,8.09-3.66,8.09s-1.32-3.42,2.2-9.59Z" style="fill:#37474f"></path><path d="M205.91,96.38l-.12.07c-5.45,3.52-11.34,5.37-16.23,10s-7.74,10.88-7,16.77c1.32,10.42,7.05,14.11,10.48,18,.16.18,5.56,3.93,5.79,3.94l3.55.16c.86,0,2,.49,2.77.23,1.08-.34,1.89-1.78,2.53-2.63a34.22,34.22,0,0,1,8.65-7.8c1.42-.95,2.41-3,3.07-4.51a16.55,16.55,0,0,0,1.33-5.36,2.15,2.15,0,0,1,2.41-2.64,11.06,11.06,0,0,0,5.31-1.84,7.55,7.55,0,0,0,3.13-4.58,5.9,5.9,0,0,0-2.26-5.9,6.44,6.44,0,0,0-6.68-10.08c1.06-2.38-.23-5.35-2.44-6.72a9.25,9.25,0,0,0-7.54-.59A27.62,27.62,0,0,0,205.91,96.38Z" style="fill:#263238"></path><path d="M193.19,148.14a9.16,9.16,0,0,1-11.83-14c3.86-3.26,6.95-.51,10.22,3.35S197.05,144.87,193.19,148.14Z" style="fill:#263238"></path><path d="M230,273c-4.16-.71-7.85,2.51-8.23,3.56-.51,1.43-.46,4.36,1.12,8A25.15,25.15,0,0,1,224.33,296c-.42,3.29-2.28,11.46.91,15.72s10.45,8.12,13.28,2.54c.92-1.82-.58-8.3-1.19-13-1.21-9.39-2.07-18.7-2.07-18.7Z" style="fill:#263238"></path><path d="M228.43,280.35a91.71,91.71,0,0,1,.58,13.74c-.26,5,.68,8.33,2.33,10.63,1.83,2.53,6.55,4.08,6.16-1.1-.26-3.61-2.24-21.13-2.24-21.13Z" style="fill:#ffa8a7"></path><path d="M223.22,274.91c-.3,3.08,1.07,11.33,5,18.34s9.58,15,10.55,19.83c.19-2.2-.59-6.27-1.15-9.89a2,2,0,0,1,0-.24l-.09-.63c0-.09,0-.19-.05-.28,0-.27-.07-.53-.1-.79v-.06c-.38-2.93-.72-5.86-1-8.5-.23-2.11-.44-4-.6-5.63-.08-.8-.16-1.51-.22-2.13,0-.3-.05-.59-.08-.84-.1-1-.15-1.6-.15-1.6L230,273a8,8,0,0,0-.81-.09A9.18,9.18,0,0,0,223.22,274.91Z" style="opacity:0.15"></path><path d="M249.07,222.8c-13.19-8.38-29.52-13.25-29.52-13.25l-14.34,10.5L219,233.19,236.68,246s3.46-.15,1.17,5.17c-.72,1.69-1.85,5.08-3,8.93l7.66,23.39s4.78-7.9,11.82-22.31c6.53-13.39,8.28-22.34,7.77-25.36C261.39,231.86,259.75,229.58,249.07,222.8Z" style="fill:#92E3A9"></path><path d="M249.07,222.8c-13.19-8.38-29.52-13.25-29.52-13.25l-14.34,10.5L219,233.19,236.68,246s3.46-.15,1.17,5.17c-.72,1.69-1.85,5.08-3,8.93l7.66,23.39s4.78-7.9,11.82-22.31c6.53-13.39,8.28-22.34,7.77-25.36C261.39,231.86,259.75,229.58,249.07,222.8Z" style="opacity:0.2"></path><path d="M217.17,226.63l-1.7-1.28c4.81-2.31,6.46-7.94,6.46-7.94a14.3,14.3,0,0,1-3.6,8.57c1.22.77,18.74,11.81,21.95,15.71s5.38,5.25,5.5,14.27c.1,7.62.41,20.94.41,20.94L223.3,246.17,213.44,229Z" style="opacity:0.2"></path><path d="M237.71,313c-1-.1-1.13,1.63-1.82,3.82a11.21,11.21,0,0,0-.54,6.59c.74,2.81,5.12,3.52,7.17,7.3s4.92,10.51,12.64,13,14,.49,15.69-1.71.62-4.56-4.13-8c-5-3.6-6.47-4.66-6.47-4.66Z" style="fill:#263238"></path><path d="M248.69,300.22a120,120,0,0,0,3.5,13.87,55.47,55.47,0,0,0,8.64,14.71c.79,1,2.61,2.94,3.25,3.76a1.52,1.52,0,0,1-.29,2.34c-1.81,1.55-9.13,1.54-13.05-1.75s-7.28-10-9.58-12.62a38.81,38.81,0,0,1-2.44-3,5.07,5.07,0,0,1-1.07-3.33,14.85,14.85,0,0,0-.05-4.72,54.75,54.75,0,0,0-1.59-6.17Z" style="fill:#ffa8a7"></path><path d="M181.8,201.24C175.91,210.42,175,222.1,177,228c2.71,8.06,5.9,11.75,16.64,18.83,8.89,5.87,21.38,9.64,24,11s3.48,4.42,4.58,9.86c1,5.16,2.28,13.49,7.51,24.54,5.52,11.67,7,15.12,7,15.12s7.3,3.17,13.22-2c0,0-6.21-48.57-8.16-55.55s-29.85-27-29.85-27,4.16-11.14,6.63-18.92Z" style="fill:#92E3A9"></path><path d="M176.65,211.4a52,52,0,0,1,2.83-7.22,25.79,25.79,0,0,0,2.25-5.08c1.64-6.85-2.26-14.8-3.66-21.71a50.18,50.18,0,0,1-.89-12.77c.19-3.27,0-8.8,3.08-10.67a19.29,19.29,0,0,1,3.48-1.49l9.41-3.5s9.36-1.63,14.34-2.29c2.74-.37,4.42.53,7.6,3.7s9.28,10.45,11.52,16.52c1.31,3.55,1.11,10-3.29,13.83-.63,4.18-1.66,15.49-1.17,19,.46,3.33.61,8.7,6,11.64,9,3.88,31.9,10,35.27,17s-6,32.05-6,32.05-3.65,7.53-17.21,12.31-18.73.1-18.73.1-1.57-12.93-4.35-14c-5.16-2-22.45-11.28-27.93-14.31C170.12,234,175.4,215.23,176.65,211.4Z" style="fill:#37474f"></path><path d="M212.39,182.09s-3.68,4.74-11.19,4.06c-7.75-.69-9.4-7.07-9.4-7.07s-.14,8.4,9.12,9.24A11.16,11.16,0,0,0,212.39,182.09Z" style="fill:#263238"></path><path d="M218.18,107.7c2.51,1.48,6.28,7.4,6,20.61-.24,11.2-3.86,14-5.68,14.78s-6.58.1-10-.46l-.56,8,2.75,10.88L192.46,150.4l1.08-16.83s-1.74,1.06-4.09-.75c-3.17-2.43-3.66-6.8-1.12-9.12,1.63-1.5,6.06-1.93,7.43,1.92,0,0,5.84.35,12.74-4.23C216.14,116.33,217.2,111.25,218.18,107.7Z" style="fill:#ffa8a7"></path><path d="M196.58,130.23h0l-1-5.79,3.7-.66.37,2.1A3.76,3.76,0,0,1,196.58,130.23Z" style="fill:#263238"></path><path d="M210.63,124.6a1.49,1.49,0,0,1-1.36,1.63,1.54,1.54,0,1,1,1.36-1.63Z" style="fill:#263238"></path><path d="M210.73,133.83l5.06,1.5a2.59,2.59,0,0,1-3.23,1.87A2.77,2.77,0,0,1,210.73,133.83Z" style="fill:#b16668"></path><path d="M213.43,137.29a2.44,2.44,0,0,0-2.44-2.43,1.86,1.86,0,0,0-.33,0,2.72,2.72,0,0,0,1.9,2.3A2.37,2.37,0,0,0,213.43,137.29Z" style="fill:#f28f8f"></path><path d="M222.33,119.94l-3.35-.89a1.66,1.66,0,0,1,2.06-1.26A1.81,1.81,0,0,1,222.33,119.94Z" style="fill:#263238"></path><path d="M221.67,123.87a1.48,1.48,0,1,1-1.58-1.44A1.51,1.51,0,0,1,221.67,123.87Z" style="fill:#263238"></path><polygon points="214.49 121.91 214.97 132.18 219.68 130.47 214.49 121.91" style="fill:#f28f8f"></polygon><path d="M208.5,142.63c-4.19-.89-9.52-3.37-10.68-6.3a7.23,7.23,0,0,0,2.35,4.74c2.22,1.9,8.19,3.62,8.19,3.62Z" style="fill:#f28f8f"></path><path d="M210.69,161.47a60.38,60.38,0,0,0-4.63-6.37c-1.31-1.25-13.05-5.38-13.31-9.23l-.29,4.53Z" style="fill:#e0e0e0"></path><path d="M206.93,156.09c-2.7-3.32-5.61,5.26-6.1,6.38s-2.57.35-6.53-2.79-5.84-6-6.14-8.47c-.11-.91,1.43-2.21,2.3-4.62s1.58-2.58,2.4-2.46l-.11,1.74a19.93,19.93,0,0,0,3.66,3.54C202.64,153.67,205.26,152.77,206.93,156.09Z" style="fill:#f5f5f5"></path><path d="M213.74,153.8a16.11,16.11,0,0,1,1.08,6.23c-.14.8-4.27-4-4.27-4S212.28,151.77,213.74,153.8Z" style="fill:#e0e0e0"></path><path d="M210.69,161.47c.74-4.83,1.37-6.58,1.7-7.21.64-1.28,1.35-.46,1.35-.46s-1-1.86-2.5-4.39c-1.71-2.82-1.87-3.75-2.93-4l-.37,5.21Z" style="fill:#f5f5f5"></path></g><path d="M162.86,255.77l36.73,18.45-.78-13.53,5.66-3.27c-.4-10.49-3.28-21.26-10.7-23.64-9.29-2.94-21.34-3.89-28.57-10.43s-6.93-24.52-6-34.84,3.6-26.33-4.64-31.09-16.06.54-16.06.54c-3.53,2.28-7.62,3.94-7.28,6.71a3,3,0,0,0,2.51,2.83l20.5,77.58A16.73,16.73,0,0,0,162.86,255.77Z" style="fill:#92E3A9"></path><g style="opacity:0.55"><path d="M162.86,255.77l36.73,18.45-.78-13.53,5.66-3.27c-.4-10.49-3.28-21.26-10.7-23.64-9.29-2.94-21.34-3.89-28.57-10.43s-6.93-24.52-6-34.84,3.6-26.33-4.64-31.09-16.06.54-16.06.54c-3.53,2.28-7.62,3.94-7.28,6.71a3,3,0,0,0,2.51,2.83l20.5,77.58A16.73,16.73,0,0,0,162.86,255.77Z"></path></g><path d="M149.11,167c3.3,3.95,5,10.22,4.39,25.62s-.36,27.83,5.67,35.38c7.14,8.95,31.65,16.08,31.65,16.08l9.57-4.37a12,12,0,0,0-6.62-5.92c-9.29-2.94-21.34-3.89-28.57-10.43s-6.93-24.52-6-34.84,3.6-26.33-4.64-31.09-16.06.54-16.06.54c-3.53,2.28-7.62,3.94-7.28,6.71a3,3,0,0,0,2.51,2.83C138.27,166,145.81,163,149.11,167Z" style="fill:#92E3A9"></path><g style="opacity:0.45"><path d="M149.11,167c3.3,3.95,5,10.22,4.39,25.62s-.36,27.83,5.67,35.38c7.14,8.95,31.65,16.08,31.65,16.08l9.57-4.37a12,12,0,0,0-6.62-5.92c-9.29-2.94-21.34-3.89-28.57-10.43s-6.93-24.52-6-34.84,3.6-26.33-4.64-31.09-16.06.54-16.06.54c-3.53,2.28-7.62,3.94-7.28,6.71a3,3,0,0,0,2.51,2.83C138.27,166,145.81,163,149.11,167Z"></path></g><path d="M198.81,260.69l5.66-3.27c0-6.28-1.61-19.93-9.56-23.23-6.31-2.61-9.35,1.24-9.29,3.61.08,2.67,2,4.44,5.2,6.27C195.05,246.51,198.81,250.88,198.81,260.69Z" style="fill:#92E3A9"></path><path d="M198.81,260.69l5.66-3.27c0-6.28-1.61-19.93-9.56-23.23-6.31-2.61-9.35,1.24-9.29,3.61.08,2.67,2,4.44,5.2,6.27C195.05,246.51,198.81,250.88,198.81,260.69Z" style="opacity:0.1"></path><path d="M198.81,260.69l5.66-3.27c0-6.28-1.61-19.93-9.56-23.23-6.31-2.61-9.35,1.24-9.29,3.61.08,2.67,2,4.44,5.2,6.27C195.05,246.51,198.81,250.88,198.81,260.69Z" style="opacity:0.25"></path><g id="freepik--Arm--inject-2"><path d="M178.57,229.07c1.21,1.25,4,2,8.21-4.55,3.41-5.31,1.53-8.28,1.53-8.28s-3.28-1.48-7.93,3.12A8.2,8.2,0,0,0,178.57,229.07Z" style="fill:#263238"></path><path d="M160.45,201.21c1.63-6.58,5.57-24.49,9.07-37.89,1.17-4.45,5.89-7,10-9.06,9.36,7.26,3.33,23.13,3.33,23.13L176,205.22l21.13,18.86h0a58.37,58.37,0,0,1,5,4.3,24,24,0,0,1,3.81,4.91c2.05,3.3,2.61,7,3,10.7a10.81,10.81,0,0,1-.33,5,7.84,7.84,0,0,1-2.9,3.35c-1.06.76-2.63,2.05-4,1.74-2.52-.57-2.47-3.19-3.33-6.42s-2.51-5.43-5.12-8.39-1.39-7.18-5.51-9.76c0,0-15.42-9-22.81-14C157,210.05,159.34,205.66,160.45,201.21Z" style="fill:#ffa8a7"></path><path d="M180.75,153.57c-2.88.69-8.73-.11-11.2,3.52s-2.47,11.17-3.5,16.72c-.94,5.08-5.32,25.33-6.22,28.27s-2.09,7.24,3.59,12.81c6.39,6.27,15.15,14.18,15.15,14.18-2-4.7,3.7-13.21,9.74-12.83l-11.85-11.18L183,179.18s4.73-7.68,2.18-16.22S180.75,153.57,180.75,153.57Z" style="fill:#455a64"></path><path d="M176.46,205.06c-2.5-2-7.51-1.66-10.17-.69,0,0,2.35-3.87,10.75-1.61Z" style="fill:#37474f"></path></g></g></g><g id="freepik--Dais--inject-2"><polygon id="freepik--Shadow--inject-2" points="221.72 428.41 157.62 391.4 359.79 274.68 423.9 311.69 369.66 343.01 389.38 354.39 295.69 408.48 275.96 397.1 221.72 428.41" style="fill:#37474f"></polygon><g id="freepik--dais-podium--inject-2"><polygon points="364.39 340.35 416.52 310.25 418.97 217.74 364.39 249.25 364.39 340.35" style="fill:#92E3A9"></polygon><polygon points="364.39 340.35 416.52 310.25 418.97 217.74 364.39 249.25 364.39 340.35" style="opacity:0.35000000000000003"></polygon><polygon points="370.75 268.35 408.2 246.73 407.75 303.93 370.74 325.29 370.75 268.35" style="opacity:0.15"></polygon><path d="M403.33,255.15l-.43,46-27.3,15.76V271.15l27.72-16m1.23-2.12L374.4,270.45V319l29.72-17.17.45-48.79Z" style="fill:#92E3A9"></path><polygon points="418.24 229.91 418.61 223.63 364.39 254.94 364.39 261 418.24 229.91" style="opacity:0.2"></polygon><polygon points="364.39 254.94 364.39 243.55 423.9 209.19 423.9 220.58 364.39 254.94" style="fill:#92E3A9"></polygon><polygon points="364.39 254.94 364.39 243.55 423.9 209.19 423.9 220.58 364.39 254.94" style="opacity:0.35000000000000003"></polygon><polygon points="364.39 243.55 305.21 209.39 364.72 175.03 423.9 209.19 364.39 243.55" style="fill:#92E3A9"></polygon><polygon points="364.39 243.55 305.21 209.39 364.72 175.03 423.9 209.19 364.39 243.55" style="opacity:0.2"></polygon><polygon points="275.96 391.4 295.69 402.79 295.69 283.22 221.72 240.51 221.72 360.08 275.96 391.4" style="fill:#92E3A9"></polygon><polygon points="275.96 391.4 295.69 402.79 295.69 283.22 221.72 240.51 221.72 360.08 275.96 391.4" style="opacity:0.30000000000000004"></polygon><polygon points="295.69 283.22 379.52 234.82 379.52 354.39 295.69 402.79 295.69 283.22" style="fill:#92E3A9"></polygon><polygon points="295.69 283.22 379.52 234.82 379.52 354.39 295.69 402.79 295.69 283.22" style="opacity:0.2"></polygon><polygon points="305.55 192.11 221.72 240.51 295.69 283.22 379.52 234.82 305.55 192.11" style="fill:#92E3A9"></polygon><polygon points="305.55 192.11 221.72 240.51 295.69 283.22 379.52 234.82 305.55 192.11" style="opacity:0.1"></polygon><polygon points="300.62 297.45 300.62 382.86 302.03 382.05 302.03 296.64 300.62 297.45" style="opacity:0.2"></polygon><polygon points="304.14 295.42 304.14 380.82 305.55 380.01 305.55 294.6 304.14 295.42" style="opacity:0.2"></polygon><polygon points="307.66 293.38 307.66 378.79 309.07 377.97 309.07 292.56 307.66 293.38" style="opacity:0.2"></polygon><polygon points="366.13 259.63 366.13 345.04 367.54 344.23 367.55 258.82 366.13 259.63" style="opacity:0.2"></polygon><polygon points="369.66 257.6 369.66 343.01 371.06 342.19 371.07 256.78 369.66 257.6" style="opacity:0.2"></polygon><polygon points="373.18 255.56 373.18 340.97 374.58 340.16 374.59 254.75 373.18 255.56" style="opacity:0.2"></polygon><polygon points="315.07 294.6 359.79 268.98 359.79 343 315.41 368.63 315.07 294.6" style="opacity:0.15"></polygon><path d="M337.6,298.87c9.53-5.5,17.26-1,17.26,10s-7.73,24.39-17.26,29.89-17.26,1-17.26-10S328.07,304.38,337.6,298.87Z" style="fill:#92E3A9"></path><path d="M337.6,298.87c9.53-5.5,17.26-1,17.26,10s-7.73,24.39-17.26,29.89-17.26,1-17.26-10S328.07,304.38,337.6,298.87Z" style="opacity:0.2"></path><polygon points="275.96 305.99 279.12 393.22 275.96 391.4 275.96 305.99" style="opacity:0.2"></polygon><path d="M347.94,310.53h0l-3.15-4.92s0-.08,0-.12v-.26c0-.23-.15-.34-.33-.24l-6.44,3.72v-2c0-.43-.2-.66-.45-.52a1.3,1.3,0,0,0-.44,1v2.05L330.71,313a.76.76,0,0,0-.32.61v.07l-3.16,8.57s0,0,0,0a.19.19,0,0,0,0,.08c0,1.72.54,3,1.48,3.55a1.86,1.86,0,0,0,1,.26,2.72,2.72,0,0,0,1.32-.38c1.89-1.1,3.43-4.32,3.43-7.2a.37.37,0,0,0-.05-.18h0l-3-4.68,5.8-3.34v17.34l-2.1,1.21a2.37,2.37,0,0,0-1,1.88v.67l-.48.28a4.62,4.62,0,0,0-1.92,3.68v.19l11.87-6.85v-.19c0-1.42-.87-2.07-1.93-1.46l-.48.28v-.67c0-.73-.44-1.06-1-.75l-2.09,1.22V309.84l5.63-3.26-2.87,7.78v0a.41.41,0,0,0,0,.08c0,1.72.54,3,1.48,3.56a1.86,1.86,0,0,0,1,.26,2.72,2.72,0,0,0,1.32-.38c1.89-1.1,3.43-4.33,3.43-7.2A.37.37,0,0,0,347.94,310.53Zm-17.05,3.67,2.71,4.23-5.42,3.13Zm-.25,11a1.57,1.57,0,0,1-1.62.12,3.21,3.21,0,0,1-1.13-2.78l5.83-3.37C333.53,321.64,332.23,324.25,330.64,325.17Zm16.55-14.58-5.43,3.13,2.71-7.36Zm-3,6.73a1.6,1.6,0,0,1-1.63.13,3.21,3.21,0,0,1-1.13-2.78l5.83-3.37C347.12,313.8,345.81,316.41,344.23,317.32Z" style="fill:#92E3A9"></path><polygon points="295.72 287.99 295.71 273.09 385.96 221.04 385.97 235.94 295.72 287.99" style="fill:#92E3A9"></polygon><polygon points="295.72 287.99 295.71 273.09 385.96 221.04 385.97 235.94 295.72 287.99" style="opacity:0.35000000000000003"></polygon><polygon points="295.72 273.09 218.31 228.4 218.31 243.3 295.72 287.99 295.72 273.09" style="fill:#92E3A9"></polygon><polygon points="295.72 273.09 218.31 228.4 218.31 243.3 295.72 287.99 295.72 273.09" style="opacity:0.45"></polygon><polygon points="379.51 244.82 379.51 239.66 295.72 287.99 221.72 245.27 221.72 250.42 295.72 293.15 379.51 244.82" style="opacity:0.1"></polygon><polygon points="295.71 273.09 218.31 228.4 308.56 176.35 385.96 221.04 295.71 273.09" style="fill:#92E3A9"></polygon><polygon points="295.71 273.09 218.31 228.4 308.56 176.35 385.96 221.04 295.71 273.09" style="opacity:0.1"></polygon><polygon points="221.72 422.72 275.96 391.4 275.96 305.99 221.72 337.31 221.72 422.72" style="fill:#92E3A9"></polygon><polygon points="221.72 422.72 275.96 391.4 275.96 305.99 221.72 337.31 221.72 422.72" style="opacity:0.35000000000000003"></polygon><polygon points="221.72 422.72 172.41 394.25 167.48 305.99 221.72 337.31 221.72 422.72" style="fill:#92E3A9"></polygon><polygon points="221.72 422.72 172.41 394.25 167.48 305.99 221.72 337.31 221.72 422.72" style="opacity:0.45"></polygon><polygon points="221.72 337.31 221.72 325.92 280.89 291.76 280.89 303.15 221.72 337.31" style="fill:#92E3A9"></polygon><polygon points="221.72 337.31 221.72 325.92 280.89 291.76 280.89 303.15 221.72 337.31" style="opacity:0.35000000000000003"></polygon><polygon points="221.72 325.92 162.55 291.76 162.55 303.14 221.72 337.31 221.72 325.92" style="fill:#92E3A9"></polygon><polygon points="221.72 325.92 162.55 291.76 162.55 303.14 221.72 337.31 221.72 325.92" style="opacity:0.45"></polygon><polygon points="275.96 312.06 275.96 305.99 221.72 337.31 167.48 305.99 167.88 312.29 221.72 343.37 275.96 312.06" style="opacity:0.2"></polygon><polygon points="221.72 325.92 162.55 291.76 221.72 257.59 280.89 291.76 221.72 325.92" style="fill:#92E3A9"></polygon><polygon points="221.72 325.92 162.55 291.76 221.72 257.59 280.89 291.76 221.72 325.92" style="opacity:0.2"></polygon><polygon points="231.58 348.7 266.1 328.77 266.1 385.71 231.58 405.64 231.58 348.7" style="opacity:0.15"></polygon><path d="M261.24,337.18V382.9l-24.8,14.33V351.5l24.8-14.32m1.22-2.1L235.22,350.8v48.53l27.23-15.73V335.08Z" style="fill:#92E3A9"></path></g><g id="freepik--Base--inject-2"><path d="M354,213.37c-4.95-2.86-13-2.86-17.9,0-2.47,1.42-3.7,3.29-3.69,5.16v1.94c0,1.87,1.22,3.74,3.69,5.16,4.94,2.86,12.95,2.86,17.9,0,2.47-1.42,3.7-3.29,3.69-5.16v-1.94C357.65,216.66,356.42,214.79,354,213.37Z" style="fill:#263238"></path><ellipse cx="345" cy="218.53" rx="12.65" ry="7.31" style="fill:#455a64"></ellipse><path d="M352.4,211a16.35,16.35,0,0,0-14.8,0c-2,1.18-3.06,2.73-3.05,4.27v2.85c0,1.55,1,3.09,3.05,4.27a16.35,16.35,0,0,0,14.8,0c2-1.18,3.05-2.72,3.05-4.27v-2.85C355.45,213.69,354.44,212.14,352.4,211Z" style="fill:#37474f"></path><ellipse cx="345" cy="215.23" rx="10.46" ry="6.04" style="fill:#455a64"></ellipse></g><g id="freepik--Sheets--inject-2"><g style="opacity:0.2"><path d="M256,224.08l38.4,22.17a2.35,2.35,0,0,0,2.16,0l28.27-16.32a.66.66,0,0,0,0-1.24l-38.41-22.18a2.41,2.41,0,0,0-2.16,0L256,222.83C255.4,223.17,255.4,223.73,256,224.08Z"></path></g><path d="M256,222.08l38.4,22.17a2.35,2.35,0,0,0,2.16,0l28.27-16.32a.66.66,0,0,0,0-1.25l-38.41-22.17a2.41,2.41,0,0,0-2.16,0L256,220.83C255.4,221.17,255.4,221.73,256,222.08Z" style="fill:#ebebeb"></path><path d="M284.26,204.51,257.42,220l37,21.35a2.41,2.41,0,0,0,2.16,0l26.84-15.5-37-21.35A2.41,2.41,0,0,0,284.26,204.51Z" style="fill:#e0e0e0"></path><path d="M256,218.17l38.4,22.18a2.41,2.41,0,0,0,2.16,0L324.83,224a.66.66,0,0,0,0-1.25l-38.41-22.17a2.35,2.35,0,0,0-2.16,0L256,216.92C255.4,217.27,255.4,217.83,256,218.17Z" style="fill:#fafafa"></path></g><g id="freepik--Pen--inject-2"><path d="M242.34,230l23.83,13.78,4.08.82a.12.12,0,0,0,.13-.18l-1.27-2.34-23.84-13.77C244.47,227.89,241.71,229.68,242.34,230Z" style="opacity:0.2"></path><g id="freepik--pen--inject-2"><path d="M245,226.05l.11,0-.23-.13,0,0h-.25a1,1,0,0,0-.48.15,2.41,2.41,0,0,0-1.1,1.89,1.27,1.27,0,0,0,0,.28s0,0,0,0v0l0,0,.09.17,0,0h0l0,0,.05,0,0,0h0l.27.15a.38.38,0,0,1-.12-.09.87.87,0,0,0,.63-.14,2.4,2.4,0,0,0,1.09-1.89A.89.89,0,0,0,245,226.05Zm-1.62,2.6h0Z" style="fill:#92E3A9"></path><path d="M267.85,239.23l-1.54,2.68-.26-.15-22.48-13a.38.38,0,0,1-.12-.09.87.87,0,0,1-.2-.62,2.43,2.43,0,0,1,1.09-1.89,1,1,0,0,1,.49-.15l.14,0,.11,0h0Z" style="fill:#f0f0f0"></path><path d="M267.08,239.31c.6-.35,1.09-.07,1.09.63a2.41,2.41,0,0,1-1.09,1.89c-.61.35-1.1.07-1.1-.63A2.4,2.4,0,0,1,267.08,239.31Z" style="fill:#92E3A9"></path><path d="M269.42,240.93s0,0,0,0l-1.4-1.53h0l0,0v0h0a.7.7,0,0,0-.87,0,2.4,2.4,0,0,0-1.1,1.89.71.71,0,0,0,.43.75h.11l2,.44a.51.51,0,0,0,.36-.08,1.38,1.38,0,0,0,.62-1.08A.48.48,0,0,0,269.42,240.93Z" style="fill:#e0e0e0"></path><path d="M251.58,231h0l0,0a.27.27,0,0,0-.25,0,.85.85,0,0,0-.39.67.3.3,0,0,0,.09.24h0l.05,0,16.59,9.58,1.09-.63Z" style="fill:#455a64"></path><path d="M266.08,240.63l1.54.88,1.09-.63-2.08-1.2A2.66,2.66,0,0,0,266.08,240.63Z" style="fill:#37474f"></path><path d="M270,241.66h0l-1.26-1.39,0,0a.5.5,0,0,0-.63,0,1.7,1.7,0,0,0-.77,1.33.5.5,0,0,0,.3.53h.06l1.85.4h0a.3.3,0,0,0,.2,0,.77.77,0,0,0,.35-.61A.24.24,0,0,0,270,241.66Z" style="fill:#92E3A9"></path><path d="M270,241.66h0l-1.26-1.39,0,0a.5.5,0,0,0-.63,0,1.7,1.7,0,0,0-.77,1.33.5.5,0,0,0,.3.53h.06l1.85.4h0a.3.3,0,0,0,.2,0,.77.77,0,0,0,.35-.61A.24.24,0,0,0,270,241.66Z" style="opacity:0.1"></path><path d="M270,241.86a.77.77,0,0,1-.35.61.3.3,0,0,1-.2,0h0l-.93-.2c-.15,0-.25-.17-.25-.39a1.25,1.25,0,0,1,.56-1,.36.36,0,0,1,.45,0l0,0,.62.69h0A.24.24,0,0,1,270,241.86Z" style="fill:#92E3A9"></path><path d="M269.69,241.66c.2-.11.35,0,.35.2a.77.77,0,0,1-.35.61c-.19.11-.35,0-.35-.2A.78.78,0,0,1,269.69,241.66Z" style="opacity:0.1"></path><path d="M247.44,228.6a.27.27,0,0,0-.27,0,.83.83,0,0,0-.39.67.28.28,0,0,0,.12.25h0l4.08,2.36a.3.3,0,0,1-.09-.24.85.85,0,0,1,.39-.67.27.27,0,0,1,.25,0Z" style="fill:#fafafa"></path><path d="M247.56,228.85a.86.86,0,0,1-.39.67.27.27,0,0,1-.27,0,.28.28,0,0,1-.12-.25.83.83,0,0,1,.39-.67.27.27,0,0,1,.27,0A.28.28,0,0,1,247.56,228.85Z" style="fill:#f5f5f5"></path><path d="M246.69,227.2h0l-1.61-.93,0,0h0a.71.71,0,0,0-.66.09,2.16,2.16,0,0,0-1,1.7.69.69,0,0,0,.29.64h0l1.63.94h0a.69.69,0,0,0,.68-.08,2.16,2.16,0,0,0,1-1.7A.69.69,0,0,0,246.69,227.2Z" style="fill:#92E3A9"></path><path d="M246.69,227.2h0l-1.61-.93,0,0h0a.71.71,0,0,0-.66.09,2.16,2.16,0,0,0-1,1.7.69.69,0,0,0,.29.64h0l1.63.94h0a.69.69,0,0,0,.68-.08,2.16,2.16,0,0,0,1-1.7A.69.69,0,0,0,246.69,227.2Z" style="opacity:0.05"></path><path d="M246,227.25c.54-.31,1-.06,1,.57a2.16,2.16,0,0,1-1,1.7c-.55.32-1,.06-1-.56A2.18,2.18,0,0,1,246,227.25Z" style="opacity:0.1"></path><path d="M270.49,242.24h0l-.67-.4h0s-.08,0-.13,0a.37.37,0,0,0-.18.31c0,.05,0,.1.05.11h0l.67.41h0a.26.26,0,0,0,.38-.23A.27.27,0,0,0,270.49,242.24Z" style="fill:#455a64"></path><path d="M270.53,242.28h0l0,0h0a.19.19,0,0,0-.12,0,.41.41,0,0,0-.18.32.13.13,0,0,0,.05.11h0l.08,0a.26.26,0,0,0,.26-.26A.23.23,0,0,0,270.53,242.28Z" style="fill:#263238"></path></g></g><g id="freepik--Books--inject-2"><path id="freepik--shadow--inject-2" d="M215.46,311.32l4.9-2.83,5.07,2.93-.84-2.44,5.07,1-5.92-3.41,18.91-10.92c.3-.18.3-.45,0-.63l-35.54-20.43a1.23,1.23,0,0,0-1.09,0l-27.13,15.65a.33.33,0,0,0,0,.62l35.49,20.49A1.21,1.21,0,0,0,215.46,311.32Z" style="opacity:0.1"></path><path d="M217.91,308.06l-.83-.49a1.37,1.37,0,0,1,.7-.05C218,307.63,217.91,308.06,217.91,308.06Z"></path><path d="M218.49,307.53a1,1,0,0,0-1.49,0c-.82.75-.86,1.49-1.2,1.47s-.33-6-.33-6l3.21,3Z"></path><path d="M184.86,285.86l-.06,0,.52-.3,22.15-12.78,32.27,20.88c.53.31.63.75.21,1l-.76.44-20.7,12-.14-.11Z" style="fill:#455a64"></path><path d="M215.73,300.21l1.6-.33v6.42c-1,.41-1.58.8-1.68,1.61Z" style="fill:#92E3A9"></path><path d="M218,306.39l20.51-11.84a1.42,1.42,0,0,0,.64-1.12V287.1l-20.7,12.06a1.91,1.91,0,0,1-1,1.18c-.74.28-.18.57-.18.57v5.39C218,306.23,218,306.39,218,306.39Z" style="fill:#ebebeb"></path><path d="M216.15,300c.21-.12.38-.13.38,0v.2c0,.22.34.21.76,0s.76-.62.76-.84v-.2c0-.12.28-.37.64-.58l-33.37-19.12-.52.3a.53.53,0,0,0-.12.28v.2c0,.22-.34.6-.76.84s-.76.26-.76,0v-.2c0-.11-.16-.11-.38,0Z" style="fill:#37474f"></path><path d="M184.86,279.74l-.06,0,.52-.29,22.15-12.79,32.27,18.64c.53.3.63.75.21,1l-.76.43-20.7,12.47Z" style="fill:#455a64"></path><path d="M183.16,280.67l33.34,19.24-1.17.92L182.1,281.64a1.29,1.29,0,0,1,.44-.62Z" style="fill:#455a64"></path><path d="M182.23,290.26l-.06,0,0,0-.07-.08,0-.05a1.08,1.08,0,0,1-.08-.19,1.72,1.72,0,0,1-.07-.21,2.38,2.38,0,0,1,0-.26c0-.05,0-.1,0-.15s0-.08,0-.12a2.81,2.81,0,0,1,0-.29v-5.51a4.49,4.49,0,0,1,.31-1.68l33.23,19.19.14,8.63-33.23-19.19Z" style="fill:#455a64"></path><path d="M215.33,300.83h0l-28.55-13.37c-1.58-.74-2.35.81-2,2.42a7.66,7.66,0,0,0,1.72,2.86h0l-4.28-2.47h0l-.06,0,0,0-.07-.08,0-.05a1.08,1.08,0,0,1-.08-.19,1.72,1.72,0,0,1-.07-.21,2.38,2.38,0,0,1,0-.26c0-.05,0-.1,0-.15s0-.08,0-.12a2.81,2.81,0,0,1,0-.29v-5.51a4.49,4.49,0,0,1,.31-1.68Z" style="opacity:0.1"></path><path d="M215,302.51h.75a3.34,3.34,0,0,1,.36-1.63,1,1,0,0,0,.61.2,1.86,1.86,0,0,0,.92-.29,2.77,2.77,0,0,0,.86-.75l0-.07a1.26,1.26,0,0,0,.22-.63L238.43,288l.67-.39.85-.49a.46.46,0,0,0,.26-.39v-.87a.46.46,0,0,1-.26.4h0l-2.26,1.29-19,11c-.35.21-.64.46-.64.58v.2a.62.62,0,0,1-.18.35,2.06,2.06,0,0,1-.58.49c-.42.24-.76.25-.76,0V300c0-.12-.16-.11-.38,0l-.37.22A3,3,0,0,0,215,302.51Z" style="fill:#37474f"></path><path d="M215.77,302.51v5.74l0,.18v0a2.12,2.12,0,0,1,1.12-1.4,1.88,1.88,0,0,1,.91-.28,1,1,0,0,1,.66.25l.07,0,.13-.08,19-11,1.09-.63.32-.18.92-.53a.45.45,0,0,0,.2-.36v.87a.42.42,0,0,1-.19.34h0l-.34.19-.21.13-.36.21-.23.13-.16.09-.28.16-15.09,8.71-4.81,2.78c-.35.2-.62.27-.64.17a.06.06,0,0,1,0,0v-.19c0-.24-.34-.24-.75,0a1,1,0,0,0-.6.76v.24a.35.35,0,0,1-.11.28l-.11.06-.24.14-.29.17a.31.31,0,0,1-.38,0l0,0a.35.35,0,0,1-.06-.09h0l0,0a1.08,1.08,0,0,1-.08-.19,1.42,1.42,0,0,1-.07-.22c0-.08,0-.16-.05-.25s0-.1,0-.15a.49.49,0,0,0,0-.12c0-.1,0-.19,0-.29v-5.51Z" style="fill:#37474f"></path><path d="M182.1,281.64l31.58,18.23,23.88-13.78a.39.39,0,0,0,0-.74L206.3,267.3l-21,12.11h0l-.52.31a.48.48,0,0,0-.12.27v.2c0,.23-.34.6-.76.84l-.07,0-.69-.41-.33.19-.05,0h0l-.25.14A1.29,1.29,0,0,0,182.1,281.64Z" style="opacity:0.1"></path><path d="M235.78,286.23l-.95-.51.87-.21A.69.69,0,0,1,235.78,286.23Z" style="fill:#92E3A9"></path><path d="M235.78,286.23l-.95-.51.87-.21A.69.69,0,0,1,235.78,286.23Z" style="opacity:0.5"></path><path d="M210.61,298.91a2.12,2.12,0,0,0,1.93,0l21.69-12.53-32.47-18.45-.76-.44-21.7,12.23a.59.59,0,0,0,0,1.11Z" style="fill:#92E3A9"></path><path d="M218.75,275.55l7.57,4.35,4.9-2.82,5.69,3.29v3.8c0,.5-.55,1.21-.76,1.09a5.55,5.55,0,0,0-1.09.39,8.07,8.07,0,0,0-1.57,1.16l-17.38-9.73Z" style="fill:#92E3A9"></path><path d="M218.75,275.55l7.57,4.35,4.9-2.82,5.69,3.29v3.8c0,.5-.55,1.21-.76,1.09a5.55,5.55,0,0,0-1.09.39,8.07,8.07,0,0,0-1.57,1.16l-17.38-9.73Z" style="opacity:0.15"></path><path d="M233.79,280.82V285l.06,0a2,2,0,0,1,.93-.29,1,1,0,0,1,.61.14V279.9Z" style="fill:#37474f"></path><path d="M232.72,286.37a1.26,1.26,0,0,1,.28-.7,1.53,1.53,0,0,1,.26-.31l.09-.09.12-.1.1-.07c.07-.06.15-.1.22-.15v-4.11l-1.06.62v4.91Z" style="fill:#e0e0e0"></path><path d="M236.91,284.17c0,.5-.55,1.21-.76,1.09h0l-.76-.5v-3.13l.76-1.31.42-.15.34.2Z" style="opacity:0.4"></path><path d="M211.57,293.65v4.71a1.36,1.36,0,0,0,.65-.15l2.38-1.38,18.12-10.46v-4.93Z" style="fill:#ebebeb"></path><path d="M231.35,284.59l-5.07,2.93a12.88,12.88,0,0,1,2.54-1.69A11.6,11.6,0,0,1,231.35,284.59Z" style="opacity:0.15"></path><path d="M179.85,276v3.56a1.42,1.42,0,0,0,.64,1.11l28.06,16.2,2.38,1.38a1.32,1.32,0,0,0,.64.15v-4.18Z" style="fill:#f5f5f5"></path><path d="M201.76,261.81l32.47,18.76V281c0,.24.34.33.76.09s.76-.54.76-1l0-.41L202.7,260.61l-.14-.07a.46.46,0,0,0-.05.2v.2C202.51,261.18,202.17,261.57,201.76,261.81Z" style="fill:#92E3A9"></path><path d="M201.76,261.81l32.47,18.76V281c0,.24.34.33.76.09s.76-.54.76-1l0-.41L202.7,260.61l-.14-.07a.46.46,0,0,0-.05.2v.2C202.51,261.18,202.17,261.57,201.76,261.81Z" style="opacity:0.1"></path><path d="M212.54,293.09l21.21-12.25c.27-.14.52-.25.62-.2l-.14-.07-32.47-18.76-.38-.22a1.23,1.23,0,0,0-1,.16l-21,12.15a.59.59,0,0,0,0,1.12l31.31,18.07A2.12,2.12,0,0,0,212.54,293.09Z" style="fill:#92E3A9"></path><path d="M200.85,267.05l-11.73,6.77c-.5.28-.5.75,0,1l1.58.91a2,2,0,0,0,1.8,0L204.23,269a.55.55,0,0,0,0-1l-1.58-.91A2,2,0,0,0,200.85,267.05Z" style="fill:#fff"></path><path d="M213.24,290.89a3.35,3.35,0,0,0-3.33,0,.26.26,0,0,1-.21,0l-26.58-15.35a.21.21,0,0,1,0-.36,1,1,0,0,0,.49-.84,1,1,0,0,0-.49-.84.22.22,0,0,1-.1-.18.2.2,0,0,1,.1-.18L199,264a.2.2,0,0,1,.21,0,3.35,3.35,0,0,0,3.33,0,.2.2,0,0,1,.21,0l26.61,15.36a.21.21,0,0,1,0,.36,1,1,0,0,0,0,1.68.21.21,0,0,1,.11.18.21.21,0,0,1-.11.19l-15.93,9.17a.23.23,0,0,1-.11,0A.19.19,0,0,1,213.24,290.89Zm15.24-10.38a1.42,1.42,0,0,1,.42-1l-26.23-15.14a3.74,3.74,0,0,1-3.53,0l-15.54,9a1.37,1.37,0,0,1,.42,1,1.38,1.38,0,0,1-.42,1l26.21,15.13a3.74,3.74,0,0,1,3.53,0l15.56-9A1.37,1.37,0,0,1,228.48,280.51Z" style="fill:#fff"></path><path d="M202.56,260.54l.14.07,33.09,19.11a.25.25,0,0,1,.07-.09l.11-.06.24-.14.29-.17a.3.3,0,0,1,.38,0l0,0,.1.14a1.08,1.08,0,0,1,.08.19,1.29,1.29,0,0,1,.07.21c0,.08,0,.17.05.26s0,.1,0,.15a.49.49,0,0,0,0,.12c0,.09,0,.19,0,.29v-.93a2,2,0,0,0-1-1.49L205,260.19a2,2,0,0,0-1.73-.13l-.39.24h0l-.16.1h0A.42.42,0,0,0,202.56,260.54Z" style="fill:#92E3A9"></path><path d="M212.54,298.91l1.31-.76,19.64-11.34a1.3,1.3,0,0,1,.27-.71,2.77,2.77,0,0,1,.86-.75,2,2,0,0,1,.92-.29,1,1,0,0,1,.61.2,3.34,3.34,0,0,0,.36-1.63h.75a3,3,0,0,1-.76,2.3l-.37.22c-.21.12-.38.13-.38,0V286c0-.22-.34-.21-.76,0s-.76.62-.76.84v.2c0,.12-.29.38-.64.58l-19,11-2.06,1.19h0a2,2,0,0,1-1,.23v-.86A2,2,0,0,0,212.54,298.91Z" style="fill:#92E3A9"></path><path d="M212.54,298.91l1.31-.76,19.64-11.34a1.3,1.3,0,0,1,.27-.71,2.77,2.77,0,0,1,.86-.75,2,2,0,0,1,.92-.29,1,1,0,0,1,.61.2,3.34,3.34,0,0,0,.36-1.63h.75a3,3,0,0,1-.76,2.3l-.37.22c-.21.12-.38.13-.38,0V286c0-.22-.34-.21-.76,0s-.76.62-.76.84v.2c0,.12-.29.38-.64.58l-19,11-2.06,1.19h0a2,2,0,0,1-1,.23v-.86A2,2,0,0,0,212.54,298.91Z" style="opacity:0.30000000000000004"></path><path d="M212.53,293.1h0l1.31-.76,15.09-8.7,4.81-2.79c.35-.2.63-.27.64-.16h0v.22c0,.24.34.24.75,0a1,1,0,0,0,.6-.76v-.24a.35.35,0,0,1,.11-.28l.11-.06.24-.14.29-.17a.3.3,0,0,1,.38,0l0,0,.06.09,0,0a1.08,1.08,0,0,1,.08.19,1.29,1.29,0,0,1,.07.21c0,.08,0,.17.05.26s0,.1,0,.15a.49.49,0,0,0,0,.12c0,.09,0,.19,0,.29v2.95h-.75v-3.18l0-.19h0a2.08,2.08,0,0,1-1.12,1.39,1.88,1.88,0,0,1-.91.29,1,1,0,0,1-.66-.25l-.07,0-.13.08-19,11L212.54,294h0a2,2,0,0,1-1,.22v-.86A2,2,0,0,0,212.53,293.1Z" style="fill:#92E3A9"></path><path d="M212.53,293.1h0l1.31-.76,15.09-8.7,4.81-2.79c.35-.2.63-.27.64-.16h0v.22c0,.24.34.24.75,0a1,1,0,0,0,.6-.76v-.24a.35.35,0,0,1,.11-.28l.11-.06.24-.14.29-.17a.3.3,0,0,1,.38,0l0,0,.06.09,0,0a1.08,1.08,0,0,1,.08.19,1.29,1.29,0,0,1,.07.21c0,.08,0,.17.05.26s0,.1,0,.15a.49.49,0,0,0,0,.12c0,.09,0,.19,0,.29v2.95h-.75v-3.18l0-.19h0a2.08,2.08,0,0,1-1.12,1.39,1.88,1.88,0,0,1-.91.29,1,1,0,0,1-.66-.25l-.07,0-.13.08-19,11L212.54,294h0a2,2,0,0,1-1,.22v-.86A2,2,0,0,0,212.53,293.1Z" style="opacity:0.30000000000000004"></path><path d="M178.9,274.45v.87a.67.67,0,0,0,.39.55h0l29.25,16.89,2.06,1.18h0a2.12,2.12,0,0,0,1,.22v-.86a1.87,1.87,0,0,1-1-.23l-1.31-.75h0L179.3,275A.7.7,0,0,1,178.9,274.45Z" style="fill:#92E3A9"></path><path d="M178.9,274.45v.87a.67.67,0,0,0,.39.55h0l29.25,16.89,2.06,1.18h0a2.12,2.12,0,0,0,1,.22v-.86a1.87,1.87,0,0,1-1-.23l-1.31-.75h0L179.3,275A.7.7,0,0,1,178.9,274.45Z" style="opacity:0.2"></path><path d="M178.9,280.26v.88a.68.68,0,0,0,.39.55h0l29.25,16.89,2.06,1.19h0a2,2,0,0,0,1,.23v-.86a2,2,0,0,1-1-.23l-1.31-.76h0l-30-17.32A.7.7,0,0,1,178.9,280.26Z" style="fill:#92E3A9"></path><path d="M178.9,280.26v.88a.68.68,0,0,0,.39.55h0l29.25,16.89,2.06,1.19h0a2,2,0,0,0,1,.23v-.86a2,2,0,0,1-1-.23l-1.31-.76h0l-30-17.32A.7.7,0,0,1,178.9,280.26Z" style="opacity:0.2"></path><polygon points="230.51 285.08 230.51 296.8 228.82 294.85 227.12 298.75 227.12 287.03 230.51 285.08" style="fill:#92E3A9"></polygon><polygon points="230.51 285.08 230.51 296.8 228.82 294.85 227.12 298.75 227.12 287.03 230.51 285.08" style="opacity:0.5"></polygon><path d="M222.9,300.31v3.18a3,3,0,0,0,1.47,2.56l4.45,2.56-4.23-.48.84,2.44L221,308a2.94,2.94,0,0,1-1.48-2.55v-3.18Z" style="fill:#92E3A9"></path><path d="M222.9,300.31v3.18a3,3,0,0,0,1.47,2.56l4.45,2.56-4.23-.48.84,2.44L221,308a2.94,2.94,0,0,1-1.48-2.55v-3.18Z" style="opacity:0.5"></path><path d="M223.88,299.75l-5.07,2.93a12.65,12.65,0,0,1,2.53-1.7A11.85,11.85,0,0,1,223.88,299.75Z" style="opacity:0.15"></path></g></g><g id="freepik--Flag--inject-2"><g id="freepik--flag--inject-2"><path d="M104.42,329.39c-8.75-5.06-22.93-5.06-31.68,0-4.37,2.52-6.55,5.83-6.54,9.14V342c0,3.31,2.17,6.61,6.54,9.14,8.75,5,22.93,5,31.68,0,4.37-2.53,6.55-5.83,6.54-9.14v-3.43C111,335.22,108.79,331.91,104.42,329.39Z" style="fill:#92E3A9"></path><path d="M104.42,329.39c-8.75-5.06-22.93-5.06-31.68,0-4.37,2.52-6.55,5.83-6.54,9.14V342c0,3.31,2.17,6.61,6.54,9.14,8.75,5,22.93,5,31.68,0,4.37-2.53,6.55-5.83,6.54-9.14v-3.43C111,335.22,108.79,331.91,104.42,329.39Z" style="opacity:0.35000000000000003"></path><path d="M72.74,329.39c-8.75,5.05-8.75,13.23,0,18.28s22.93,5.06,31.68,0,8.75-13.23,0-18.28S81.49,324.33,72.74,329.39Z" style="fill:#92E3A9"></path><path d="M72.74,329.39c-8.75,5.05-8.75,13.23,0,18.28s22.93,5.06,31.68,0,8.75-13.23,0-18.28S81.49,324.33,72.74,329.39Z" style="opacity:0.1"></path><path d="M102.81,326.12c-7.86-4.53-20.6-4.53-28.46,0-3.93,2.27-5.88,5.24-5.87,8.22v2.25c0,3,1.94,6,5.87,8.21,7.86,4.54,20.6,4.54,28.46,0,3.93-2.26,5.88-5.24,5.87-8.21v-2.25C108.69,331.37,106.74,328.39,102.81,326.12Z" style="fill:#92E3A9"></path><path d="M102.81,326.12c-7.86-4.53-20.6-4.53-28.46,0-3.93,2.27-5.88,5.24-5.87,8.22v2.25c0,3,1.94,6,5.87,8.21,7.86,4.54,20.6,4.54,28.46,0,3.93-2.26,5.88-5.24,5.87-8.21v-2.25C108.69,331.37,106.74,328.39,102.81,326.12Z" style="opacity:0.2"></path><ellipse cx="88.58" cy="334.34" rx="20.12" ry="11.62" style="fill:#92E3A9"></ellipse><path d="M90.55,50.89a2,2,0,0,0-2-2h0a2,2,0,0,0-2,2v283.5h0a1,1,0,0,0,.58.81,3.09,3.09,0,0,0,2.78,0,1,1,0,0,0,.58-.81h0Z" style="fill:#92E3A9"></path><path d="M90.55,50.89a2,2,0,0,0-2-2h0a2,2,0,0,0-2,2v283.5h0a1,1,0,0,0,.58.81,3.09,3.09,0,0,0,2.78,0,1,1,0,0,0,.58-.81h0Z" style="opacity:0.2"></path><path d="M88.58,48.92h0a2,2,0,0,0-2,2v2.34a5.56,5.56,0,0,0,2,.37,5.36,5.36,0,0,0,2-.38V50.89A2,2,0,0,0,88.58,48.92Z" style="opacity:0.2"></path><path d="M94.07,46.93a5.49,5.49,0,1,1-5.49-5.49A5.49,5.49,0,0,1,94.07,46.93Z" style="fill:#92E3A9"></path><path d="M70.87,232.41c-1.29,14.42,19.74,24.12,36,20.46l-4.7-69.51-26.4,3.57Z" style="fill:#455a64"></path><path d="M71.73,228.22a20.46,20.46,0,0,0-.86,3.59l8.51-77.23c14.46,4.49,26.07,16.19,28.19,33.14C109.87,205.93,78.1,208.59,71.73,228.22Z" style="fill:#37474f"></path><path d="M91,42.05a5.23,5.23,0,0,0-4.9,0,3.45,3.45,0,0,0,4.9,0Z" style="opacity:0.2"></path><path d="M93.05,36.88c0,2.47-2,5.41-4.47,5.41s-4.47-2.94-4.47-5.41,4.47-13.41,4.47-13.41S93.05,34.41,93.05,36.88Z" style="fill:#92E3A9"></path><path d="M90.55,57.9,72.93,158.57s12.89,4.7,20.53,9.78C106,176.7,107.58,188,107.58,188Z" style="fill:#455a64"></path></g></g><g id="freepik--speech-bubble--inject-2"><g id="freepik--speech-bubble--inject-2"><g id="freepik--speech-bubble--inject-2"><path d="M396.7,70.86l-41.15,23.7a3.66,3.66,0,0,0-1.64,2.85v47.18a3.61,3.61,0,0,0,1.65,2.83l5.89,3.3a3.69,3.69,0,0,0,3.3,0L405.89,127a3.65,3.65,0,0,0,1.65-2.85V77a3.58,3.58,0,0,0-1.66-2.83L400,70.84A3.69,3.69,0,0,0,396.7,70.86Z" style="fill:#92E3A9"></path><path d="M363.1,149.75V102.57a3.63,3.63,0,0,1,1.65-2.84L405.89,76c.91-.52,1.65-.1,1.65,1v47.18a3.65,3.65,0,0,1-1.65,2.85l-41.14,23.7C363.84,151.23,363.1,150.8,363.1,149.75Z" style="fill:#92E3A9"></path><path d="M364.75,150.7a3.75,3.75,0,0,1-3.3,0l-5.89-3.31a3.56,3.56,0,0,1-1.65-2.82V97.41a3.36,3.36,0,0,1,.52-1.68l9.16,5.23a3.31,3.31,0,0,0-.49,1.61v47.18C363.1,150.71,363.78,151.26,364.75,150.7Z" style="opacity:0.2"></path><path d="M407.51,76.67c-.12-.82-.8-1.12-1.62-.65L364.75,99.73a3.36,3.36,0,0,0-1.16,1.23l-9.17-5.23a3.37,3.37,0,0,1,1.14-1.17L396.7,70.85a3.69,3.69,0,0,1,3.3,0l5.88,3.3A3.59,3.59,0,0,1,407.51,76.67Z" style="fill:#fff;opacity:0.4"></path><path d="M353.91,113.57,340.68,127a1.46,1.46,0,0,0,.25,2.25l9.16,5.26,13-15.67Z" style="fill:#92E3A9"></path><path d="M353.91,113.57,340.68,127a1.46,1.46,0,0,0,.25,2.25l9.16,5.26,13-15.67Z" style="opacity:0.1"></path><path d="M363.1,118.87l-13.22,13.45a1.45,1.45,0,0,0,1.24,2.46l12-1.73C364.39,133.05,364.39,118.87,363.1,118.87Z" style="fill:#92E3A9"></path></g><path d="M400.34,103.36h0L395.8,93.26a.94.94,0,0,0,0-.16v-.37c0-.35-.21-.5-.47-.36l-8.15,4.71a1,1,0,0,0-1.13-.66V94.78c0-.62-.29-1-.64-.75a1.88,1.88,0,0,0-.64,1.48v1.65a4.4,4.4,0,0,0-1.13,2l-8.15,4.71a1.12,1.12,0,0,0-.47.89v.1a.45.45,0,0,0,.23.34l-4.23,14.56s0,0,0,0a.45.45,0,0,0,0,.11c0,4.75,3.9,2.57,5.3,1.75s5.06-3,5.06-7.17a.43.43,0,0,0-.07-.25h0L377,104.6l6.75-3.9a1,1,0,0,0,1.06.52v14.7l-.76.47v9.11l-2.26,1.3a3.41,3.41,0,0,0-1.42,2.71v1l-.69.4a6.64,6.64,0,0,0-2.77,5.3v.27L394,126.59v-.28c0-2-1.25-3-2.78-2.1l-.69.41v-1c0-1.05-.64-1.53-1.42-1.07l-2.26,1.3v-9.2l-.76.46V100.48a4.54,4.54,0,0,0,1.07-1.74l7-4.07-4.12,14.19s0,0,0,0a.53.53,0,0,0,0,.12c0,4.75,3.89,2.57,5.3,1.75s5.06-3,5.06-7.17A.52.52,0,0,0,400.34,103.36Zm-20.11,10.93-7.8,4.51,3.9-13.6ZM391.44,108l3.91-13.61,3.9,9.1Z" style="fill:#455a64"></path></g></g></svg>